<ttFont>
    <TTGlyph name="A" xMin="29" yMin="-66" xMax="1296" yMax="1012">
      <contour>
        <pt x="63" y="199" on="1"/>
        <pt x="46" y="199" on="0"/>
        <pt x="29" y="233" on="0"/>
        <pt x="29" y="264" on="1"/>
        <pt x="29" y="269" on="0"/>
        <pt x="29" y="282" on="0"/>
        <pt x="31" y="301" on="1"/>
        <pt x="34" y="373" on="0"/>
        <pt x="102" y="385" on="1"/>
        <pt x="125" y="387" on="1"/>
        <pt x="148" y="390" on="0"/>
        <pt x="174" y="413" on="0"/>
        <pt x="180" y="434" on="1"/>
        <pt x="197" y="491" on="0"/>
        <pt x="231" y="607" on="0"/>
        <pt x="250" y="664" on="1"/>
        <pt x="260" y="696" on="0"/>
        <pt x="281" y="769" on="0"/>
        <pt x="306" y="841" on="0"/>
        <pt x="339" y="911" on="0"/>
        <pt x="360" y="940" on="1"/>
        <pt x="369" y="952" on="0"/>
        <pt x="401" y="978" on="0"/>
        <pt x="442" y="999" on="0"/>
        <pt x="489" y="1012" on="0"/>
        <pt x="512" y="1012" on="1"/>
        <pt x="542" y="1012" on="0"/>
        <pt x="571" y="993" on="1"/>
        <pt x="610" y="966" on="0"/>
        <pt x="686" y="890" on="0"/>
        <pt x="780" y="772" on="0"/>
        <pt x="904" y="605" on="0"/>
        <pt x="991" y="487" on="1"/>
        <pt x="1004" y="472" on="0"/>
        <pt x="1033" y="457" on="0"/>
        <pt x="1053" y="457" on="1"/>
        <pt x="1110" y="457" on="1"/>
        <pt x="1145" y="457" on="0"/>
        <pt x="1184" y="424" on="0"/>
        <pt x="1184" y="395" on="1"/>
        <pt x="1184" y="389" on="0"/>
        <pt x="1183" y="373" on="0"/>
        <pt x="1180" y="365" on="1"/>
        <pt x="1161" y="309" on="1"/>
        <pt x="1159" y="301" on="0"/>
        <pt x="1157" y="289" on="0"/>
        <pt x="1157" y="283" on="1"/>
        <pt x="1157" y="262" on="0"/>
        <pt x="1171" y="240" on="1"/>
        <pt x="1278" y="94" on="1"/>
        <pt x="1296" y="67" on="0"/>
        <pt x="1296" y="43" on="1"/>
        <pt x="1296" y="7" on="0"/>
        <pt x="1255" y="-20" on="1"/>
        <pt x="1217" y="-47" on="1"/>
        <pt x="1203" y="-56" on="0"/>
        <pt x="1178" y="-66" on="0"/>
        <pt x="1165" y="-66" on="1"/>
        <pt x="1147" y="-66" on="0"/>
        <pt x="1116" y="-45" on="0"/>
        <pt x="1102" y="-27" on="1"/>
        <pt x="1054" y="41" on="0"/>
        <pt x="957" y="173" on="0"/>
        <pt x="907" y="238" on="1"/>
        <pt x="884" y="270" on="0"/>
        <pt x="846" y="270" on="1"/>
        <pt x="724" y="265" on="0"/>
        <pt x="485" y="248" on="0"/>
        <pt x="365" y="236" on="1"/>
        <pt x="322" y="232" on="0"/>
        <pt x="311" y="190" on="1"/>
        <pt x="266" y="25" on="1"/>
        <pt x="248" y="-41" on="0"/>
        <pt x="186" y="-41" on="1"/>
        <pt x="170" y="-41" on="1"/>
        <pt x="139" y="-37" on="1"/>
        <pt x="105" y="-34" on="0"/>
        <pt x="70" y="2" on="0"/>
        <pt x="70" y="31" on="1"/>
        <pt x="70" y="37" on="0"/>
        <pt x="72" y="51" on="0"/>
        <pt x="74" y="59" on="1"/>
        <pt x="79" y="79" on="0"/>
        <pt x="90" y="121" on="0"/>
        <pt x="96" y="141" on="1"/>
        <pt x="98" y="149" on="0"/>
        <pt x="100" y="162" on="0"/>
        <pt x="100" y="168" on="1"/>
        <pt x="100" y="199" on="0"/>
        <pt x="76" y="199" on="1"/>
      </contour>
      <contour>
        <pt x="539" y="727" on="1"/>
        <pt x="529" y="736" on="0"/>
        <pt x="513" y="748" on="0"/>
        <pt x="504" y="748" on="1"/>
        <pt x="479" y="748" on="0"/>
        <pt x="469" y="713" on="1"/>
        <pt x="449" y="654" on="0"/>
        <pt x="412" y="539" on="0"/>
        <pt x="393" y="479" on="1"/>
        <pt x="391" y="474" on="0"/>
        <pt x="391" y="466" on="0"/>
        <pt x="391" y="461" on="1"/>
        <pt x="391" y="424" on="0"/>
        <pt x="430" y="424" on="1"/>
        <pt x="440" y="424" on="1"/>
        <pt x="500" y="432" on="0"/>
        <pt x="620" y="441" on="0"/>
        <pt x="680" y="444" on="1"/>
        <pt x="700" y="446" on="0"/>
        <pt x="723" y="463" on="0"/>
        <pt x="723" y="477" on="1"/>
        <pt x="723" y="490" on="0"/>
        <pt x="711" y="508" on="1"/>
        <pt x="669" y="564" on="0"/>
        <pt x="584" y="673" on="0"/>
      </contour>
    </TTGlyph>
    <TTGlyph name="AE" xMin="25" yMin="-205" xMax="1948" yMax="1055">
      <contour>
        <pt x="217" y="-14" on="1"/>
        <pt x="192" y="-74" on="0"/>
        <pt x="135" y="-74" on="1"/>
        <pt x="130" y="-74" on="0"/>
        <pt x="124" y="-72" on="0"/>
        <pt x="119" y="-72" on="1"/>
        <pt x="92" y="-68" on="1"/>
        <pt x="58" y="-64" on="0"/>
        <pt x="25" y="-33" on="0"/>
        <pt x="25" y="-8" on="1"/>
        <pt x="25" y="11" on="0"/>
        <pt x="33" y="31" on="1"/>
        <pt x="133" y="270" on="0"/>
        <pt x="336" y="739" on="0"/>
        <pt x="442" y="975" on="1"/>
        <pt x="456" y="1006" on="0"/>
        <pt x="498" y="1038" on="0"/>
        <pt x="530" y="1044" on="1"/>
        <pt x="582" y="1053" on="1"/>
        <pt x="588" y="1055" on="0"/>
        <pt x="599" y="1055" on="0"/>
        <pt x="604" y="1055" on="1"/>
        <pt x="658" y="1055" on="0"/>
        <pt x="680" y="995" on="1"/>
        <pt x="711" y="915" on="1"/>
        <pt x="722" y="881" on="0"/>
        <pt x="756" y="881" on="1"/>
        <pt x="761" y="881" on="0"/>
        <pt x="769" y="881" on="0"/>
        <pt x="774" y="883" on="1"/>
        <pt x="948" y="926" on="0"/>
        <pt x="1295" y="986" on="0"/>
        <pt x="1473" y="991" on="1"/>
        <pt x="1485" y="991" on="1"/>
        <pt x="1516" y="989" on="0"/>
        <pt x="1548" y="956" on="0"/>
        <pt x="1548" y="930" on="1"/>
        <pt x="1548" y="922" on="0"/>
        <pt x="1544" y="903" on="0"/>
        <pt x="1538" y="879" on="1"/>
        <pt x="1530" y="841" on="0"/>
        <pt x="1485" y="809" on="0"/>
        <pt x="1448" y="807" on="1"/>
        <pt x="1293" y="804" on="0"/>
        <pt x="993" y="754" on="0"/>
        <pt x="844" y="719" on="1"/>
        <pt x="805" y="710" on="0"/>
        <pt x="805" y="678" on="1"/>
        <pt x="805" y="673" on="0"/>
        <pt x="806" y="662" on="0"/>
        <pt x="809" y="655" on="1"/>
        <pt x="850" y="549" on="1"/>
        <pt x="856" y="529" on="0"/>
        <pt x="883" y="512" on="0"/>
        <pt x="901" y="512" on="1"/>
        <pt x="913" y="512" on="1"/>
        <pt x="1079" y="544" on="0"/>
        <pt x="1408" y="594" on="0"/>
        <pt x="1573" y="612" on="1"/>
        <pt x="1591" y="612" on="1"/>
        <pt x="1657" y="609" on="0"/>
        <pt x="1657" y="535" on="1"/>
        <pt x="1657" y="484" on="0"/>
        <pt x="1614" y="437" on="0"/>
        <pt x="1577" y="432" on="1"/>
        <pt x="1427" y="415" on="0"/>
        <pt x="1131" y="374" on="0"/>
        <pt x="981" y="346" on="1"/>
        <pt x="942" y="340" on="0"/>
        <pt x="942" y="307" on="1"/>
        <pt x="942" y="301" on="0"/>
        <pt x="944" y="291" on="0"/>
        <pt x="946" y="285" on="1"/>
        <pt x="981" y="182" on="1"/>
        <pt x="987" y="164" on="0"/>
        <pt x="1011" y="143" on="0"/>
        <pt x="1028" y="143" on="1"/>
        <pt x="1031" y="143" on="0"/>
        <pt x="1037" y="145" on="0"/>
        <pt x="1042" y="145" on="1"/>
        <pt x="1250" y="187" on="0"/>
        <pt x="1659" y="250" on="0"/>
        <pt x="1870" y="264" on="1"/>
        <pt x="1884" y="264" on="1"/>
        <pt x="1948" y="261" on="0"/>
        <pt x="1948" y="203" on="1"/>
        <pt x="1948" y="197" on="0"/>
        <pt x="1944" y="178" on="0"/>
        <pt x="1937" y="154" on="1"/>
        <pt x="1929" y="118" on="0"/>
        <pt x="1886" y="84" on="0"/>
        <pt x="1849" y="82" on="1"/>
        <pt x="1657" y="71" on="0"/>
        <pt x="1287" y="16" on="0"/>
        <pt x="1098" y="-23" on="1"/>
        <pt x="1053" y="-32" on="0"/>
        <pt x="1053" y="-53" on="1"/>
        <pt x="1053" y="-61" on="0"/>
        <pt x="1063" y="-100" on="0"/>
        <pt x="1063" y="-113" on="1"/>
        <pt x="1063" y="-165" on="0"/>
        <pt x="1004" y="-184" on="1"/>
        <pt x="958" y="-199" on="1"/>
        <pt x="940" y="-205" on="0"/>
        <pt x="924" y="-205" on="1"/>
        <pt x="873" y="-205" on="0"/>
        <pt x="858" y="-145" on="1"/>
        <pt x="830" y="-45" on="0"/>
        <pt x="767" y="149" on="0"/>
        <pt x="733" y="246" on="1"/>
        <pt x="721" y="281" on="0"/>
        <pt x="688" y="281" on="1"/>
        <pt x="683" y="281" on="0"/>
        <pt x="675" y="281" on="0"/>
        <pt x="670" y="279" on="1"/>
        <pt x="591" y="260" on="0"/>
        <pt x="433" y="219" on="0"/>
        <pt x="354" y="195" on="1"/>
        <pt x="323" y="185" on="0"/>
        <pt x="287" y="150" on="0"/>
        <pt x="274" y="121" on="1"/>
      </contour>
      <contour>
        <pt x="578" y="666" on="1"/>
        <pt x="565" y="698" on="0"/>
        <pt x="543" y="698" on="1"/>
        <pt x="522" y="698" on="0"/>
        <pt x="510" y="668" on="1"/>
        <pt x="418" y="461" on="1"/>
        <pt x="412" y="449" on="0"/>
        <pt x="412" y="436" on="1"/>
        <pt x="412" y="422" on="0"/>
        <pt x="429" y="406" on="0"/>
        <pt x="444" y="406" on="1"/>
        <pt x="449" y="406" on="0"/>
        <pt x="459" y="408" on="0"/>
        <pt x="465" y="410" on="1"/>
        <pt x="499" y="419" on="0"/>
        <pt x="568" y="436" on="0"/>
        <pt x="602" y="444" on="1"/>
        <pt x="621" y="451" on="0"/>
        <pt x="641" y="470" on="0"/>
        <pt x="641" y="485" on="1"/>
        <pt x="641" y="498" on="0"/>
        <pt x="635" y="510" on="1"/>
        <pt x="621" y="548" on="0"/>
        <pt x="592" y="625" on="0"/>
      </contour>
    </TTGlyph>
    <TTGlyph name="Aacute" xMin="29" yMin="-66" xMax="1296" yMax="1521">
      <component glyphName="A" x="0" y="0" flags="0x1204"/>
      <component glyphName="acute" x="92" y="182" flags="0x1004"/>
    </TTGlyph>
    <TTGlyph name="Acircumflex" xMin="29" yMin="-66" xMax="1296" yMax="1505">
      <component glyphName="A" x="0" y="0" flags="0x1204"/>
      <component glyphName="circumflex" x="92" y="182" flags="0x1004"/>
    </TTGlyph>
    <TTGlyph name="Adieresis" xMin="29" yMin="-66" xMax="1296" yMax="1370">
      <component glyphName="A" x="0" y="0" flags="0x1204"/>
      <component glyphName="dieresis" x="61" y="182" flags="0x1004"/>
    </TTGlyph>
    <TTGlyph name="Agrave" xMin="29" yMin="-66" xMax="1296" yMax="1521">
      <component glyphName="A" x="0" y="0" flags="0x1204"/>
      <component glyphName="grave" x="-13" y="182" flags="0x1004"/>
    </TTGlyph>
    <TTGlyph name="Aring" xMin="29" yMin="-66" xMax="1296" yMax="1579">
      <component glyphName="A" x="0" y="0" flags="0x1204"/>
      <component glyphName="ring" x="33" y="182" flags="0x1004"/>
    </TTGlyph>
    <TTGlyph name="Atilde" xMin="29" yMin="-66" xMax="1296" yMax="1437">
      <component glyphName="A" x="0" y="0" flags="0x1204"/>
      <component glyphName="tilde" x="51" y="182" flags="0x1004"/>
    </TTGlyph>
    <TTGlyph name="B" xMin="-23" yMin="-168" xMax="1085" yMax="979">
      <contour>
        <pt x="209" y="-88" on="1"/>
        <pt x="193" y="96" on="0"/>
        <pt x="142" y="456" on="0"/>
        <pt x="106" y="639" on="1"/>
        <pt x="103" y="651" on="0"/>
        <pt x="94" y="666" on="0"/>
        <pt x="86" y="666" on="1"/>
        <pt x="80" y="666" on="0"/>
        <pt x="65" y="664" on="0"/>
        <pt x="57" y="664" on="1"/>
        <pt x="19" y="664" on="0"/>
        <pt x="-23" y="702" on="0"/>
        <pt x="-23" y="731" on="1"/>
        <pt x="-23" y="764" on="0"/>
        <pt x="32" y="826" on="0"/>
        <pt x="122" y="881" on="0"/>
        <pt x="238" y="927" on="0"/>
        <pt x="361" y="960" on="0"/>
        <pt x="481" y="979" on="0"/>
        <pt x="530" y="979" on="1"/>
        <pt x="619" y="979" on="0"/>
        <pt x="748" y="935" on="0"/>
        <pt x="831" y="863" on="0"/>
        <pt x="870" y="769" on="0"/>
        <pt x="870" y="719" on="1"/>
        <pt x="870" y="669" on="0"/>
        <pt x="827" y="550" on="0"/>
        <pt x="776" y="496" on="1"/>
        <pt x="770" y="489" on="0"/>
        <pt x="766" y="480" on="0"/>
        <pt x="766" y="475" on="1"/>
        <pt x="766" y="466" on="0"/>
        <pt x="786" y="463" on="1"/>
        <pt x="844" y="458" on="0"/>
        <pt x="953" y="412" on="0"/>
        <pt x="1035" y="339" on="0"/>
        <pt x="1085" y="241" on="0"/>
        <pt x="1085" y="186" on="1"/>
        <pt x="1085" y="109" on="0"/>
        <pt x="1026" y="-6" on="0"/>
        <pt x="922" y="-82" on="0"/>
        <pt x="779" y="-119" on="0"/>
        <pt x="696" y="-119" on="1"/>
        <pt x="631" y="-119" on="0"/>
        <pt x="500" y="-96" on="0"/>
        <pt x="438" y="-78" on="1"/>
        <pt x="434" y="-76" on="0"/>
        <pt x="426" y="-76" on="1"/>
        <pt x="409" y="-76" on="0"/>
        <pt x="399" y="-96" on="1"/>
        <pt x="382" y="-130" on="0"/>
        <pt x="319" y="-168" on="0"/>
        <pt x="287" y="-168" on="1"/>
        <pt x="258" y="-168" on="0"/>
        <pt x="214" y="-131" on="0"/>
      </contour>
      <contour>
        <pt x="403" y="293" on="1"/>
        <pt x="381" y="285" on="0"/>
        <pt x="381" y="262" on="1"/>
        <pt x="381" y="259" on="0"/>
        <pt x="386" y="221" on="0"/>
        <pt x="390" y="199" on="1"/>
        <pt x="394" y="173" on="0"/>
        <pt x="399" y="143" on="1"/>
        <pt x="402" y="117" on="0"/>
        <pt x="426" y="111" on="1"/>
        <pt x="457" y="102" on="0"/>
        <pt x="531" y="83" on="0"/>
        <pt x="611" y="67" on="0"/>
        <pt x="693" y="57" on="0"/>
        <pt x="731" y="57" on="1"/>
        <pt x="760" y="57" on="0"/>
        <pt x="814" y="70" on="0"/>
        <pt x="856" y="98" on="0"/>
        <pt x="881" y="141" on="0"/>
        <pt x="881" y="172" on="1"/>
        <pt x="881" y="217" on="0"/>
        <pt x="831" y="279" on="0"/>
        <pt x="755" y="317" on="0"/>
        <pt x="665" y="334" on="0"/>
        <pt x="625" y="334" on="1"/>
        <pt x="571" y="334" on="0"/>
        <pt x="460" y="310" on="0"/>
      </contour>
      <contour>
        <pt x="326" y="770" on="1"/>
        <pt x="315" y="767" on="0"/>
        <pt x="303" y="759" on="0"/>
        <pt x="303" y="748" on="1"/>
        <pt x="303" y="737" on="0"/>
        <pt x="312" y="680" on="0"/>
        <pt x="325" y="608" on="0"/>
        <pt x="340" y="531" on="0"/>
        <pt x="346" y="500" on="1"/>
        <pt x="348" y="481" on="0"/>
        <pt x="361" y="467" on="0"/>
        <pt x="371" y="467" on="1"/>
        <pt x="377" y="467" on="0"/>
        <pt x="396" y="472" on="0"/>
        <pt x="412" y="477" on="1"/>
        <pt x="453" y="490" on="0"/>
        <pt x="544" y="523" on="0"/>
        <pt x="619" y="569" on="0"/>
        <pt x="668" y="632" on="0"/>
        <pt x="668" y="674" on="1"/>
        <pt x="668" y="707" on="0"/>
        <pt x="640" y="752" on="0"/>
        <pt x="590" y="781" on="0"/>
        <pt x="524" y="793" on="0"/>
        <pt x="485" y="793" on="1"/>
        <pt x="445" y="793" on="0"/>
        <pt x="364" y="781" on="0"/>
      </contour>
    </TTGlyph>
    <TTGlyph name="C" xMin="37" yMin="2" xMax="1225" yMax="1055">
      <contour>
        <pt x="504" y="872" on="1"/>
        <pt x="448" y="872" on="0"/>
        <pt x="353" y="819" on="0"/>
        <pt x="282" y="726" on="0"/>
        <pt x="242" y="600" on="0"/>
        <pt x="242" y="528" on="1"/>
        <pt x="242" y="454" on="0"/>
        <pt x="309" y="329" on="0"/>
        <pt x="428" y="236" on="0"/>
        <pt x="589" y="184" on="0"/>
        <pt x="684" y="184" on="1"/>
        <pt x="753" y="184" on="0"/>
        <pt x="876" y="209" on="0"/>
        <pt x="968" y="251" on="0"/>
        <pt x="1022" y="308" on="0"/>
        <pt x="1022" y="340" on="1"/>
        <pt x="1022" y="365" on="0"/>
        <pt x="1004" y="398" on="0"/>
        <pt x="981" y="425" on="0"/>
        <pt x="963" y="452" on="0"/>
        <pt x="963" y="473" on="1"/>
        <pt x="963" y="493" on="0"/>
        <pt x="983" y="529" on="0"/>
        <pt x="1018" y="557" on="0"/>
        <pt x="1063" y="573" on="0"/>
        <pt x="1087" y="573" on="1"/>
        <pt x="1116" y="573" on="0"/>
        <pt x="1167" y="543" on="0"/>
        <pt x="1204" y="490" on="0"/>
        <pt x="1225" y="419" on="0"/>
        <pt x="1225" y="379" on="1"/>
        <pt x="1225" y="298" on="0"/>
        <pt x="1139" y="159" on="0"/>
        <pt x="987" y="59" on="0"/>
        <pt x="779" y="2" on="0"/>
        <pt x="657" y="2" on="1"/>
        <pt x="522" y="2" on="0"/>
        <pt x="294" y="75" on="0"/>
        <pt x="129" y="205" on="0"/>
        <pt x="37" y="383" on="0"/>
        <pt x="37" y="489" on="1"/>
        <pt x="37" y="605" on="0"/>
        <pt x="118" y="811" on="0"/>
        <pt x="258" y="965" on="0"/>
        <pt x="445" y="1055" on="0"/>
        <pt x="551" y="1055" on="1"/>
        <pt x="598" y="1055" on="0"/>
        <pt x="677" y="1034" on="0"/>
        <pt x="735" y="996" on="0"/>
        <pt x="768" y="945" on="0"/>
        <pt x="768" y="915" on="1"/>
        <pt x="768" y="891" on="0"/>
        <pt x="747" y="848" on="0"/>
        <pt x="713" y="815" on="0"/>
        <pt x="668" y="795" on="0"/>
        <pt x="643" y="795" on="1"/>
        <pt x="617" y="795" on="0"/>
        <pt x="586" y="819" on="0"/>
        <pt x="560" y="848" on="0"/>
        <pt x="530" y="872" on="0"/>
      </contour>
    </TTGlyph>
    <TTGlyph name="Ccedilla" xMin="37" yMin="-512" xMax="1225" yMax="1055">
      <component glyphName="C" x="0" y="0" flags="0x1204"/>
      <component glyphName="cedilla" x="201" y="0" flags="0x1004"/>
    </TTGlyph>
    <TTGlyph name="D" xMin="-113" yMin="-45" xMax="1339" yMax="971">
      <contour>
        <pt x="-14" y="764" on="1"/>
        <pt x="-27" y="762" on="0"/>
        <pt x="-45" y="760" on="0"/>
        <pt x="-51" y="760" on="1"/>
        <pt x="-85" y="762" on="0"/>
        <pt x="-113" y="797" on="0"/>
        <pt x="-113" y="838" on="1"/>
        <pt x="-113" y="919" on="0"/>
        <pt x="-35" y="940" on="1"/>
        <pt x="34" y="956" on="0"/>
        <pt x="192" y="971" on="0"/>
        <pt x="289" y="971" on="1"/>
        <pt x="419" y="971" on="0"/>
        <pt x="676" y="921" on="0"/>
        <pt x="909" y="834" on="0"/>
        <pt x="1109" y="715" on="0"/>
        <pt x="1256" y="576" on="0"/>
        <pt x="1339" y="423" on="0"/>
        <pt x="1339" y="346" on="1"/>
        <pt x="1339" y="268" on="0"/>
        <pt x="1234" y="127" on="0"/>
        <pt x="1056" y="19" on="0"/>
        <pt x="822" y="-45" on="0"/>
        <pt x="694" y="-45" on="1"/>
        <pt x="592" y="-45" on="0"/>
        <pt x="370" y="-7" on="0"/>
        <pt x="236" y="35" on="1"/>
        <pt x="174" y="52" on="0"/>
        <pt x="174" y="111" on="1"/>
        <pt x="174" y="124" on="0"/>
        <pt x="186" y="146" on="0"/>
        <pt x="199" y="166" on="0"/>
        <pt x="211" y="185" on="0"/>
        <pt x="211" y="195" on="1"/>
        <pt x="211" y="252" on="0"/>
        <pt x="200" y="382" on="0"/>
        <pt x="181" y="512" on="0"/>
        <pt x="156" y="631" on="0"/>
        <pt x="130" y="723" on="0"/>
        <pt x="103" y="778" on="0"/>
        <pt x="92" y="778" on="1"/>
        <pt x="75" y="778" on="0"/>
        <pt x="26" y="770" on="0"/>
      </contour>
      <contour>
        <pt x="371" y="780" on="1"/>
        <pt x="342" y="780" on="0"/>
        <pt x="342" y="760" on="1"/>
        <pt x="342" y="755" on="0"/>
        <pt x="348" y="731" on="0"/>
        <pt x="354" y="705" on="1"/>
        <pt x="363" y="663" on="0"/>
        <pt x="379" y="567" on="0"/>
        <pt x="395" y="448" on="0"/>
        <pt x="410" y="301" on="0"/>
        <pt x="418" y="209" on="1"/>
        <pt x="419" y="194" on="0"/>
        <pt x="471" y="167" on="0"/>
        <pt x="557" y="146" on="0"/>
        <pt x="668" y="133" on="0"/>
        <pt x="727" y="133" on="1"/>
        <pt x="805" y="133" on="0"/>
        <pt x="948" y="170" on="0"/>
        <pt x="1057" y="232" on="0"/>
        <pt x="1122" y="314" on="0"/>
        <pt x="1122" y="358" on="1"/>
        <pt x="1122" y="431" on="0"/>
        <pt x="1007" y="569" on="0"/>
        <pt x="805" y="682" on="0"/>
        <pt x="531" y="763" on="0"/>
      </contour>
    </TTGlyph>
    <TTGlyph name="E" xMin="41" yMin="-63" xMax="1339" yMax="963">
      <contour>
        <pt x="160" y="246" on="1"/>
        <pt x="157" y="246" on="0"/>
        <pt x="144" y="244" on="0"/>
        <pt x="129" y="242" on="0"/>
        <pt x="115" y="240" on="0"/>
        <pt x="111" y="240" on="1"/>
        <pt x="83" y="240" on="0"/>
        <pt x="41" y="287" on="0"/>
        <pt x="41" y="326" on="1"/>
        <pt x="41" y="352" on="0"/>
        <pt x="75" y="400" on="0"/>
        <pt x="111" y="416" on="1"/>
        <pt x="122" y="421" on="0"/>
        <pt x="135" y="434" on="0"/>
        <pt x="135" y="446" on="1"/>
        <pt x="135" y="478" on="0"/>
        <pt x="132" y="551" on="0"/>
        <pt x="129" y="600" on="1"/>
        <pt x="128" y="610" on="0"/>
        <pt x="117" y="628" on="0"/>
        <pt x="104" y="651" on="0"/>
        <pt x="94" y="679" on="0"/>
        <pt x="94" y="700" on="1"/>
        <pt x="94" y="719" on="0"/>
        <pt x="105" y="768" on="0"/>
        <pt x="140" y="811" on="0"/>
        <pt x="203" y="840" on="0"/>
        <pt x="254" y="840" on="1"/>
        <pt x="275" y="840" on="0"/>
        <pt x="303" y="832" on="0"/>
        <pt x="324" y="821" on="0"/>
        <pt x="341" y="813" on="0"/>
        <pt x="350" y="813" on="1"/>
        <pt x="366" y="813" on="0"/>
        <pt x="462" y="825" on="0"/>
        <pt x="597" y="847" on="0"/>
        <pt x="760" y="875" on="0"/>
        <pt x="928" y="908" on="0"/>
        <pt x="1088" y="942" on="0"/>
        <pt x="1153" y="958" on="1"/>
        <pt x="1173" y="963" on="0"/>
        <pt x="1188" y="963" on="1"/>
        <pt x="1209" y="963" on="0"/>
        <pt x="1234" y="944" on="0"/>
        <pt x="1246" y="916" on="0"/>
        <pt x="1249" y="881" on="0"/>
        <pt x="1249" y="866" on="1"/>
        <pt x="1249" y="840" on="0"/>
        <pt x="1214" y="795" on="0"/>
        <pt x="1174" y="782" on="1"/>
        <pt x="1075" y="753" on="0"/>
        <pt x="874" y="710" on="0"/>
        <pt x="670" y="675" on="0"/>
        <pt x="464" y="647" on="0"/>
        <pt x="362" y="633" on="1"/>
        <pt x="348" y="631" on="0"/>
        <pt x="334" y="614" on="0"/>
        <pt x="334" y="600" on="1"/>
        <pt x="334" y="559" on="1"/>
        <pt x="334" y="542" on="0"/>
        <pt x="336" y="506" on="0"/>
        <pt x="343" y="476" on="0"/>
        <pt x="355" y="457" on="0"/>
        <pt x="365" y="457" on="1"/>
        <pt x="389" y="457" on="0"/>
        <pt x="490" y="477" on="0"/>
        <pt x="617" y="506" on="0"/>
        <pt x="756" y="541" on="0"/>
        <pt x="880" y="570" on="0"/>
        <pt x="974" y="590" on="0"/>
        <pt x="993" y="590" on="1"/>
        <pt x="1021" y="590" on="0"/>
        <pt x="1050" y="549" on="0"/>
        <pt x="1055" y="518" on="1"/>
        <pt x="1055" y="513" on="0"/>
        <pt x="1057" y="505" on="0"/>
        <pt x="1057" y="500" on="1"/>
        <pt x="1057" y="471" on="0"/>
        <pt x="1022" y="422" on="0"/>
        <pt x="977" y="410" on="1"/>
        <pt x="965" y="406" on="0"/>
        <pt x="893" y="389" on="0"/>
        <pt x="795" y="366" on="0"/>
        <pt x="681" y="340" on="0"/>
        <pt x="571" y="315" on="0"/>
        <pt x="476" y="292" on="0"/>
        <pt x="446" y="285" on="1"/>
        <pt x="419" y="278" on="0"/>
        <pt x="408" y="270" on="0"/>
        <pt x="408" y="264" on="1"/>
        <pt x="410" y="242" on="0"/>
        <pt x="451" y="204" on="0"/>
        <pt x="514" y="172" on="0"/>
        <pt x="593" y="146" on="0"/>
        <pt x="678" y="129" on="0"/>
        <pt x="760" y="119" on="0"/>
        <pt x="795" y="119" on="1"/>
        <pt x="810" y="119" on="0"/>
        <pt x="866" y="119" on="0"/>
        <pt x="933" y="122" on="0"/>
        <pt x="1004" y="128" on="0"/>
        <pt x="1061" y="139" on="0"/>
        <pt x="1098" y="156" on="0"/>
        <pt x="1098" y="168" on="1"/>
        <pt x="1098" y="179" on="0"/>
        <pt x="1083" y="203" on="0"/>
        <pt x="1083" y="217" on="1"/>
        <pt x="1083" y="237" on="0"/>
        <pt x="1105" y="276" on="0"/>
        <pt x="1140" y="307" on="0"/>
        <pt x="1185" y="326" on="0"/>
        <pt x="1208" y="326" on="1"/>
        <pt x="1237" y="326" on="0"/>
        <pt x="1285" y="303" on="0"/>
        <pt x="1320" y="266" on="0"/>
        <pt x="1339" y="218" on="0"/>
        <pt x="1339" y="193" on="1"/>
        <pt x="1339" y="127" on="0"/>
        <pt x="1242" y="31" on="0"/>
        <pt x="1086" y="-32" on="0"/>
        <pt x="890" y="-63" on="0"/>
        <pt x="791" y="-63" on="1"/>
        <pt x="675" y="-63" on="0"/>
        <pt x="483" y="-32" on="0"/>
        <pt x="331" y="36" on="0"/>
        <pt x="221" y="145" on="0"/>
        <pt x="186" y="223" on="1"/>
        <pt x="174" y="246" on="0"/>
      </contour>
    </TTGlyph>
    <TTGlyph name="Eacute" xMin="41" yMin="-63" xMax="1339" yMax="1454">
      <component glyphName="E" x="0" y="0" flags="0x1204"/>
      <component glyphName="acute" x="272" y="115" flags="0x1004"/>
    </TTGlyph>
    <TTGlyph name="Ecircumflex" xMin="41" yMin="-63" xMax="1339" yMax="1438">
      <component glyphName="E" x="0" y="0" flags="0x1204"/>
      <component glyphName="circumflex" x="272" y="115" flags="0x1004"/>
    </TTGlyph>
    <TTGlyph name="Edieresis" xMin="41" yMin="-63" xMax="1339" yMax="1303">
      <component glyphName="E" x="0" y="0" flags="0x1204"/>
      <component glyphName="dieresis" x="242" y="115" flags="0x1004"/>
    </TTGlyph>
    <TTGlyph name="Egrave" xMin="41" yMin="-63" xMax="1339" yMax="1454">
      <component glyphName="E" x="0" y="0" flags="0x1204"/>
      <component glyphName="grave" x="166" y="115" flags="0x1004"/>
    </TTGlyph>
    <TTGlyph name="Eth" xMin="-113" yMin="-45" xMax="1339" yMax="971">
      <contour>
        <pt x="100" y="354" on="1"/>
        <pt x="72" y="354" on="0"/>
        <pt x="37" y="401" on="0"/>
        <pt x="37" y="446" on="1"/>
        <pt x="37" y="484" on="0"/>
        <pt x="100" y="524" on="0"/>
        <pt x="176" y="533" on="1"/>
        <pt x="167" y="584" on="0"/>
        <pt x="145" y="673" on="0"/>
        <pt x="123" y="740" on="0"/>
        <pt x="101" y="778" on="0"/>
        <pt x="92" y="778" on="1"/>
        <pt x="75" y="778" on="0"/>
        <pt x="26" y="770" on="0"/>
        <pt x="-14" y="764" on="1"/>
        <pt x="-27" y="762" on="0"/>
        <pt x="-45" y="760" on="0"/>
        <pt x="-51" y="760" on="1"/>
        <pt x="-85" y="762" on="0"/>
        <pt x="-113" y="797" on="0"/>
        <pt x="-113" y="838" on="1"/>
        <pt x="-113" y="919" on="0"/>
        <pt x="-35" y="940" on="1"/>
        <pt x="34" y="956" on="0"/>
        <pt x="192" y="971" on="0"/>
        <pt x="289" y="971" on="1"/>
        <pt x="419" y="971" on="0"/>
        <pt x="676" y="921" on="0"/>
        <pt x="909" y="834" on="0"/>
        <pt x="1109" y="715" on="0"/>
        <pt x="1256" y="576" on="0"/>
        <pt x="1339" y="423" on="0"/>
        <pt x="1339" y="346" on="1"/>
        <pt x="1339" y="268" on="0"/>
        <pt x="1234" y="127" on="0"/>
        <pt x="1056" y="19" on="0"/>
        <pt x="822" y="-45" on="0"/>
        <pt x="694" y="-45" on="1"/>
        <pt x="592" y="-45" on="0"/>
        <pt x="370" y="-7" on="0"/>
        <pt x="236" y="35" on="1"/>
        <pt x="174" y="52" on="0"/>
        <pt x="174" y="111" on="1"/>
        <pt x="174" y="124" on="0"/>
        <pt x="186" y="146" on="0"/>
        <pt x="199" y="166" on="0"/>
        <pt x="211" y="185" on="0"/>
        <pt x="211" y="195" on="1"/>
        <pt x="211" y="233" on="0"/>
        <pt x="206" y="317" on="0"/>
        <pt x="201" y="362" on="1"/>
        <pt x="168" y="358" on="0"/>
        <pt x="115" y="354" on="0"/>
      </contour>
      <contour>
        <pt x="371" y="780" on="1"/>
        <pt x="342" y="780" on="0"/>
        <pt x="342" y="760" on="1"/>
        <pt x="342" y="755" on="0"/>
        <pt x="348" y="731" on="0"/>
        <pt x="354" y="705" on="1"/>
        <pt x="361" y="672" on="0"/>
        <pt x="373" y="599" on="0"/>
        <pt x="380" y="555" on="1"/>
        <pt x="422" y="560" on="0"/>
        <pt x="496" y="567" on="0"/>
        <pt x="518" y="567" on="1"/>
        <pt x="555" y="567" on="0"/>
        <pt x="596" y="523" on="0"/>
        <pt x="596" y="467" on="1"/>
        <pt x="596" y="411" on="0"/>
        <pt x="481" y="397" on="1"/>
        <pt x="469" y="395" on="0"/>
        <pt x="427" y="391" on="0"/>
        <pt x="401" y="387" on="1"/>
        <pt x="418" y="209" on="1"/>
        <pt x="419" y="194" on="0"/>
        <pt x="471" y="167" on="0"/>
        <pt x="557" y="146" on="0"/>
        <pt x="668" y="133" on="0"/>
        <pt x="727" y="133" on="1"/>
        <pt x="805" y="133" on="0"/>
        <pt x="948" y="170" on="0"/>
        <pt x="1057" y="232" on="0"/>
        <pt x="1122" y="314" on="0"/>
        <pt x="1122" y="358" on="1"/>
        <pt x="1122" y="431" on="0"/>
        <pt x="1007" y="569" on="0"/>
        <pt x="805" y="682" on="0"/>
        <pt x="531" y="763" on="0"/>
      </contour>
    </TTGlyph>
    <TTGlyph name="Euro" xMin="37" yMin="2" xMax="1227" yMax="1055">
      <contour>
        <pt x="92" y="555" on="1"/>
        <pt x="41" y="555" on="0"/>
        <pt x="41" y="590" on="1"/>
        <pt x="41" y="593" on="0"/>
        <pt x="41" y="601" on="0"/>
        <pt x="43" y="604" on="1"/>
        <pt x="61" y="674" on="1"/>
        <pt x="68" y="694" on="0"/>
        <pt x="99" y="711" on="0"/>
        <pt x="121" y="711" on="1"/>
        <pt x="147" y="711" on="0"/>
        <pt x="200" y="711" on="0"/>
        <pt x="226" y="712" on="1"/>
        <pt x="256" y="787" on="0"/>
        <pt x="352" y="913" on="0"/>
        <pt x="475" y="1004" on="0"/>
        <pt x="619" y="1055" on="0"/>
        <pt x="698" y="1055" on="1"/>
        <pt x="745" y="1055" on="0"/>
        <pt x="824" y="1034" on="0"/>
        <pt x="882" y="996" on="0"/>
        <pt x="915" y="945" on="0"/>
        <pt x="915" y="915" on="1"/>
        <pt x="915" y="891" on="0"/>
        <pt x="895" y="848" on="0"/>
        <pt x="860" y="815" on="0"/>
        <pt x="815" y="795" on="0"/>
        <pt x="791" y="795" on="1"/>
        <pt x="765" y="795" on="0"/>
        <pt x="734" y="819" on="0"/>
        <pt x="708" y="848" on="0"/>
        <pt x="677" y="872" on="0"/>
        <pt x="651" y="872" on="1"/>
        <pt x="581" y="872" on="0"/>
        <pt x="467" y="789" on="0"/>
        <pt x="432" y="719" on="1"/>
        <pt x="523" y="723" on="0"/>
        <pt x="704" y="733" on="0"/>
        <pt x="795" y="739" on="1"/>
        <pt x="805" y="739" on="1"/>
        <pt x="828" y="737" on="0"/>
        <pt x="848" y="719" on="0"/>
        <pt x="850" y="702" on="1"/>
        <pt x="846" y="631" on="1"/>
        <pt x="843" y="587" on="0"/>
        <pt x="791" y="584" on="1"/>
        <pt x="690" y="577" on="0"/>
        <pt x="491" y="567" on="0"/>
        <pt x="390" y="562" on="1"/>
        <pt x="389" y="554" on="0"/>
        <pt x="389" y="536" on="0"/>
        <pt x="389" y="528" on="1"/>
        <pt x="389" y="505" on="0"/>
        <pt x="392" y="483" on="1"/>
        <pt x="485" y="487" on="0"/>
        <pt x="669" y="496" on="0"/>
        <pt x="768" y="502" on="1"/>
        <pt x="778" y="502" on="1"/>
        <pt x="818" y="499" on="0"/>
        <pt x="821" y="465" on="1"/>
        <pt x="817" y="393" on="1"/>
        <pt x="815" y="372" on="0"/>
        <pt x="787" y="350" on="0"/>
        <pt x="764" y="348" on="1"/>
        <pt x="687" y="343" on="0"/>
        <pt x="533" y="335" on="0"/>
        <pt x="457" y="331" on="1"/>
        <pt x="511" y="263" on="0"/>
        <pt x="693" y="184" on="0"/>
        <pt x="811" y="184" on="1"/>
        <pt x="858" y="184" on="0"/>
        <pt x="941" y="208" on="0"/>
        <pt x="1004" y="242" on="0"/>
        <pt x="1040" y="280" on="0"/>
        <pt x="1040" y="295" on="1"/>
        <pt x="1040" y="313" on="0"/>
        <pt x="1027" y="337" on="0"/>
        <pt x="1012" y="360" on="0"/>
        <pt x="999" y="387" on="0"/>
        <pt x="999" y="408" on="1"/>
        <pt x="999" y="428" on="0"/>
        <pt x="1018" y="464" on="0"/>
        <pt x="1049" y="492" on="0"/>
        <pt x="1089" y="508" on="0"/>
        <pt x="1110" y="508" on="1"/>
        <pt x="1134" y="508" on="0"/>
        <pt x="1177" y="477" on="0"/>
        <pt x="1208" y="423" on="0"/>
        <pt x="1227" y="349" on="0"/>
        <pt x="1227" y="305" on="1"/>
        <pt x="1227" y="248" on="0"/>
        <pt x="1160" y="140" on="0"/>
        <pt x="1041" y="54" on="0"/>
        <pt x="879" y="2" on="0"/>
        <pt x="784" y="2" on="1"/>
        <pt x="677" y="2" on="0"/>
        <pt x="494" y="48" on="0"/>
        <pt x="348" y="132" on="0"/>
        <pt x="243" y="250" on="0"/>
        <pt x="215" y="322" on="1"/>
        <pt x="149" y="319" on="0"/>
        <pt x="88" y="319" on="1"/>
        <pt x="62" y="319" on="0"/>
        <pt x="37" y="339" on="0"/>
        <pt x="37" y="354" on="1"/>
        <pt x="37" y="357" on="0"/>
        <pt x="37" y="366" on="0"/>
        <pt x="39" y="369" on="1"/>
        <pt x="57" y="436" on="1"/>
        <pt x="64" y="458" on="0"/>
        <pt x="95" y="477" on="0"/>
        <pt x="117" y="477" on="1"/>
        <pt x="134" y="477" on="0"/>
        <pt x="167" y="477" on="0"/>
        <pt x="184" y="478" on="1"/>
        <pt x="184" y="489" on="1"/>
        <pt x="184" y="506" on="0"/>
        <pt x="186" y="539" on="0"/>
        <pt x="188" y="556" on="1"/>
        <pt x="164" y="555" on="0"/>
        <pt x="116" y="555" on="0"/>
      </contour>
    </TTGlyph>
    <TTGlyph name="F" xMin="-18" yMin="-90" xMax="1137" yMax="983">
      <contour>
        <pt x="240" y="731" on="1"/>
        <pt x="221" y="731" on="0"/>
        <pt x="171" y="718" on="0"/>
        <pt x="117" y="701" on="0"/>
        <pt x="64" y="688" on="0"/>
        <pt x="43" y="688" on="1"/>
        <pt x="21" y="688" on="0"/>
        <pt x="-4" y="703" on="0"/>
        <pt x="-16" y="727" on="0"/>
        <pt x="-18" y="755" on="0"/>
        <pt x="-18" y="768" on="1"/>
        <pt x="-18" y="806" on="0"/>
        <pt x="27" y="854" on="0"/>
        <pt x="111" y="887" on="0"/>
        <pt x="230" y="910" on="0"/>
        <pt x="305" y="924" on="1"/>
        <pt x="423" y="946" on="0"/>
        <pt x="618" y="970" on="0"/>
        <pt x="795" y="981" on="0"/>
        <pt x="965" y="983" on="0"/>
        <pt x="1059" y="983" on="1"/>
        <pt x="1087" y="983" on="0"/>
        <pt x="1119" y="969" on="0"/>
        <pt x="1134" y="947" on="0"/>
        <pt x="1137" y="919" on="0"/>
        <pt x="1137" y="905" on="1"/>
        <pt x="1137" y="889" on="0"/>
        <pt x="1128" y="852" on="0"/>
        <pt x="1107" y="821" on="0"/>
        <pt x="1072" y="801" on="0"/>
        <pt x="1047" y="801" on="1"/>
        <pt x="967" y="801" on="1"/>
        <pt x="919" y="801" on="0"/>
        <pt x="811" y="800" on="0"/>
        <pt x="705" y="797" on="0"/>
        <pt x="608" y="791" on="0"/>
        <pt x="533" y="780" on="0"/>
        <pt x="489" y="764" on="0"/>
        <pt x="489" y="752" on="1"/>
        <pt x="489" y="740" on="0"/>
        <pt x="507" y="684" on="0"/>
        <pt x="533" y="619" on="0"/>
        <pt x="560" y="556" on="0"/>
        <pt x="569" y="535" on="1"/>
        <pt x="577" y="518" on="0"/>
        <pt x="597" y="506" on="0"/>
        <pt x="614" y="506" on="1"/>
        <pt x="655" y="506" on="0"/>
        <pt x="741" y="516" on="0"/>
        <pt x="828" y="529" on="0"/>
        <pt x="915" y="539" on="0"/>
        <pt x="958" y="539" on="1"/>
        <pt x="982" y="539" on="0"/>
        <pt x="1013" y="522" on="0"/>
        <pt x="1031" y="497" on="0"/>
        <pt x="1038" y="469" on="0"/>
        <pt x="1038" y="459" on="1"/>
        <pt x="1038" y="414" on="0"/>
        <pt x="982" y="369" on="0"/>
        <pt x="886" y="347" on="0"/>
        <pt x="759" y="339" on="0"/>
        <pt x="688" y="332" on="1"/>
        <pt x="664" y="330" on="1"/>
        <pt x="651" y="328" on="0"/>
        <pt x="637" y="314" on="0"/>
        <pt x="637" y="303" on="1"/>
        <pt x="637" y="300" on="0"/>
        <pt x="639" y="296" on="0"/>
        <pt x="639" y="293" on="1"/>
        <pt x="648" y="260" on="0"/>
        <pt x="672" y="179" on="0"/>
        <pt x="693" y="99" on="0"/>
        <pt x="707" y="27" on="0"/>
        <pt x="707" y="4" on="1"/>
        <pt x="707" y="-42" on="0"/>
        <pt x="638" y="-90" on="0"/>
        <pt x="575" y="-90" on="1"/>
        <pt x="552" y="-90" on="0"/>
        <pt x="509" y="-69" on="0"/>
        <pt x="504" y="-41" on="1"/>
        <pt x="488" y="41" on="0"/>
        <pt x="448" y="198" on="0"/>
        <pt x="426" y="276" on="1"/>
        <pt x="417" y="303" on="0"/>
        <pt x="391" y="303" on="1"/>
        <pt x="361" y="303" on="0"/>
        <pt x="286" y="307" on="0"/>
        <pt x="208" y="319" on="0"/>
        <pt x="135" y="338" on="0"/>
        <pt x="78" y="370" on="0"/>
        <pt x="43" y="414" on="0"/>
        <pt x="43" y="444" on="1"/>
        <pt x="43" y="463" on="0"/>
        <pt x="61" y="500" on="0"/>
        <pt x="89" y="529" on="0"/>
        <pt x="122" y="547" on="0"/>
        <pt x="137" y="547" on="1"/>
        <pt x="155" y="547" on="0"/>
        <pt x="197" y="529" on="0"/>
        <pt x="245" y="507" on="0"/>
        <pt x="300" y="489" on="0"/>
        <pt x="332" y="489" on="1"/>
        <pt x="348" y="489" on="0"/>
        <pt x="348" y="506" on="1"/>
        <pt x="348" y="522" on="0"/>
        <pt x="337" y="574" on="0"/>
        <pt x="319" y="631" on="0"/>
        <pt x="296" y="686" on="0"/>
        <pt x="283" y="705" on="1"/>
        <pt x="275" y="717" on="0"/>
        <pt x="258" y="731" on="0"/>
      </contour>
    </TTGlyph>
    <TTGlyph name="G" xMin="80" yMin="-47" xMax="1346" yMax="1057">
      <contour>
        <pt x="498" y="1034" on="1"/>
        <pt x="519" y="1047" on="0"/>
        <pt x="563" y="1057" on="0"/>
        <pt x="582" y="1057" on="1"/>
        <pt x="607" y="1057" on="0"/>
        <pt x="647" y="1040" on="0"/>
        <pt x="675" y="1014" on="0"/>
        <pt x="690" y="981" on="0"/>
        <pt x="690" y="965" on="1"/>
        <pt x="690" y="943" on="0"/>
        <pt x="661" y="903" on="0"/>
        <pt x="635" y="889" on="1"/>
        <pt x="583" y="859" on="0"/>
        <pt x="513" y="817" on="0"/>
        <pt x="464" y="783" on="0"/>
        <pt x="428" y="753" on="0"/>
        <pt x="410" y="735" on="1"/>
        <pt x="384" y="711" on="0"/>
        <pt x="336" y="649" on="0"/>
        <pt x="299" y="588" on="0"/>
        <pt x="276" y="532" on="0"/>
        <pt x="276" y="514" on="1"/>
        <pt x="276" y="499" on="0"/>
        <pt x="292" y="481" on="0"/>
        <pt x="307" y="481" on="1"/>
        <pt x="323" y="481" on="0"/>
        <pt x="342" y="492" on="1"/>
        <pt x="403" y="526" on="0"/>
        <pt x="538" y="580" on="0"/>
        <pt x="676" y="618" on="0"/>
        <pt x="814" y="637" on="0"/>
        <pt x="879" y="637" on="1"/>
        <pt x="982" y="637" on="0"/>
        <pt x="1154" y="592" on="0"/>
        <pt x="1278" y="512" on="0"/>
        <pt x="1346" y="399" on="0"/>
        <pt x="1346" y="332" on="1"/>
        <pt x="1346" y="257" on="0"/>
        <pt x="1260" y="119" on="0"/>
        <pt x="1110" y="15" on="0"/>
        <pt x="906" y="-47" on="0"/>
        <pt x="788" y="-47" on="1"/>
        <pt x="631" y="-47" on="0"/>
        <pt x="370" y="18" on="0"/>
        <pt x="183" y="134" on="0"/>
        <pt x="80" y="295" on="0"/>
        <pt x="80" y="391" on="1"/>
        <pt x="80" y="486" on="0"/>
        <pt x="133" y="669" on="0"/>
        <pt x="238" y="834" on="0"/>
        <pt x="394" y="977" on="0"/>
      </contour>
      <contour>
        <pt x="1145" y="297" on="1"/>
        <pt x="1145" y="331" on="0"/>
        <pt x="1102" y="387" on="0"/>
        <pt x="1025" y="427" on="0"/>
        <pt x="916" y="449" on="0"/>
        <pt x="850" y="449" on="1"/>
        <pt x="725" y="449" on="0"/>
        <pt x="486" y="380" on="0"/>
        <pt x="381" y="315" on="1"/>
        <pt x="356" y="299" on="0"/>
        <pt x="356" y="276" on="1"/>
        <pt x="356" y="260" on="0"/>
        <pt x="392" y="227" on="0"/>
        <pt x="454" y="197" on="0"/>
        <pt x="538" y="169" on="0"/>
        <pt x="632" y="149" on="0"/>
        <pt x="732" y="137" on="0"/>
        <pt x="780" y="137" on="1"/>
        <pt x="857" y="137" on="0"/>
        <pt x="990" y="162" on="0"/>
        <pt x="1089" y="205" on="0"/>
        <pt x="1145" y="263" on="0"/>
      </contour>
    </TTGlyph>
    <TTGlyph name="H" xMin="76" yMin="-25" xMax="1176" yMax="1143">
      <contour>
        <pt x="705" y="758" on="1"/>
        <pt x="705" y="769" on="0"/>
        <pt x="695" y="813" on="0"/>
        <pt x="681" y="870" on="0"/>
        <pt x="663" y="935" on="0"/>
        <pt x="649" y="997" on="0"/>
        <pt x="639" y="1051" on="0"/>
        <pt x="639" y="1069" on="1"/>
        <pt x="639" y="1092" on="0"/>
        <pt x="665" y="1121" on="0"/>
        <pt x="705" y="1137" on="0"/>
        <pt x="751" y="1143" on="0"/>
        <pt x="772" y="1143" on="1"/>
        <pt x="798" y="1143" on="0"/>
        <pt x="847" y="1114" on="0"/>
        <pt x="856" y="1077" on="1"/>
        <pt x="867" y="1038" on="0"/>
        <pt x="882" y="959" on="0"/>
        <pt x="894" y="884" on="0"/>
        <pt x="905" y="814" on="0"/>
        <pt x="911" y="784" on="1"/>
        <pt x="917" y="760" on="0"/>
        <pt x="936" y="732" on="0"/>
        <pt x="963" y="717" on="0"/>
        <pt x="994" y="713" on="0"/>
        <pt x="1012" y="713" on="1"/>
        <pt x="1032" y="713" on="0"/>
        <pt x="1078" y="721" on="0"/>
        <pt x="1100" y="721" on="1"/>
        <pt x="1114" y="721" on="0"/>
        <pt x="1141" y="712" on="0"/>
        <pt x="1163" y="689" on="0"/>
        <pt x="1176" y="649" on="0"/>
        <pt x="1176" y="618" on="1"/>
        <pt x="1176" y="592" on="0"/>
        <pt x="1156" y="557" on="0"/>
        <pt x="1128" y="551" on="1"/>
        <pt x="1092" y="543" on="1"/>
        <pt x="1075" y="540" on="0"/>
        <pt x="1046" y="537" on="0"/>
        <pt x="1024" y="535" on="1"/>
        <pt x="977" y="530" on="0"/>
        <pt x="977" y="494" on="1"/>
        <pt x="977" y="491" on="0"/>
        <pt x="985" y="443" on="0"/>
        <pt x="998" y="372" on="0"/>
        <pt x="1014" y="287" on="0"/>
        <pt x="1029" y="209" on="0"/>
        <pt x="1041" y="148" on="0"/>
        <pt x="1044" y="135" on="1"/>
        <pt x="1049" y="113" on="0"/>
        <pt x="1055" y="89" on="0"/>
        <pt x="1055" y="68" on="1"/>
        <pt x="1055" y="52" on="0"/>
        <pt x="1037" y="21" on="0"/>
        <pt x="1002" y="-3" on="0"/>
        <pt x="952" y="-18" on="0"/>
        <pt x="920" y="-18" on="1"/>
        <pt x="885" y="-18" on="0"/>
        <pt x="854" y="25" on="0"/>
        <pt x="848" y="53" on="1"/>
        <pt x="835" y="105" on="0"/>
        <pt x="812" y="215" on="0"/>
        <pt x="791" y="323" on="0"/>
        <pt x="772" y="426" on="0"/>
        <pt x="764" y="473" on="1"/>
        <pt x="759" y="495" on="0"/>
        <pt x="733" y="516" on="0"/>
        <pt x="713" y="516" on="1"/>
        <pt x="645" y="516" on="0"/>
        <pt x="508" y="507" on="0"/>
        <pt x="442" y="504" on="1"/>
        <pt x="419" y="502" on="0"/>
        <pt x="393" y="476" on="0"/>
        <pt x="393" y="455" on="1"/>
        <pt x="393" y="408" on="0"/>
        <pt x="395" y="316" on="0"/>
        <pt x="395" y="268" on="1"/>
        <pt x="395" y="213" on="0"/>
        <pt x="392" y="97" on="0"/>
        <pt x="389" y="43" on="1"/>
        <pt x="387" y="23" on="0"/>
        <pt x="368" y="-3" on="0"/>
        <pt x="339" y="-19" on="0"/>
        <pt x="302" y="-25" on="0"/>
        <pt x="283" y="-25" on="1"/>
        <pt x="236" y="-25" on="0"/>
        <pt x="184" y="6" on="0"/>
        <pt x="184" y="43" on="1"/>
        <pt x="184" y="99" on="0"/>
        <pt x="190" y="221" on="0"/>
        <pt x="190" y="283" on="1"/>
        <pt x="190" y="325" on="0"/>
        <pt x="188" y="404" on="0"/>
        <pt x="188" y="446" on="1"/>
        <pt x="188" y="465" on="0"/>
        <pt x="171" y="484" on="0"/>
        <pt x="147" y="496" on="0"/>
        <pt x="117" y="507" on="0"/>
        <pt x="93" y="529" on="0"/>
        <pt x="76" y="571" on="0"/>
        <pt x="76" y="608" on="1"/>
        <pt x="76" y="628" on="0"/>
        <pt x="91" y="651" on="0"/>
        <pt x="114" y="665" on="0"/>
        <pt x="140" y="674" on="0"/>
        <pt x="163" y="688" on="0"/>
        <pt x="178" y="709" on="0"/>
        <pt x="178" y="729" on="1"/>
        <pt x="178" y="741" on="0"/>
        <pt x="176" y="774" on="0"/>
        <pt x="174" y="804" on="0"/>
        <pt x="172" y="827" on="0"/>
        <pt x="172" y="831" on="1"/>
        <pt x="172" y="865" on="0"/>
        <pt x="191" y="906" on="0"/>
        <pt x="219" y="927" on="0"/>
        <pt x="254" y="934" on="0"/>
        <pt x="270" y="934" on="1"/>
        <pt x="330" y="934" on="0"/>
        <pt x="377" y="889" on="0"/>
        <pt x="379" y="846" on="1"/>
        <pt x="383" y="741" on="1"/>
        <pt x="385" y="717" on="0"/>
        <pt x="407" y="692" on="0"/>
        <pt x="432" y="692" on="1"/>
        <pt x="659" y="700" on="1"/>
        <pt x="688" y="702" on="0"/>
        <pt x="705" y="730" on="0"/>
      </contour>
    </TTGlyph>
    <TTGlyph name="I" xMin="102" yMin="-16" xMax="375" yMax="1020">
      <contour>
        <pt x="102" y="934" on="1"/>
        <pt x="102" y="952" on="0"/>
        <pt x="120" y="983" on="0"/>
        <pt x="152" y="1006" on="0"/>
        <pt x="195" y="1020" on="0"/>
        <pt x="219" y="1020" on="1"/>
        <pt x="266" y="1020" on="0"/>
        <pt x="310" y="990" on="0"/>
        <pt x="315" y="958" on="1"/>
        <pt x="332" y="825" on="0"/>
        <pt x="355" y="588" on="0"/>
        <pt x="369" y="373" on="0"/>
        <pt x="375" y="176" on="0"/>
        <pt x="375" y="84" on="1"/>
        <pt x="375" y="34" on="0"/>
        <pt x="304" y="-16" on="0"/>
        <pt x="236" y="-16" on="1"/>
        <pt x="205" y="-16" on="0"/>
        <pt x="170" y="13" on="0"/>
        <pt x="170" y="41" on="1"/>
        <pt x="170" y="213" on="0"/>
        <pt x="149" y="514" on="0"/>
        <pt x="123" y="748" on="0"/>
        <pt x="102" y="905" on="0"/>
      </contour>
    </TTGlyph>
    <TTGlyph name="Iacute" xMin="1" yMin="-16" xMax="482" yMax="1523">
      <component glyphName="I" x="0" y="0" flags="0x1204"/>
      <component glyphName="acute" x="-192" y="184" flags="0x1004"/>
    </TTGlyph>
    <TTGlyph name="Icircumflex" xMin="-75" yMin="-16" xMax="558" yMax="1507">
      <component glyphName="I" x="0" y="0" flags="0x1204"/>
      <component glyphName="circumflex" x="-192" y="184" flags="0x1004"/>
    </TTGlyph>
    <TTGlyph name="Idieresis" xMin="-91" yMin="-16" xMax="513" yMax="1372">
      <component glyphName="I" x="0" y="0" flags="0x1204"/>
      <component glyphName="dieresis" x="-222" y="184" flags="0x1004"/>
    </TTGlyph>
    <TTGlyph name="Igrave" xMin="-105" yMin="-16" xMax="376" yMax="1523">
      <component glyphName="I" x="0" y="0" flags="0x1204"/>
      <component glyphName="grave" x="-298" y="184" flags="0x1004"/>
    </TTGlyph>
    <TTGlyph name="Itilde" xMin="-150" yMin="-16" xMax="554" yMax="1439">
      <component glyphName="I" x="0" y="0" flags="0x1204"/>
      <component glyphName="tilde" x="-232" y="184" flags="0x1004"/>
    </TTGlyph>
    <TTGlyph name="J" xMin="20" yMin="-188" xMax="1159" yMax="1032">
      <contour>
        <pt x="162" y="809" on="1"/>
        <pt x="142" y="811" on="0"/>
        <pt x="106" y="833" on="0"/>
        <pt x="79" y="868" on="0"/>
        <pt x="63" y="911" on="0"/>
        <pt x="63" y="934" on="1"/>
        <pt x="63" y="963" on="0"/>
        <pt x="92" y="997" on="0"/>
        <pt x="115" y="997" on="1"/>
        <pt x="128" y="997" on="0"/>
        <pt x="186" y="991" on="0"/>
        <pt x="265" y="982" on="0"/>
        <pt x="358" y="971" on="0"/>
        <pt x="455" y="962" on="0"/>
        <pt x="549" y="956" on="0"/>
        <pt x="590" y="956" on="1"/>
        <pt x="613" y="956" on="0"/>
        <pt x="650" y="967" on="0"/>
        <pt x="670" y="979" on="1"/>
        <pt x="705" y="1004" on="0"/>
        <pt x="796" y="1032" on="0"/>
        <pt x="846" y="1032" on="1"/>
        <pt x="895" y="1032" on="0"/>
        <pt x="1005" y="997" on="0"/>
        <pt x="1098" y="944" on="0"/>
        <pt x="1159" y="880" on="0"/>
        <pt x="1159" y="852" on="1"/>
        <pt x="1159" y="830" on="0"/>
        <pt x="1140" y="800" on="0"/>
        <pt x="1090" y="781" on="0"/>
        <pt x="1003" y="768" on="0"/>
        <pt x="936" y="764" on="1"/>
        <pt x="913" y="762" on="0"/>
        <pt x="891" y="739" on="0"/>
        <pt x="891" y="719" on="1"/>
        <pt x="891" y="701" on="0"/>
        <pt x="910" y="614" on="0"/>
        <pt x="933" y="487" on="0"/>
        <pt x="952" y="324" on="0"/>
        <pt x="952" y="231" on="1"/>
        <pt x="952" y="136" on="0"/>
        <pt x="899" y="-19" on="0"/>
        <pt x="801" y="-129" on="0"/>
        <pt x="663" y="-188" on="0"/>
        <pt x="578" y="-188" on="1"/>
        <pt x="503" y="-188" on="0"/>
        <pt x="362" y="-144" on="0"/>
        <pt x="238" y="-66" on="0"/>
        <pt x="135" y="44" on="0"/>
        <pt x="61" y="176" on="0"/>
        <pt x="20" y="326" on="0"/>
        <pt x="20" y="406" on="1"/>
        <pt x="20" y="443" on="0"/>
        <pt x="64" y="492" on="0"/>
        <pt x="98" y="492" on="1"/>
        <pt x="129" y="492" on="0"/>
        <pt x="185" y="478" on="0"/>
        <pt x="226" y="452" on="0"/>
        <pt x="250" y="418" on="0"/>
        <pt x="250" y="399" on="1"/>
        <pt x="250" y="318" on="0"/>
        <pt x="309" y="170" on="0"/>
        <pt x="409" y="58" on="0"/>
        <pt x="541" y="-8" on="0"/>
        <pt x="614" y="-8" on="1"/>
        <pt x="679" y="-8" on="0"/>
        <pt x="750" y="89" on="0"/>
        <pt x="750" y="180" on="1"/>
        <pt x="750" y="295" on="0"/>
        <pt x="712" y="554" on="0"/>
        <pt x="674" y="707" on="1"/>
        <pt x="659" y="761" on="0"/>
        <pt x="614" y="764" on="1"/>
        <pt x="494" y="770" on="0"/>
        <pt x="268" y="792" on="0"/>
      </contour>
    </TTGlyph>
    <TTGlyph name="Jcircumflex" xMin="20" yMin="-188" xMax="1159" yMax="1499">
      <component glyphName="J" x="0" y="0" flags="0x1204"/>
      <component glyphName="circumflex" x="154" y="176" flags="0x1004"/>
    </TTGlyph>
    <TTGlyph name="K" xMin="8" yMin="23" xMax="1313" yMax="1057">
      <contour>
        <pt x="983" y="946" on="1"/>
        <pt x="983" y="907" on="0"/>
        <pt x="932" y="839" on="0"/>
        <pt x="855" y="775" on="0"/>
        <pt x="765" y="715" on="0"/>
        <pt x="688" y="653" on="0"/>
        <pt x="637" y="589" on="0"/>
        <pt x="637" y="553" on="1"/>
        <pt x="637" y="523" on="0"/>
        <pt x="721" y="467" on="0"/>
        <pt x="879" y="411" on="0"/>
        <pt x="1103" y="352" on="0"/>
        <pt x="1243" y="319" on="1"/>
        <pt x="1313" y="300" on="0"/>
        <pt x="1313" y="248" on="1"/>
        <pt x="1313" y="228" on="0"/>
        <pt x="1294" y="190" on="0"/>
        <pt x="1262" y="161" on="0"/>
        <pt x="1221" y="143" on="0"/>
        <pt x="1200" y="143" on="1"/>
        <pt x="1150" y="143" on="0"/>
        <pt x="1023" y="173" on="0"/>
        <pt x="887" y="217" on="0"/>
        <pt x="751" y="270" on="0"/>
        <pt x="632" y="314" on="0"/>
        <pt x="541" y="344" on="0"/>
        <pt x="518" y="344" on="1"/>
        <pt x="500" y="344" on="0"/>
        <pt x="467" y="311" on="0"/>
        <pt x="440" y="253" on="0"/>
        <pt x="422" y="174" on="0"/>
        <pt x="418" y="127" on="1"/>
        <pt x="413" y="74" on="0"/>
        <pt x="348" y="23" on="0"/>
        <pt x="291" y="23" on="1"/>
        <pt x="232" y="23" on="0"/>
        <pt x="223" y="78" on="1"/>
        <pt x="208" y="162" on="0"/>
        <pt x="165" y="336" on="0"/>
        <pt x="114" y="510" on="0"/>
        <pt x="55" y="680" on="0"/>
        <pt x="23" y="758" on="1"/>
        <pt x="15" y="775" on="0"/>
        <pt x="8" y="804" on="0"/>
        <pt x="8" y="819" on="1"/>
        <pt x="8" y="832" on="0"/>
        <pt x="24" y="855" on="0"/>
        <pt x="52" y="873" on="0"/>
        <pt x="89" y="883" on="0"/>
        <pt x="109" y="883" on="1"/>
        <pt x="150" y="883" on="0"/>
        <pt x="198" y="849" on="0"/>
        <pt x="223" y="815" on="1"/>
        <pt x="235" y="799" on="0"/>
        <pt x="257" y="746" on="0"/>
        <pt x="277" y="686" on="0"/>
        <pt x="297" y="625" on="0"/>
        <pt x="316" y="576" on="0"/>
        <pt x="335" y="545" on="0"/>
        <pt x="344" y="545" on="1"/>
        <pt x="352" y="545" on="0"/>
        <pt x="363" y="559" on="0"/>
        <pt x="371" y="573" on="1"/>
        <pt x="423" y="681" on="0"/>
        <pt x="547" y="860" on="0"/>
        <pt x="677" y="987" on="0"/>
        <pt x="808" y="1057" on="0"/>
        <pt x="868" y="1057" on="1"/>
        <pt x="892" y="1057" on="0"/>
        <pt x="934" y="1040" on="0"/>
        <pt x="965" y="1010" on="0"/>
        <pt x="983" y="969" on="0"/>
      </contour>
    </TTGlyph>
    <TTGlyph name="L" xMin="102" yMin="-86" xMax="819" yMax="958">
      <contour>
        <pt x="342" y="-68" on="1"/>
        <pt x="313" y="-73" on="0"/>
        <pt x="267" y="-86" on="0"/>
        <pt x="233" y="-86" on="1"/>
        <pt x="196" y="-86" on="0"/>
        <pt x="156" y="-44" on="0"/>
        <pt x="156" y="-18" on="1"/>
        <pt x="156" y="3" on="0"/>
        <pt x="170" y="70" on="0"/>
        <pt x="170" y="104" on="1"/>
        <pt x="163" y="233" on="0"/>
        <pt x="140" y="486" on="0"/>
        <pt x="118" y="696" on="0"/>
        <pt x="102" y="845" on="0"/>
        <pt x="102" y="872" on="1"/>
        <pt x="102" y="890" on="0"/>
        <pt x="120" y="921" on="0"/>
        <pt x="152" y="945" on="0"/>
        <pt x="195" y="958" on="0"/>
        <pt x="219" y="958" on="1"/>
        <pt x="266" y="958" on="0"/>
        <pt x="310" y="929" on="0"/>
        <pt x="315" y="897" on="1"/>
        <pt x="343" y="682" on="0"/>
        <pt x="368" y="323" on="0"/>
        <pt x="373" y="166" on="1"/>
        <pt x="373" y="143" on="0"/>
        <pt x="398" y="119" on="0"/>
        <pt x="418" y="119" on="1"/>
        <pt x="458" y="119" on="0"/>
        <pt x="540" y="128" on="0"/>
        <pt x="622" y="138" on="0"/>
        <pt x="703" y="147" on="0"/>
        <pt x="741" y="147" on="1"/>
        <pt x="766" y="147" on="0"/>
        <pt x="797" y="135" on="0"/>
        <pt x="814" y="115" on="0"/>
        <pt x="819" y="90" on="0"/>
        <pt x="819" y="78" on="1"/>
        <pt x="819" y="59" on="0"/>
        <pt x="811" y="21" on="0"/>
        <pt x="791" y="-10" on="0"/>
        <pt x="757" y="-31" on="0"/>
        <pt x="731" y="-33" on="1"/>
        <pt x="608" y="-45" on="0"/>
        <pt x="405" y="-57" on="0"/>
      </contour>
    </TTGlyph>
    <TTGlyph name="Lslash" xMin="-26" yMin="-86" xMax="819" yMax="958">
      <component glyphName="L" x="0" y="0" flags="0x1204"/>
      <component glyphName="hyphen" x="-71" y="45" flags="0x1004"/>
    </TTGlyph>
    <TTGlyph name="M" xMin="68" yMin="-33" xMax="1430" yMax="961">
      <contour>
        <pt x="1053" y="545" on="1"/>
        <pt x="1041" y="545" on="0"/>
        <pt x="1032" y="526" on="1"/>
        <pt x="994" y="452" on="0"/>
        <pt x="909" y="332" on="0"/>
        <pt x="823" y="248" on="0"/>
        <pt x="739" y="203" on="0"/>
        <pt x="702" y="203" on="1"/>
        <pt x="666" y="203" on="0"/>
        <pt x="605" y="234" on="0"/>
        <pt x="534" y="320" on="0"/>
        <pt x="443" y="472" on="0"/>
        <pt x="377" y="594" on="1"/>
        <pt x="366" y="614" on="0"/>
        <pt x="343" y="633" on="0"/>
        <pt x="334" y="633" on="1"/>
        <pt x="321" y="633" on="0"/>
        <pt x="299" y="578" on="0"/>
        <pt x="283" y="479" on="0"/>
        <pt x="274" y="340" on="0"/>
        <pt x="274" y="256" on="1"/>
        <pt x="274" y="206" on="0"/>
        <pt x="285" y="106" on="0"/>
        <pt x="285" y="53" on="1"/>
        <pt x="285" y="35" on="0"/>
        <pt x="265" y="4" on="0"/>
        <pt x="232" y="-19" on="0"/>
        <pt x="187" y="-33" on="0"/>
        <pt x="162" y="-33" on="1"/>
        <pt x="112" y="-33" on="0"/>
        <pt x="68" y="87" on="0"/>
        <pt x="68" y="219" on="1"/>
        <pt x="68" y="386" on="0"/>
        <pt x="105" y="659" on="0"/>
        <pt x="174" y="854" on="0"/>
        <pt x="269" y="961" on="0"/>
        <pt x="328" y="961" on="1"/>
        <pt x="380" y="961" on="0"/>
        <pt x="475" y="842" on="0"/>
        <pt x="530" y="709" on="1"/>
        <pt x="552" y="655" on="0"/>
        <pt x="603" y="561" on="0"/>
        <pt x="654" y="492" on="0"/>
        <pt x="702" y="453" on="0"/>
        <pt x="721" y="453" on="1"/>
        <pt x="740" y="453" on="0"/>
        <pt x="775" y="470" on="0"/>
        <pt x="820" y="527" on="0"/>
        <pt x="881" y="637" on="0"/>
        <pt x="926" y="729" on="1"/>
        <pt x="950" y="777" on="0"/>
        <pt x="988" y="841" on="0"/>
        <pt x="1026" y="880" on="0"/>
        <pt x="1068" y="897" on="0"/>
        <pt x="1094" y="897" on="1"/>
        <pt x="1125" y="897" on="0"/>
        <pt x="1185" y="831" on="0"/>
        <pt x="1242" y="721" on="0"/>
        <pt x="1296" y="575" on="0"/>
        <pt x="1347" y="415" on="0"/>
        <pt x="1396" y="250" on="0"/>
        <pt x="1419" y="176" on="1"/>
        <pt x="1425" y="154" on="0"/>
        <pt x="1430" y="137" on="0"/>
        <pt x="1430" y="125" on="1"/>
        <pt x="1430" y="108" on="0"/>
        <pt x="1409" y="75" on="0"/>
        <pt x="1375" y="49" on="0"/>
        <pt x="1332" y="33" on="0"/>
        <pt x="1311" y="33" on="1"/>
        <pt x="1283" y="33" on="0"/>
        <pt x="1252" y="46" on="0"/>
        <pt x="1243" y="63" on="1"/>
        <pt x="1238" y="72" on="0"/>
        <pt x="1214" y="150" on="0"/>
        <pt x="1181" y="257" on="0"/>
        <pt x="1142" y="377" on="0"/>
        <pt x="1103" y="478" on="0"/>
        <pt x="1067" y="545" on="0"/>
      </contour>
    </TTGlyph>
    <TTGlyph name="N" xMin="100" yMin="33" xMax="1241" yMax="1036">
      <contour>
        <pt x="311" y="500" on="1"/>
        <pt x="311" y="458" on="0"/>
        <pt x="319" y="368" on="0"/>
        <pt x="330" y="278" on="0"/>
        <pt x="338" y="187" on="0"/>
        <pt x="338" y="143" on="1"/>
        <pt x="338" y="94" on="0"/>
        <pt x="270" y="33" on="0"/>
        <pt x="213" y="33" on="1"/>
        <pt x="185" y="33" on="0"/>
        <pt x="136" y="67" on="0"/>
        <pt x="133" y="104" on="1"/>
        <pt x="128" y="151" on="0"/>
        <pt x="119" y="268" on="0"/>
        <pt x="112" y="393" on="0"/>
        <pt x="106" y="520" on="0"/>
        <pt x="102" y="637" on="0"/>
        <pt x="100" y="736" on="0"/>
        <pt x="100" y="770" on="1"/>
        <pt x="100" y="800" on="0"/>
        <pt x="108" y="854" on="0"/>
        <pt x="134" y="894" on="0"/>
        <pt x="179" y="918" on="0"/>
        <pt x="217" y="918" on="1"/>
        <pt x="246" y="918" on="0"/>
        <pt x="318" y="877" on="0"/>
        <pt x="401" y="807" on="0"/>
        <pt x="495" y="716" on="0"/>
        <pt x="595" y="616" on="0"/>
        <pt x="700" y="513" on="0"/>
        <pt x="754" y="467" on="1"/>
        <pt x="778" y="446" on="0"/>
        <pt x="839" y="390" on="0"/>
        <pt x="904" y="340" on="0"/>
        <pt x="969" y="305" on="0"/>
        <pt x="999" y="305" on="1"/>
        <pt x="1027" y="305" on="0"/>
        <pt x="1044" y="354" on="0"/>
        <pt x="1044" y="408" on="1"/>
        <pt x="1044" y="448" on="0"/>
        <pt x="1031" y="566" on="0"/>
        <pt x="1007" y="700" on="0"/>
        <pt x="971" y="835" on="0"/>
        <pt x="948" y="891" on="1"/>
        <pt x="943" y="903" on="0"/>
        <pt x="934" y="926" on="0"/>
        <pt x="934" y="940" on="1"/>
        <pt x="934" y="963" on="0"/>
        <pt x="964" y="999" on="0"/>
        <pt x="1006" y="1023" on="0"/>
        <pt x="1052" y="1036" on="0"/>
        <pt x="1067" y="1036" on="1"/>
        <pt x="1100" y="1036" on="0"/>
        <pt x="1152" y="965" on="0"/>
        <pt x="1191" y="852" on="0"/>
        <pt x="1217" y="711" on="0"/>
        <pt x="1234" y="569" on="0"/>
        <pt x="1241" y="440" on="0"/>
        <pt x="1241" y="397" on="1"/>
        <pt x="1241" y="316" on="0"/>
        <pt x="1228" y="193" on="0"/>
        <pt x="1187" y="109" on="0"/>
        <pt x="1109" y="66" on="0"/>
        <pt x="1044" y="66" on="1"/>
        <pt x="992" y="66" on="0"/>
        <pt x="878" y="109" on="0"/>
        <pt x="761" y="182" on="0"/>
        <pt x="642" y="276" on="0"/>
        <pt x="528" y="378" on="0"/>
        <pt x="421" y="480" on="0"/>
        <pt x="375" y="524" on="1"/>
        <pt x="356" y="543" on="0"/>
        <pt x="340" y="543" on="1"/>
        <pt x="326" y="543" on="0"/>
        <pt x="311" y="520" on="0"/>
      </contour>
    </TTGlyph>
    <TTGlyph name="Nacute" xMin="100" yMin="33" xMax="1241" yMax="1499">
      <component glyphName="N" x="0" y="0" flags="0x1204"/>
      <component glyphName="acute" x="205" y="160" flags="0x1004"/>
    </TTGlyph>
    <TTGlyph name="Ntilde" xMin="100" yMin="33" xMax="1241" yMax="1415">
      <component glyphName="N" x="0" y="0" flags="0x1204"/>
      <component glyphName="tilde" x="164" y="160" flags="0x1004"/>
    </TTGlyph>
    <TTGlyph name="O" xMin="57" yMin="-125" xMax="1190" yMax="932">
      <contour>
        <pt x="555" y="-125" on="1"/>
        <pt x="446" y="-125" on="0"/>
        <pt x="263" y="-51" on="0"/>
        <pt x="131" y="82" on="0"/>
        <pt x="57" y="266" on="0"/>
        <pt x="57" y="377" on="1"/>
        <pt x="57" y="437" on="0"/>
        <pt x="78" y="548" on="0"/>
        <pt x="96" y="596" on="1"/>
        <pt x="104" y="615" on="0"/>
        <pt x="104" y="623" on="1"/>
        <pt x="104" y="633" on="0"/>
        <pt x="94" y="651" on="0"/>
        <pt x="82" y="671" on="0"/>
        <pt x="72" y="693" on="0"/>
        <pt x="72" y="707" on="1"/>
        <pt x="72" y="749" on="0"/>
        <pt x="168" y="830" on="0"/>
        <pt x="326" y="893" on="0"/>
        <pt x="526" y="932" on="0"/>
        <pt x="631" y="932" on="1"/>
        <pt x="760" y="932" on="0"/>
        <pt x="967" y="866" on="0"/>
        <pt x="1112" y="743" on="0"/>
        <pt x="1190" y="567" on="0"/>
        <pt x="1190" y="457" on="1"/>
        <pt x="1190" y="334" on="0"/>
        <pt x="1092" y="121" on="0"/>
        <pt x="921" y="-35" on="0"/>
        <pt x="689" y="-125" on="0"/>
      </contour>
      <contour>
        <pt x="989" y="418" on="1"/>
        <pt x="989" y="496" on="0"/>
        <pt x="935" y="620" on="0"/>
        <pt x="833" y="705" on="0"/>
        <pt x="684" y="750" on="0"/>
        <pt x="590" y="750" on="1"/>
        <pt x="425" y="750" on="0"/>
        <pt x="258" y="583" on="0"/>
        <pt x="258" y="418" on="1"/>
        <pt x="258" y="338" on="0"/>
        <pt x="308" y="205" on="0"/>
        <pt x="398" y="110" on="0"/>
        <pt x="523" y="57" on="0"/>
        <pt x="598" y="57" on="1"/>
        <pt x="684" y="57" on="0"/>
        <pt x="828" y="110" on="0"/>
        <pt x="931" y="206" on="0"/>
        <pt x="989" y="339" on="0"/>
      </contour>
    </TTGlyph>
    <TTGlyph name="OE" xMin="70" yMin="-121" xMax="1933" yMax="1116">
      <contour>
        <pt x="795" y="1092" on="1"/>
        <pt x="835" y="1092" on="0"/>
        <pt x="921" y="1084" on="0"/>
        <pt x="965" y="1073" on="1"/>
        <pt x="1073" y="1110" on="1"/>
        <pt x="1084" y="1113" on="0"/>
        <pt x="1104" y="1116" on="0"/>
        <pt x="1112" y="1116" on="1"/>
        <pt x="1157" y="1116" on="0"/>
        <pt x="1169" y="1073" on="1"/>
        <pt x="1171" y="1057" on="1"/>
        <pt x="1176" y="1032" on="0"/>
        <pt x="1206" y="1014" on="0"/>
        <pt x="1231" y="1014" on="1"/>
        <pt x="1362" y="1025" on="0"/>
        <pt x="1625" y="1034" on="0"/>
        <pt x="1759" y="1034" on="1"/>
        <pt x="1787" y="1034" on="0"/>
        <pt x="1839" y="1029" on="0"/>
        <pt x="1879" y="1015" on="0"/>
        <pt x="1903" y="988" on="0"/>
        <pt x="1903" y="967" on="1"/>
        <pt x="1903" y="959" on="0"/>
        <pt x="1900" y="946" on="0"/>
        <pt x="1898" y="938" on="1"/>
        <pt x="1892" y="915" on="1"/>
        <pt x="1877" y="846" on="0"/>
        <pt x="1806" y="846" on="1"/>
        <pt x="1758" y="846" on="0"/>
        <pt x="1661" y="850" on="0"/>
        <pt x="1612" y="850" on="1"/>
        <pt x="1441" y="850" on="0"/>
        <pt x="1270" y="838" on="1"/>
        <pt x="1242" y="836" on="0"/>
        <pt x="1225" y="806" on="0"/>
        <pt x="1225" y="780" on="1"/>
        <pt x="1245" y="666" on="1"/>
        <pt x="1250" y="640" on="0"/>
        <pt x="1280" y="623" on="0"/>
        <pt x="1305" y="623" on="1"/>
        <pt x="1362" y="633" on="0"/>
        <pt x="1496" y="655" on="0"/>
        <pt x="1625" y="673" on="0"/>
        <pt x="1736" y="684" on="0"/>
        <pt x="1772" y="684" on="1"/>
        <pt x="1807" y="684" on="0"/>
        <pt x="1847" y="653" on="0"/>
        <pt x="1847" y="621" on="1"/>
        <pt x="1847" y="614" on="0"/>
        <pt x="1843" y="596" on="0"/>
        <pt x="1837" y="571" on="1"/>
        <pt x="1829" y="536" on="0"/>
        <pt x="1784" y="502" on="0"/>
        <pt x="1749" y="500" on="1"/>
        <pt x="1643" y="495" on="0"/>
        <pt x="1434" y="467" on="0"/>
        <pt x="1331" y="449" on="1"/>
        <pt x="1310" y="444" on="0"/>
        <pt x="1288" y="424" on="0"/>
        <pt x="1288" y="406" on="1"/>
        <pt x="1288" y="380" on="0"/>
        <pt x="1295" y="301" on="0"/>
        <pt x="1312" y="228" on="0"/>
        <pt x="1338" y="176" on="0"/>
        <pt x="1356" y="176" on="1"/>
        <pt x="1361" y="176" on="0"/>
        <pt x="1369" y="176" on="0"/>
        <pt x="1374" y="178" on="1"/>
        <pt x="1493" y="200" on="0"/>
        <pt x="1736" y="227" on="0"/>
        <pt x="1858" y="227" on="1"/>
        <pt x="1933" y="227" on="0"/>
        <pt x="1933" y="164" on="1"/>
        <pt x="1933" y="158" on="0"/>
        <pt x="1931" y="143" on="0"/>
        <pt x="1929" y="135" on="1"/>
        <pt x="1923" y="115" on="1"/>
        <pt x="1908" y="43" on="0"/>
        <pt x="1835" y="43" on="1"/>
        <pt x="1770" y="43" on="0"/>
        <pt x="1635" y="38" on="0"/>
        <pt x="1493" y="20" on="0"/>
        <pt x="1346" y="-15" on="0"/>
        <pt x="1270" y="-45" on="1"/>
        <pt x="1238" y="-57" on="0"/>
        <pt x="1217" y="-57" on="1"/>
        <pt x="1195" y="-57" on="0"/>
        <pt x="1166" y="-43" on="0"/>
        <pt x="1148" y="-21" on="0"/>
        <pt x="1139" y="9" on="0"/>
        <pt x="1137" y="25" on="1"/>
        <pt x="1112" y="168" on="1"/>
        <pt x="1106" y="205" on="0"/>
        <pt x="1085" y="205" on="1"/>
        <pt x="1069" y="205" on="0"/>
        <pt x="1051" y="180" on="1"/>
        <pt x="1006" y="115" on="0"/>
        <pt x="889" y="5" on="0"/>
        <pt x="755" y="-75" on="0"/>
        <pt x="608" y="-121" on="0"/>
        <pt x="535" y="-121" on="1"/>
        <pt x="443" y="-121" on="0"/>
        <pt x="274" y="-54" on="0"/>
        <pt x="146" y="72" on="0"/>
        <pt x="70" y="256" on="0"/>
        <pt x="70" y="373" on="1"/>
        <pt x="70" y="471" on="0"/>
        <pt x="124" y="654" on="0"/>
        <pt x="221" y="814" on="0"/>
        <pt x="355" y="946" on="0"/>
        <pt x="516" y="1040" on="0"/>
        <pt x="699" y="1092" on="0"/>
      </contour>
      <contour>
        <pt x="987" y="522" on="1"/>
        <pt x="993" y="564" on="0"/>
        <pt x="999" y="642" on="0"/>
        <pt x="999" y="682" on="1"/>
        <pt x="999" y="746" on="0"/>
        <pt x="993" y="811" on="1"/>
        <pt x="991" y="839" on="0"/>
        <pt x="942" y="876" on="0"/>
        <pt x="874" y="898" on="0"/>
        <pt x="798" y="907" on="0"/>
        <pt x="770" y="907" on="1"/>
        <pt x="663" y="907" on="0"/>
        <pt x="481" y="823" on="0"/>
        <pt x="347" y="683" on="0"/>
        <pt x="272" y="503" on="0"/>
        <pt x="272" y="406" on="1"/>
        <pt x="272" y="319" on="0"/>
        <pt x="322" y="191" on="0"/>
        <pt x="403" y="107" on="0"/>
        <pt x="507" y="66" on="0"/>
        <pt x="561" y="66" on="1"/>
        <pt x="640" y="66" on="0"/>
        <pt x="781" y="139" on="0"/>
        <pt x="894" y="264" on="0"/>
        <pt x="972" y="430" on="0"/>
      </contour>
    </TTGlyph>
    <TTGlyph name="Oacute" xMin="57" yMin="-125" xMax="1190" yMax="1427">
      <component glyphName="O" x="0" y="0" flags="0x1204"/>
      <component glyphName="acute" x="238" y="88" flags="0x1004"/>
    </TTGlyph>
    <TTGlyph name="Ocircumflex" xMin="57" yMin="-125" xMax="1190" yMax="1411">
      <component glyphName="O" x="0" y="0" flags="0x1204"/>
      <component glyphName="circumflex" x="238" y="88" flags="0x1004"/>
    </TTGlyph>
    <TTGlyph name="Odieresis" xMin="57" yMin="-125" xMax="1190" yMax="1276">
      <component glyphName="O" x="0" y="0" flags="0x1204"/>
      <component glyphName="dieresis" x="207" y="88" flags="0x1004"/>
    </TTGlyph>
    <TTGlyph name="Ograve" xMin="57" yMin="-125" xMax="1190" yMax="1427">
      <component glyphName="O" x="0" y="0" flags="0x1204"/>
      <component glyphName="grave" x="131" y="88" flags="0x1004"/>
    </TTGlyph>
    <TTGlyph name="Oslash" xMin="57" yMin="-336" xMax="1190" yMax="1165">
      <contour>
        <pt x="543" y="1092" on="1"/>
        <pt x="546" y="1152" on="0"/>
        <pt x="606" y="1161" on="1"/>
        <pt x="657" y="1165" on="1"/>
        <pt x="683" y="1165" on="0"/>
        <pt x="711" y="1137" on="0"/>
        <pt x="711" y="1112" on="1"/>
        <pt x="639" y="-262" on="1"/>
        <pt x="636" y="-323" on="0"/>
        <pt x="575" y="-332" on="1"/>
        <pt x="522" y="-336" on="1"/>
        <pt x="496" y="-336" on="0"/>
        <pt x="471" y="-301" on="0"/>
        <pt x="471" y="-270" on="1"/>
        <pt x="543" y="1092" on="1"/>
      </contour>
      <contour>
        <pt x="555" y="-125" on="1"/>
        <pt x="446" y="-125" on="0"/>
        <pt x="263" y="-51" on="0"/>
        <pt x="131" y="82" on="0"/>
        <pt x="57" y="266" on="0"/>
        <pt x="57" y="377" on="1"/>
        <pt x="57" y="437" on="0"/>
        <pt x="78" y="548" on="0"/>
        <pt x="96" y="596" on="1"/>
        <pt x="104" y="615" on="0"/>
        <pt x="104" y="623" on="1"/>
        <pt x="104" y="633" on="0"/>
        <pt x="94" y="651" on="0"/>
        <pt x="82" y="671" on="0"/>
        <pt x="72" y="693" on="0"/>
        <pt x="72" y="707" on="1"/>
        <pt x="72" y="749" on="0"/>
        <pt x="168" y="830" on="0"/>
        <pt x="326" y="893" on="0"/>
        <pt x="526" y="932" on="0"/>
        <pt x="631" y="932" on="1"/>
        <pt x="760" y="932" on="0"/>
        <pt x="967" y="866" on="0"/>
        <pt x="1112" y="743" on="0"/>
        <pt x="1190" y="567" on="0"/>
        <pt x="1190" y="457" on="1"/>
        <pt x="1190" y="334" on="0"/>
        <pt x="1092" y="121" on="0"/>
        <pt x="921" y="-35" on="0"/>
        <pt x="689" y="-125" on="0"/>
      </contour>
      <contour>
        <pt x="989" y="418" on="1"/>
        <pt x="989" y="496" on="0"/>
        <pt x="935" y="620" on="0"/>
        <pt x="833" y="705" on="0"/>
        <pt x="684" y="750" on="0"/>
        <pt x="590" y="750" on="1"/>
        <pt x="425" y="750" on="0"/>
        <pt x="258" y="583" on="0"/>
        <pt x="258" y="418" on="1"/>
        <pt x="258" y="338" on="0"/>
        <pt x="308" y="205" on="0"/>
        <pt x="398" y="110" on="0"/>
        <pt x="523" y="57" on="0"/>
        <pt x="598" y="57" on="1"/>
        <pt x="684" y="57" on="0"/>
        <pt x="828" y="110" on="0"/>
        <pt x="931" y="206" on="0"/>
        <pt x="989" y="339" on="0"/>
      </contour>
    </TTGlyph>
    <TTGlyph name="Otilde" xMin="57" yMin="-125" xMax="1190" yMax="1343">
      <component glyphName="O" x="0" y="0" flags="0x1204"/>
      <component glyphName="tilde" x="197" y="88" flags="0x1004"/>
    </TTGlyph>
    <TTGlyph name="P" xMin="-53" yMin="-180" xMax="1149" yMax="1042">
      <contour>
        <pt x="334" y="-115" on="1"/>
        <pt x="334" y="-82" on="0"/>
        <pt x="329" y="24" on="0"/>
        <pt x="321" y="152" on="0"/>
        <pt x="311" y="296" on="0"/>
        <pt x="299" y="438" on="0"/>
        <pt x="288" y="571" on="0"/>
        <pt x="283" y="625" on="1"/>
        <pt x="275" y="702" on="0"/>
        <pt x="247" y="774" on="0"/>
        <pt x="215" y="774" on="1"/>
        <pt x="185" y="774" on="0"/>
        <pt x="166" y="740" on="0"/>
        <pt x="163" y="690" on="0"/>
        <pt x="164" y="631" on="0"/>
        <pt x="145" y="581" on="0"/>
        <pt x="93" y="547" on="0"/>
        <pt x="39" y="547" on="1"/>
        <pt x="1" y="547" on="0"/>
        <pt x="-53" y="610" on="0"/>
        <pt x="-53" y="670" on="1"/>
        <pt x="-53" y="754" on="0"/>
        <pt x="46" y="891" on="0"/>
        <pt x="226" y="988" on="0"/>
        <pt x="480" y="1042" on="0"/>
        <pt x="635" y="1042" on="1"/>
        <pt x="746" y="1042" on="0"/>
        <pt x="934" y="993" on="0"/>
        <pt x="1071" y="906" on="0"/>
        <pt x="1149" y="787" on="0"/>
        <pt x="1149" y="717" on="1"/>
        <pt x="1149" y="638" on="0"/>
        <pt x="1057" y="494" on="0"/>
        <pt x="896" y="374" on="0"/>
        <pt x="678" y="285" on="0"/>
        <pt x="553" y="260" on="1"/>
        <pt x="518" y="254" on="0"/>
        <pt x="518" y="217" on="1"/>
        <pt x="518" y="192" on="0"/>
        <pt x="525" y="117" on="0"/>
        <pt x="532" y="35" on="0"/>
        <pt x="539" y="-45" on="0"/>
        <pt x="539" y="-76" on="1"/>
        <pt x="539" y="-132" on="0"/>
        <pt x="487" y="-180" on="0"/>
        <pt x="436" y="-180" on="1"/>
        <pt x="388" y="-180" on="0"/>
        <pt x="334" y="-147" on="0"/>
      </contour>
      <contour>
        <pt x="942" y="688" on="1"/>
        <pt x="942" y="722" on="0"/>
        <pt x="884" y="784" on="0"/>
        <pt x="786" y="832" on="0"/>
        <pt x="657" y="860" on="0"/>
        <pt x="586" y="860" on="1"/>
        <pt x="551" y="860" on="0"/>
        <pt x="504" y="855" on="0"/>
        <pt x="476" y="843" on="0"/>
        <pt x="465" y="824" on="0"/>
        <pt x="465" y="809" on="1"/>
        <pt x="465" y="799" on="0"/>
        <pt x="471" y="726" on="0"/>
        <pt x="481" y="630" on="0"/>
        <pt x="492" y="525" on="0"/>
        <pt x="498" y="483" on="1"/>
        <pt x="501" y="452" on="0"/>
        <pt x="512" y="432" on="0"/>
        <pt x="524" y="432" on="1"/>
        <pt x="558" y="432" on="0"/>
        <pt x="646" y="455" on="0"/>
        <pt x="739" y="494" on="0"/>
        <pt x="828" y="545" on="0"/>
        <pt x="899" y="602" on="0"/>
        <pt x="942" y="661" on="0"/>
      </contour>
    </TTGlyph>
    <TTGlyph name="Q" xMin="51" yMin="-393" xMax="1296" yMax="1044">
      <contour>
        <pt x="672" y="393" on="1"/>
        <pt x="666" y="412" on="0"/>
        <pt x="666" y="428" on="1"/>
        <pt x="666" y="475" on="0"/>
        <pt x="717" y="500" on="1"/>
        <pt x="738" y="510" on="0"/>
        <pt x="766" y="523" on="0"/>
        <pt x="785" y="530" on="0"/>
        <pt x="797" y="532" on="0"/>
        <pt x="803" y="532" on="1"/>
        <pt x="826" y="532" on="0"/>
        <pt x="860" y="487" on="0"/>
        <pt x="887" y="418" on="0"/>
        <pt x="908" y="339" on="0"/>
        <pt x="931" y="270" on="0"/>
        <pt x="958" y="225" on="0"/>
        <pt x="977" y="225" on="1"/>
        <pt x="998" y="225" on="0"/>
        <pt x="1039" y="264" on="0"/>
        <pt x="1073" y="324" on="0"/>
        <pt x="1094" y="394" on="0"/>
        <pt x="1094" y="426" on="1"/>
        <pt x="1094" y="528" on="0"/>
        <pt x="1016" y="689" on="0"/>
        <pt x="892" y="801" on="0"/>
        <pt x="735" y="860" on="0"/>
        <pt x="657" y="860" on="1"/>
        <pt x="564" y="860" on="0"/>
        <pt x="444" y="816" on="0"/>
        <pt x="375" y="733" on="0"/>
        <pt x="348" y="613" on="0"/>
        <pt x="348" y="537" on="1"/>
        <pt x="348" y="479" on="0"/>
        <pt x="392" y="368" on="0"/>
        <pt x="476" y="274" on="0"/>
        <pt x="598" y="202" on="0"/>
        <pt x="676" y="184" on="1"/>
        <pt x="681" y="182" on="0"/>
        <pt x="687" y="182" on="0"/>
        <pt x="692" y="182" on="1"/>
        <pt x="708" y="182" on="0"/>
        <pt x="727" y="202" on="0"/>
        <pt x="727" y="217" on="1"/>
        <pt x="727" y="222" on="0"/>
        <pt x="725" y="231" on="0"/>
        <pt x="723" y="238" on="1"/>
      </contour>
      <contour>
        <pt x="141" y="530" on="1"/>
        <pt x="141" y="541" on="0"/>
        <pt x="143" y="573" on="0"/>
        <pt x="143" y="590" on="1"/>
        <pt x="143" y="606" on="0"/>
        <pt x="139" y="638" on="0"/>
        <pt x="128" y="665" on="0"/>
        <pt x="108" y="684" on="0"/>
        <pt x="92" y="686" on="1"/>
        <pt x="74" y="688" on="0"/>
        <pt x="51" y="713" on="0"/>
        <pt x="51" y="731" on="1"/>
        <pt x="51" y="758" on="0"/>
        <pt x="70" y="784" on="1"/>
        <pt x="116" y="854" on="0"/>
        <pt x="247" y="953" on="0"/>
        <pt x="403" y="1015" on="0"/>
        <pt x="575" y="1044" on="0"/>
        <pt x="662" y="1044" on="1"/>
        <pt x="732" y="1044" on="0"/>
        <pt x="880" y="1011" on="0"/>
        <pt x="1021" y="945" on="0"/>
        <pt x="1147" y="849" on="0"/>
        <pt x="1241" y="722" on="0"/>
        <pt x="1296" y="567" on="0"/>
        <pt x="1296" y="475" on="1"/>
        <pt x="1296" y="398" on="0"/>
        <pt x="1260" y="270" on="0"/>
        <pt x="1195" y="166" on="0"/>
        <pt x="1103" y="85" on="0"/>
        <pt x="1047" y="57" on="1"/>
        <pt x="1014" y="43" on="0"/>
        <pt x="1014" y="12" on="1"/>
        <pt x="1014" y="9" on="0"/>
        <pt x="1014" y="2" on="0"/>
        <pt x="1015" y="-1" on="1"/>
        <pt x="1015" y="-5" on="0"/>
        <pt x="1016" y="-8" on="1"/>
        <pt x="1021" y="-35" on="0"/>
        <pt x="1038" y="-114" on="0"/>
        <pt x="1055" y="-199" on="0"/>
        <pt x="1067" y="-278" on="0"/>
        <pt x="1067" y="-305" on="1"/>
        <pt x="1067" y="-367" on="0"/>
        <pt x="997" y="-383" on="1"/>
        <pt x="976" y="-388" on="0"/>
        <pt x="938" y="-393" on="0"/>
        <pt x="932" y="-393" on="1"/>
        <pt x="871" y="-393" on="0"/>
        <pt x="862" y="-322" on="1"/>
        <pt x="853" y="-253" on="0"/>
        <pt x="826" y="-121" on="0"/>
        <pt x="811" y="-55" on="1"/>
        <pt x="805" y="-32" on="0"/>
        <pt x="784" y="-12" on="0"/>
        <pt x="770" y="-12" on="1"/>
        <pt x="741" y="-12" on="1"/>
        <pt x="608" y="-12" on="0"/>
        <pt x="388" y="75" on="0"/>
        <pt x="229" y="224" on="0"/>
        <pt x="141" y="420" on="0"/>
      </contour>
    </TTGlyph>
    <TTGlyph name="R" xMin="33" yMin="-129" xMax="1137" yMax="1014">
      <contour>
        <pt x="367" y="758" on="1"/>
        <pt x="347" y="750" on="0"/>
        <pt x="328" y="750" on="1"/>
        <pt x="280" y="750" on="0"/>
        <pt x="262" y="807" on="1"/>
        <pt x="257" y="822" on="0"/>
        <pt x="254" y="842" on="0"/>
        <pt x="254" y="850" on="1"/>
        <pt x="254" y="897" on="0"/>
        <pt x="307" y="920" on="1"/>
        <pt x="412" y="962" on="0"/>
        <pt x="630" y="1014" on="0"/>
        <pt x="741" y="1014" on="1"/>
        <pt x="793" y="1014" on="0"/>
        <pt x="894" y="992" on="0"/>
        <pt x="974" y="938" on="0"/>
        <pt x="1024" y="848" on="0"/>
        <pt x="1024" y="780" on="1"/>
        <pt x="1024" y="732" on="0"/>
        <pt x="985" y="644" on="0"/>
        <pt x="921" y="564" on="0"/>
        <pt x="839" y="492" on="0"/>
        <pt x="753" y="432" on="0"/>
        <pt x="669" y="383" on="0"/>
        <pt x="635" y="365" on="1"/>
        <pt x="606" y="348" on="0"/>
        <pt x="606" y="330" on="1"/>
        <pt x="606" y="309" on="0"/>
        <pt x="637" y="297" on="1"/>
        <pt x="744" y="259" on="0"/>
        <pt x="968" y="193" on="0"/>
        <pt x="1083" y="152" on="1"/>
        <pt x="1137" y="132" on="0"/>
        <pt x="1137" y="90" on="1"/>
        <pt x="1137" y="70" on="0"/>
        <pt x="1114" y="29" on="0"/>
        <pt x="1100" y="12" on="1"/>
        <pt x="1071" y="-31" on="0"/>
        <pt x="1028" y="-31" on="1"/>
        <pt x="1013" y="-31" on="0"/>
        <pt x="991" y="-25" on="1"/>
        <pt x="926" y="0" on="0"/>
        <pt x="777" y="54" on="0"/>
        <pt x="622" y="107" on="0"/>
        <pt x="472" y="156" on="0"/>
        <pt x="408" y="176" on="1"/>
        <pt x="385" y="182" on="0"/>
        <pt x="377" y="182" on="1"/>
        <pt x="369" y="182" on="0"/>
        <pt x="360" y="175" on="0"/>
        <pt x="360" y="164" on="1"/>
        <pt x="360" y="161" on="0"/>
        <pt x="362" y="152" on="0"/>
        <pt x="362" y="147" on="1"/>
        <pt x="365" y="132" on="0"/>
        <pt x="374" y="83" on="0"/>
        <pt x="383" y="31" on="0"/>
        <pt x="389" y="-16" on="0"/>
        <pt x="389" y="-31" on="1"/>
        <pt x="389" y="-87" on="0"/>
        <pt x="328" y="-109" on="1"/>
        <pt x="283" y="-123" on="1"/>
        <pt x="273" y="-126" on="0"/>
        <pt x="257" y="-129" on="0"/>
        <pt x="248" y="-129" on="1"/>
        <pt x="193" y="-129" on="0"/>
        <pt x="184" y="-61" on="1"/>
        <pt x="160" y="121" on="0"/>
        <pt x="85" y="475" on="0"/>
        <pt x="37" y="651" on="1"/>
        <pt x="34" y="661" on="0"/>
        <pt x="33" y="676" on="0"/>
        <pt x="33" y="682" on="1"/>
        <pt x="33" y="735" on="0"/>
        <pt x="90" y="754" on="1"/>
        <pt x="111" y="761" on="0"/>
        <pt x="138" y="769" on="0"/>
        <pt x="155" y="774" on="0"/>
        <pt x="164" y="776" on="0"/>
        <pt x="168" y="776" on="1"/>
        <pt x="222" y="776" on="0"/>
        <pt x="238" y="715" on="1"/>
        <pt x="259" y="637" on="0"/>
        <pt x="296" y="491" on="0"/>
        <pt x="311" y="420" on="1"/>
        <pt x="319" y="385" on="0"/>
        <pt x="340" y="385" on="1"/>
        <pt x="346" y="385" on="0"/>
        <pt x="362" y="390" on="0"/>
        <pt x="373" y="395" on="1"/>
        <pt x="405" y="412" on="0"/>
        <pt x="496" y="462" on="0"/>
        <pt x="595" y="523" on="0"/>
        <pt x="692" y="591" on="0"/>
        <pt x="769" y="659" on="0"/>
        <pt x="817" y="725" on="0"/>
        <pt x="817" y="754" on="1"/>
        <pt x="817" y="772" on="0"/>
        <pt x="806" y="802" on="0"/>
        <pt x="776" y="824" on="0"/>
        <pt x="725" y="836" on="0"/>
        <pt x="686" y="836" on="1"/>
        <pt x="648" y="836" on="0"/>
        <pt x="565" y="823" on="0"/>
        <pt x="483" y="801" on="0"/>
        <pt x="403" y="773" on="0"/>
      </contour>
    </TTGlyph>
    <TTGlyph name="Racute" xMin="33" yMin="-129" xMax="1137" yMax="1517">
      <component glyphName="R" x="0" y="0" flags="0x1204"/>
      <component glyphName="acute" x="152" y="178" flags="0x1004"/>
    </TTGlyph>
    <TTGlyph name="Rcaron" xMin="33" yMin="-129" xMax="1137" yMax="1452">
      <component glyphName="R" x="0" y="0" flags="0x1204"/>
      <component glyphName="caron" x="109" y="178" flags="0x1004"/>
    </TTGlyph>
    <TTGlyph name="Rcommaaccent" xMin="33" yMin="-711" xMax="1137" yMax="1014">
      <component glyphName="R" x="0" y="0" flags="0x1204"/>
      <component glyphName="commaaccent" x="268" y="0" flags="0x1004"/>
    </TTGlyph>
    <TTGlyph name="S" xMin="59" yMin="-57" xMax="950" yMax="1110">
      <contour>
        <pt x="283" y="410" on="1"/>
        <pt x="283" y="350" on="0"/>
        <pt x="342" y="247" on="0"/>
        <pt x="438" y="170" on="0"/>
        <pt x="562" y="127" on="0"/>
        <pt x="627" y="127" on="1"/>
        <pt x="647" y="127" on="0"/>
        <pt x="689" y="134" on="0"/>
        <pt x="723" y="152" on="0"/>
        <pt x="745" y="181" on="0"/>
        <pt x="745" y="203" on="1"/>
        <pt x="745" y="245" on="0"/>
        <pt x="686" y="327" on="0"/>
        <pt x="590" y="408" on="0"/>
        <pt x="466" y="489" on="0"/>
        <pt x="338" y="569" on="0"/>
        <pt x="214" y="650" on="0"/>
        <pt x="118" y="731" on="0"/>
        <pt x="59" y="814" on="0"/>
        <pt x="59" y="856" on="1"/>
        <pt x="59" y="896" on="0"/>
        <pt x="100" y="965" on="0"/>
        <pt x="168" y="1021" on="0"/>
        <pt x="258" y="1065" on="0"/>
        <pt x="356" y="1095" on="0"/>
        <pt x="455" y="1110" on="0"/>
        <pt x="500" y="1110" on="1"/>
        <pt x="533" y="1110" on="0"/>
        <pt x="612" y="1107" on="0"/>
        <pt x="681" y="1092" on="0"/>
        <pt x="727" y="1062" on="0"/>
        <pt x="727" y="1034" on="1"/>
        <pt x="727" y="1025" on="0"/>
        <pt x="721" y="998" on="0"/>
        <pt x="707" y="967" on="1"/>
        <pt x="693" y="938" on="0"/>
        <pt x="656" y="909" on="0"/>
        <pt x="627" y="909" on="1"/>
        <pt x="586" y="909" on="0"/>
        <pt x="495" y="928" on="0"/>
        <pt x="449" y="928" on="1"/>
        <pt x="424" y="928" on="0"/>
        <pt x="373" y="923" on="0"/>
        <pt x="331" y="910" on="0"/>
        <pt x="305" y="885" on="0"/>
        <pt x="305" y="866" on="1"/>
        <pt x="305" y="847" on="0"/>
        <pt x="360" y="799" on="0"/>
        <pt x="451" y="741" on="0"/>
        <pt x="567" y="672" on="0"/>
        <pt x="688" y="593" on="0"/>
        <pt x="804" y="504" on="0"/>
        <pt x="895" y="405" on="0"/>
        <pt x="950" y="295" on="0"/>
        <pt x="950" y="236" on="1"/>
        <pt x="950" y="164" on="0"/>
        <pt x="884" y="54" on="0"/>
        <pt x="780" y="-20" on="0"/>
        <pt x="654" y="-57" on="0"/>
        <pt x="594" y="-57" on="1"/>
        <pt x="533" y="-57" on="0"/>
        <pt x="408" y="-28" on="0"/>
        <pt x="292" y="25" on="0"/>
        <pt x="191" y="100" on="0"/>
        <pt x="117" y="193" on="0"/>
        <pt x="74" y="301" on="0"/>
        <pt x="74" y="360" on="1"/>
        <pt x="74" y="385" on="0"/>
        <pt x="81" y="436" on="0"/>
        <pt x="99" y="475" on="0"/>
        <pt x="131" y="500" on="0"/>
        <pt x="156" y="500" on="1"/>
        <pt x="164" y="500" on="0"/>
        <pt x="184" y="497" on="0"/>
        <pt x="209" y="489" on="1"/>
        <pt x="238" y="480" on="0"/>
        <pt x="283" y="441" on="0"/>
      </contour>
    </TTGlyph>
    <TTGlyph name="Scaron" xMin="59" yMin="-57" xMax="950" yMax="1542">
      <component glyphName="S" x="0" y="0" flags="0x1204"/>
      <component glyphName="caron" x="31" y="268" flags="0x1004"/>
    </TTGlyph>
    <TTGlyph name="T" xMin="-96" yMin="-98" xMax="858" yMax="1112">
      <contour>
        <pt x="258" y="831" on="1"/>
        <pt x="250" y="831" on="0"/>
        <pt x="205" y="824" on="0"/>
        <pt x="145" y="814" on="0"/>
        <pt x="79" y="801" on="0"/>
        <pt x="21" y="791" on="0"/>
        <pt x="-22" y="784" on="0"/>
        <pt x="-29" y="784" on="1"/>
        <pt x="-96" y="784" on="0"/>
        <pt x="-96" y="854" on="1"/>
        <pt x="-96" y="873" on="0"/>
        <pt x="-89" y="910" on="0"/>
        <pt x="-71" y="941" on="0"/>
        <pt x="-41" y="963" on="0"/>
        <pt x="-18" y="967" on="1"/>
        <pt x="99" y="985" on="0"/>
        <pt x="331" y="1025" on="0"/>
        <pt x="449" y="1047" on="1"/>
        <pt x="475" y="1052" on="0"/>
        <pt x="517" y="1061" on="0"/>
        <pt x="543" y="1069" on="1"/>
        <pt x="571" y="1077" on="0"/>
        <pt x="637" y="1092" on="0"/>
        <pt x="704" y="1104" on="0"/>
        <pt x="767" y="1112" on="0"/>
        <pt x="793" y="1112" on="1"/>
        <pt x="825" y="1112" on="0"/>
        <pt x="858" y="1071" on="0"/>
        <pt x="858" y="1034" on="1"/>
        <pt x="858" y="1015" on="0"/>
        <pt x="852" y="980" on="0"/>
        <pt x="836" y="952" on="0"/>
        <pt x="808" y="934" on="0"/>
        <pt x="786" y="932" on="1"/>
        <pt x="729" y="924" on="0"/>
        <pt x="599" y="901" on="0"/>
        <pt x="551" y="887" on="1"/>
        <pt x="531" y="881" on="0"/>
        <pt x="511" y="854" on="0"/>
        <pt x="508" y="834" on="1"/>
        <pt x="505" y="815" on="0"/>
        <pt x="504" y="776" on="0"/>
        <pt x="504" y="758" on="1"/>
        <pt x="504" y="716" on="0"/>
        <pt x="511" y="632" on="0"/>
        <pt x="514" y="590" on="1"/>
        <pt x="523" y="446" on="0"/>
        <pt x="560" y="164" on="0"/>
        <pt x="582" y="20" on="1"/>
        <pt x="584" y="15" on="0"/>
        <pt x="584" y="5" on="0"/>
        <pt x="584" y="0" on="1"/>
        <pt x="584" y="-55" on="0"/>
        <pt x="522" y="-78" on="1"/>
        <pt x="477" y="-92" on="1"/>
        <pt x="459" y="-98" on="0"/>
        <pt x="442" y="-98" on="1"/>
        <pt x="416" y="-98" on="0"/>
        <pt x="384" y="-65" on="0"/>
        <pt x="379" y="-33" on="1"/>
        <pt x="351" y="139" on="0"/>
        <pt x="309" y="480" on="0"/>
        <pt x="303" y="653" on="1"/>
        <pt x="301" y="681" on="0"/>
        <pt x="299" y="747" on="0"/>
        <pt x="299" y="782" on="1"/>
        <pt x="299" y="831" on="0"/>
      </contour>
    </TTGlyph>
    <TTGlyph name="Thorn" xMin="84" yMin="-197" xMax="922" yMax="997">
      <contour>
        <pt x="188" y="-123" on="1"/>
        <pt x="188" y="-42" on="0"/>
        <pt x="173" y="165" on="0"/>
        <pt x="149" y="381" on="0"/>
        <pt x="123" y="591" on="0"/>
        <pt x="99" y="763" on="0"/>
        <pt x="84" y="880" on="0"/>
        <pt x="84" y="895" on="1"/>
        <pt x="84" y="955" on="0"/>
        <pt x="147" y="977" on="1"/>
        <pt x="168" y="984" on="0"/>
        <pt x="195" y="992" on="0"/>
        <pt x="212" y="996" on="0"/>
        <pt x="221" y="997" on="0"/>
        <pt x="225" y="997" on="1"/>
        <pt x="250" y="997" on="0"/>
        <pt x="286" y="965" on="0"/>
        <pt x="289" y="934" on="1"/>
        <pt x="307" y="776" on="1"/>
        <pt x="310" y="755" on="0"/>
        <pt x="336" y="733" on="0"/>
        <pt x="356" y="733" on="1"/>
        <pt x="390" y="733" on="0"/>
        <pt x="463" y="743" on="0"/>
        <pt x="498" y="743" on="1"/>
        <pt x="592" y="743" on="0"/>
        <pt x="748" y="694" on="0"/>
        <pt x="860" y="613" on="0"/>
        <pt x="922" y="508" on="0"/>
        <pt x="922" y="451" on="1"/>
        <pt x="922" y="359" on="0"/>
        <pt x="831" y="226" on="0"/>
        <pt x="688" y="135" on="0"/>
        <pt x="514" y="82" on="0"/>
        <pt x="430" y="70" on="1"/>
        <pt x="404" y="65" on="0"/>
        <pt x="389" y="31" on="0"/>
        <pt x="389" y="6" on="1"/>
        <pt x="391" y="-96" on="1"/>
        <pt x="391" y="-144" on="0"/>
        <pt x="319" y="-197" on="0"/>
        <pt x="256" y="-197" on="1"/>
        <pt x="224" y="-197" on="0"/>
        <pt x="188" y="-158" on="0"/>
      </contour>
      <contour>
        <pt x="459" y="559" on="1"/>
        <pt x="427" y="559" on="0"/>
        <pt x="383" y="556" on="0"/>
        <pt x="355" y="544" on="0"/>
        <pt x="342" y="521" on="0"/>
        <pt x="342" y="500" on="1"/>
        <pt x="362" y="293" on="1"/>
        <pt x="364" y="270" on="0"/>
        <pt x="387" y="246" on="0"/>
        <pt x="412" y="246" on="1"/>
        <pt x="432" y="246" on="0"/>
        <pt x="494" y="257" on="0"/>
        <pt x="562" y="277" on="0"/>
        <pt x="630" y="308" on="0"/>
        <pt x="685" y="347" on="0"/>
        <pt x="719" y="396" on="0"/>
        <pt x="719" y="424" on="1"/>
        <pt x="719" y="463" on="0"/>
        <pt x="664" y="515" on="0"/>
        <pt x="584" y="546" on="0"/>
        <pt x="494" y="559" on="0"/>
      </contour>
    </TTGlyph>
    <TTGlyph name="U" xMin="59" yMin="-106" xMax="1116" yMax="1026">
      <contour>
        <pt x="94" y="823" on="1"/>
        <pt x="100" y="858" on="0"/>
        <pt x="156" y="893" on="0"/>
        <pt x="221" y="893" on="1"/>
        <pt x="256" y="893" on="0"/>
        <pt x="295" y="857" on="0"/>
        <pt x="295" y="825" on="1"/>
        <pt x="295" y="820" on="0"/>
        <pt x="293" y="812" on="0"/>
        <pt x="293" y="807" on="1"/>
        <pt x="282" y="742" on="0"/>
        <pt x="268" y="602" on="0"/>
        <pt x="268" y="530" on="1"/>
        <pt x="268" y="437" on="0"/>
        <pt x="301" y="272" on="0"/>
        <pt x="386" y="149" on="0"/>
        <pt x="533" y="78" on="0"/>
        <pt x="647" y="78" on="1"/>
        <pt x="711" y="78" on="0"/>
        <pt x="809" y="124" on="0"/>
        <pt x="874" y="205" on="0"/>
        <pt x="907" y="315" on="0"/>
        <pt x="907" y="379" on="1"/>
        <pt x="907" y="443" on="0"/>
        <pt x="880" y="567" on="0"/>
        <pt x="835" y="688" on="0"/>
        <pt x="776" y="806" on="0"/>
        <pt x="743" y="866" on="1"/>
        <pt x="729" y="893" on="0"/>
        <pt x="729" y="915" on="1"/>
        <pt x="729" y="954" on="0"/>
        <pt x="770" y="981" on="1"/>
        <pt x="811" y="1008" on="1"/>
        <pt x="838" y="1026" on="0"/>
        <pt x="862" y="1026" on="1"/>
        <pt x="899" y="1026" on="0"/>
        <pt x="924" y="981" on="1"/>
        <pt x="962" y="914" on="0"/>
        <pt x="1032" y="777" on="0"/>
        <pt x="1085" y="633" on="0"/>
        <pt x="1116" y="480" on="0"/>
        <pt x="1116" y="399" on="1"/>
        <pt x="1116" y="286" on="0"/>
        <pt x="1041" y="100" on="0"/>
        <pt x="903" y="-33" on="0"/>
        <pt x="710" y="-106" on="0"/>
        <pt x="592" y="-106" on="1"/>
        <pt x="464" y="-106" on="0"/>
        <pt x="265" y="-17" on="0"/>
        <pt x="129" y="140" on="0"/>
        <pt x="59" y="355" on="0"/>
        <pt x="59" y="481" on="1"/>
        <pt x="59" y="569" on="0"/>
        <pt x="80" y="746" on="0"/>
      </contour>
    </TTGlyph>
    <TTGlyph name="Uacute" xMin="59" yMin="-106" xMax="1116" yMax="1476">
      <component glyphName="U" x="0" y="0" flags="0x1204"/>
      <component glyphName="acute" x="88" y="137" flags="0x1004"/>
    </TTGlyph>
    <TTGlyph name="Ucircumflex" xMin="59" yMin="-106" xMax="1116" yMax="1460">
      <component glyphName="U" x="0" y="0" flags="0x1204"/>
      <component glyphName="circumflex" x="88" y="137" flags="0x1004"/>
    </TTGlyph>
    <TTGlyph name="Udieresis" xMin="59" yMin="-106" xMax="1116" yMax="1325">
      <component glyphName="U" x="0" y="0" flags="0x1204"/>
      <component glyphName="dieresis" x="57" y="137" flags="0x1004"/>
    </TTGlyph>
    <TTGlyph name="Ugrave" xMin="59" yMin="-106" xMax="1116" yMax="1476">
      <component glyphName="U" x="0" y="0" flags="0x1204"/>
      <component glyphName="grave" x="-17" y="137" flags="0x1004"/>
    </TTGlyph>
    <TTGlyph name="V" xMin="-39" yMin="-31" xMax="1053" yMax="1032">
      <contour>
        <pt x="195" y="383" on="1"/>
        <pt x="147" y="451" on="0"/>
        <pt x="62" y="572" on="0"/>
        <pt x="-2" y="677" on="0"/>
        <pt x="-39" y="765" on="0"/>
        <pt x="-39" y="801" on="1"/>
        <pt x="-39" y="819" on="0"/>
        <pt x="-8" y="862" on="0"/>
        <pt x="34" y="899" on="0"/>
        <pt x="79" y="924" on="0"/>
        <pt x="94" y="924" on="1"/>
        <pt x="130" y="924" on="0"/>
        <pt x="156" y="879" on="1"/>
        <pt x="167" y="858" on="0"/>
        <pt x="212" y="777" on="0"/>
        <pt x="272" y="674" on="0"/>
        <pt x="345" y="557" on="0"/>
        <pt x="422" y="441" on="0"/>
        <pt x="499" y="334" on="0"/>
        <pt x="570" y="252" on="0"/>
        <pt x="631" y="203" on="0"/>
        <pt x="653" y="203" on="1"/>
        <pt x="682" y="203" on="0"/>
        <pt x="730" y="283" on="0"/>
        <pt x="771" y="413" on="0"/>
        <pt x="803" y="578" on="0"/>
        <pt x="828" y="748" on="0"/>
        <pt x="846" y="907" on="0"/>
        <pt x="852" y="967" on="1"/>
        <pt x="855" y="999" on="0"/>
        <pt x="885" y="1032" on="0"/>
        <pt x="909" y="1032" on="1"/>
        <pt x="930" y="1032" on="0"/>
        <pt x="980" y="1014" on="0"/>
        <pt x="1024" y="983" on="0"/>
        <pt x="1053" y="942" on="0"/>
        <pt x="1053" y="918" on="1"/>
        <pt x="1053" y="881" on="0"/>
        <pt x="1040" y="781" on="0"/>
        <pt x="1021" y="670" on="0"/>
        <pt x="997" y="555" on="0"/>
        <pt x="985" y="504" on="1"/>
        <pt x="977" y="468" on="0"/>
        <pt x="950" y="361" on="0"/>
        <pt x="910" y="242" on="0"/>
        <pt x="856" y="123" on="0"/>
        <pt x="786" y="28" on="0"/>
        <pt x="699" y="-31" on="0"/>
        <pt x="645" y="-31" on="1"/>
        <pt x="606" y="-31" on="0"/>
        <pt x="522" y="12" on="0"/>
        <pt x="438" y="82" on="0"/>
        <pt x="356" y="171" on="0"/>
        <pt x="282" y="263" on="0"/>
        <pt x="218" y="350" on="0"/>
      </contour>
    </TTGlyph>
    <TTGlyph name="W" xMin="33" yMin="-88" xMax="1669" yMax="975">
      <contour>
        <pt x="33" y="887" on="1"/>
        <pt x="33" y="951" on="0"/>
        <pt x="102" y="965" on="1"/>
        <pt x="145" y="973" on="1"/>
        <pt x="152" y="975" on="0"/>
        <pt x="163" y="975" on="0"/>
        <pt x="168" y="975" on="1"/>
        <pt x="229" y="975" on="0"/>
        <pt x="240" y="905" on="1"/>
        <pt x="244" y="871" on="0"/>
        <pt x="256" y="767" on="0"/>
        <pt x="275" y="643" on="0"/>
        <pt x="300" y="507" on="0"/>
        <pt x="332" y="376" on="0"/>
        <pt x="372" y="258" on="0"/>
        <pt x="422" y="168" on="0"/>
        <pt x="481" y="115" on="0"/>
        <pt x="516" y="115" on="1"/>
        <pt x="541" y="115" on="0"/>
        <pt x="592" y="145" on="0"/>
        <pt x="642" y="194" on="0"/>
        <pt x="688" y="256" on="0"/>
        <pt x="726" y="320" on="0"/>
        <pt x="757" y="379" on="0"/>
        <pt x="766" y="401" on="1"/>
        <pt x="772" y="420" on="0"/>
        <pt x="772" y="436" on="1"/>
        <pt x="772" y="444" on="0"/>
        <pt x="770" y="460" on="0"/>
        <pt x="768" y="469" on="1"/>
        <pt x="749" y="531" on="0"/>
        <pt x="729" y="655" on="0"/>
        <pt x="729" y="727" on="1"/>
        <pt x="729" y="769" on="0"/>
        <pt x="743" y="851" on="0"/>
        <pt x="760" y="885" on="1"/>
        <pt x="769" y="903" on="0"/>
        <pt x="805" y="929" on="0"/>
        <pt x="848" y="945" on="0"/>
        <pt x="895" y="952" on="0"/>
        <pt x="915" y="952" on="1"/>
        <pt x="937" y="952" on="0"/>
        <pt x="973" y="935" on="0"/>
        <pt x="987" y="915" on="1"/>
        <pt x="1015" y="877" on="0"/>
        <pt x="1038" y="779" on="0"/>
        <pt x="1038" y="729" on="1"/>
        <pt x="1038" y="675" on="0"/>
        <pt x="1018" y="562" on="0"/>
        <pt x="1004" y="506" on="1"/>
        <pt x="997" y="492" on="0"/>
        <pt x="997" y="475" on="1"/>
        <pt x="997" y="467" on="0"/>
        <pt x="1002" y="449" on="0"/>
        <pt x="1006" y="438" on="1"/>
        <pt x="1024" y="391" on="0"/>
        <pt x="1073" y="294" on="0"/>
        <pt x="1137" y="216" on="0"/>
        <pt x="1217" y="166" on="0"/>
        <pt x="1268" y="166" on="1"/>
        <pt x="1313" y="166" on="0"/>
        <pt x="1385" y="242" on="0"/>
        <pt x="1434" y="358" on="0"/>
        <pt x="1460" y="495" on="0"/>
        <pt x="1460" y="557" on="1"/>
        <pt x="1460" y="623" on="0"/>
        <pt x="1450" y="751" on="0"/>
        <pt x="1442" y="805" on="1"/>
        <pt x="1440" y="810" on="0"/>
        <pt x="1440" y="820" on="0"/>
        <pt x="1440" y="825" on="1"/>
        <pt x="1440" y="882" on="0"/>
        <pt x="1501" y="903" on="1"/>
        <pt x="1546" y="918" on="1"/>
        <pt x="1565" y="924" on="0"/>
        <pt x="1581" y="924" on="1"/>
        <pt x="1634" y="924" on="0"/>
        <pt x="1645" y="858" on="1"/>
        <pt x="1656" y="796" on="0"/>
        <pt x="1669" y="672" on="0"/>
        <pt x="1669" y="610" on="1"/>
        <pt x="1669" y="478" on="0"/>
        <pt x="1607" y="246" on="0"/>
        <pt x="1496" y="73" on="0"/>
        <pt x="1344" y="-27" on="0"/>
        <pt x="1253" y="-27" on="1"/>
        <pt x="1164" y="-27" on="0"/>
        <pt x="984" y="80" on="0"/>
        <pt x="911" y="197" on="1"/>
        <pt x="897" y="223" on="0"/>
        <pt x="879" y="223" on="1"/>
        <pt x="862" y="223" on="0"/>
        <pt x="848" y="197" on="1"/>
        <pt x="813" y="135" on="0"/>
        <pt x="729" y="30" on="0"/>
        <pt x="635" y="-46" on="0"/>
        <pt x="533" y="-88" on="0"/>
        <pt x="481" y="-88" on="1"/>
        <pt x="397" y="-88" on="0"/>
        <pt x="270" y="3" on="0"/>
        <pt x="177" y="155" on="0"/>
        <pt x="113" y="352" on="0"/>
        <pt x="70" y="565" on="0"/>
        <pt x="43" y="779" on="0"/>
        <pt x="33" y="872" on="1"/>
      </contour>
    </TTGlyph>
    <TTGlyph name="X" xMin="-31" yMin="-33" xMax="1151" yMax="1096">
      <contour>
        <pt x="389" y="20" on="1"/>
        <pt x="367" y="-33" on="0"/>
        <pt x="322" y="-33" on="1"/>
        <pt x="304" y="-33" on="0"/>
        <pt x="281" y="-23" on="1"/>
        <pt x="254" y="-10" on="1"/>
        <pt x="205" y="14" on="0"/>
        <pt x="205" y="57" on="1"/>
        <pt x="205" y="79" on="0"/>
        <pt x="213" y="98" on="1"/>
        <pt x="244" y="171" on="0"/>
        <pt x="316" y="328" on="0"/>
        <pt x="356" y="410" on="1"/>
        <pt x="359" y="418" on="0"/>
        <pt x="365" y="432" on="0"/>
        <pt x="365" y="438" on="1"/>
        <pt x="365" y="462" on="0"/>
        <pt x="340" y="481" on="1"/>
        <pt x="256" y="544" on="0"/>
        <pt x="91" y="671" on="0"/>
        <pt x="6" y="733" on="1"/>
        <pt x="-31" y="759" on="0"/>
        <pt x="-31" y="793" on="1"/>
        <pt x="-31" y="807" on="0"/>
        <pt x="-21" y="834" on="0"/>
        <pt x="-8" y="848" on="1"/>
        <pt x="20" y="881" on="1"/>
        <pt x="49" y="915" on="0"/>
        <pt x="84" y="915" on="1"/>
        <pt x="96" y="915" on="0"/>
        <pt x="121" y="904" on="0"/>
        <pt x="135" y="895" on="1"/>
        <pt x="209" y="841" on="0"/>
        <pt x="354" y="734" on="0"/>
        <pt x="426" y="678" on="1"/>
        <pt x="435" y="672" on="0"/>
        <pt x="451" y="664" on="0"/>
        <pt x="459" y="664" on="1"/>
        <pt x="481" y="664" on="0"/>
        <pt x="498" y="692" on="1"/>
        <pt x="546" y="785" on="0"/>
        <pt x="648" y="967" on="0"/>
        <pt x="702" y="1055" on="1"/>
        <pt x="729" y="1096" on="0"/>
        <pt x="766" y="1096" on="1"/>
        <pt x="787" y="1096" on="0"/>
        <pt x="815" y="1079" on="1"/>
        <pt x="831" y="1069" on="1"/>
        <pt x="872" y="1042" on="0"/>
        <pt x="872" y="1006" on="1"/>
        <pt x="872" y="993" on="0"/>
        <pt x="864" y="968" on="0"/>
        <pt x="856" y="954" on="1"/>
        <pt x="797" y="860" on="0"/>
        <pt x="691" y="668" on="0"/>
        <pt x="641" y="569" on="1"/>
        <pt x="638" y="561" on="0"/>
        <pt x="633" y="549" on="0"/>
        <pt x="633" y="543" on="1"/>
        <pt x="633" y="518" on="0"/>
        <pt x="657" y="500" on="1"/>
        <pt x="773" y="410" on="0"/>
        <pt x="1001" y="229" on="0"/>
        <pt x="1116" y="141" on="1"/>
        <pt x="1151" y="114" on="0"/>
        <pt x="1151" y="82" on="1"/>
        <pt x="1151" y="52" on="0"/>
        <pt x="1120" y="25" on="1"/>
        <pt x="1085" y="-6" on="1"/>
        <pt x="1056" y="-33" on="0"/>
        <pt x="1026" y="-33" on="1"/>
        <pt x="999" y="-33" on="0"/>
        <pt x="971" y="-10" on="1"/>
        <pt x="575" y="299" on="1"/>
        <pt x="566" y="305" on="0"/>
        <pt x="551" y="313" on="0"/>
        <pt x="543" y="313" on="1"/>
        <pt x="519" y="313" on="0"/>
        <pt x="504" y="283" on="1"/>
        <pt x="389" y="20" on="1"/>
      </contour>
    </TTGlyph>
    <TTGlyph name="Y" xMin="-158" yMin="-354" xMax="872" yMax="1038">
      <contour>
        <pt x="-123" y="856" on="1"/>
        <pt x="-158" y="882" on="0"/>
        <pt x="-158" y="918" on="1"/>
        <pt x="-158" y="932" on="0"/>
        <pt x="-148" y="959" on="0"/>
        <pt x="-135" y="973" on="1"/>
        <pt x="-106" y="1006" on="1"/>
        <pt x="-80" y="1038" on="0"/>
        <pt x="-45" y="1038" on="1"/>
        <pt x="-33" y="1038" on="0"/>
        <pt x="-6" y="1029" on="0"/>
        <pt x="8" y="1018" on="1"/>
        <pt x="148" y="913" on="0"/>
        <pt x="407" y="688" on="0"/>
        <pt x="528" y="555" on="1"/>
        <pt x="547" y="537" on="0"/>
        <pt x="561" y="537" on="1"/>
        <pt x="588" y="537" on="0"/>
        <pt x="594" y="573" on="1"/>
        <pt x="682" y="924" on="1"/>
        <pt x="697" y="983" on="0"/>
        <pt x="743" y="983" on="1"/>
        <pt x="753" y="983" on="0"/>
        <pt x="776" y="977" on="0"/>
        <pt x="788" y="969" on="1"/>
        <pt x="823" y="950" on="1"/>
        <pt x="872" y="923" on="0"/>
        <pt x="872" y="877" on="1"/>
        <pt x="872" y="862" on="0"/>
        <pt x="866" y="844" on="1"/>
        <pt x="832" y="719" on="0"/>
        <pt x="763" y="442" on="0"/>
        <pt x="691" y="151" on="0"/>
        <pt x="615" y="-147" on="0"/>
        <pt x="575" y="-293" on="1"/>
        <pt x="559" y="-354" on="0"/>
        <pt x="506" y="-354" on="1"/>
        <pt x="491" y="-354" on="0"/>
        <pt x="473" y="-348" on="1"/>
        <pt x="440" y="-338" on="1"/>
        <pt x="409" y="-330" on="0"/>
        <pt x="381" y="-294" on="0"/>
        <pt x="381" y="-268" on="1"/>
        <pt x="381" y="-262" on="0"/>
        <pt x="382" y="-246" on="0"/>
        <pt x="385" y="-238" on="1"/>
        <pt x="417" y="-119" on="0"/>
        <pt x="479" y="115" on="0"/>
        <pt x="508" y="233" on="1"/>
        <pt x="510" y="240" on="0"/>
        <pt x="512" y="250" on="0"/>
        <pt x="512" y="256" on="1"/>
        <pt x="512" y="268" on="0"/>
        <pt x="501" y="290" on="0"/>
        <pt x="492" y="301" on="1"/>
        <pt x="351" y="457" on="0"/>
        <pt x="44" y="731" on="0"/>
      </contour>
    </TTGlyph>
    <TTGlyph name="Yacute" xMin="-158" yMin="-354" xMax="872" yMax="1517">
      <component glyphName="Y" x="0" y="0" flags="0x1204"/>
      <component glyphName="acute" x="-22" y="178" flags="0x1004"/>
    </TTGlyph>
    <TTGlyph name="Ydieresis" xMin="-158" yMin="-354" xMax="872" yMax="1366">
      <component glyphName="Y" x="0" y="0" flags="0x1204"/>
      <component glyphName="dieresis" x="-52" y="178" flags="0x1004"/>
    </TTGlyph>
    <TTGlyph name="Z" xMin="61" yMin="-33" xMax="1356" yMax="1055">
      <contour>
        <pt x="137" y="487" on="1"/>
        <pt x="102" y="487" on="0"/>
        <pt x="61" y="520" on="0"/>
        <pt x="61" y="551" on="1"/>
        <pt x="61" y="557" on="0"/>
        <pt x="64" y="570" on="0"/>
        <pt x="66" y="578" on="1"/>
        <pt x="72" y="600" on="1"/>
        <pt x="87" y="669" on="0"/>
        <pt x="160" y="672" on="1"/>
        <pt x="234" y="674" on="0"/>
        <pt x="380" y="676" on="0"/>
        <pt x="453" y="676" on="1"/>
        <pt x="487" y="676" on="0"/>
        <pt x="552" y="676" on="0"/>
        <pt x="584" y="674" on="1"/>
        <pt x="621" y="674" on="0"/>
        <pt x="647" y="700" on="1"/>
        <pt x="705" y="762" on="1"/>
        <pt x="720" y="777" on="0"/>
        <pt x="733" y="807" on="0"/>
        <pt x="733" y="821" on="1"/>
        <pt x="733" y="840" on="0"/>
        <pt x="706" y="866" on="0"/>
        <pt x="680" y="868" on="1"/>
        <pt x="510" y="868" on="0"/>
        <pt x="275" y="864" on="0"/>
        <pt x="213" y="864" on="1"/>
        <pt x="137" y="864" on="0"/>
        <pt x="137" y="928" on="1"/>
        <pt x="137" y="934" on="0"/>
        <pt x="139" y="948" on="0"/>
        <pt x="141" y="956" on="1"/>
        <pt x="147" y="977" on="1"/>
        <pt x="163" y="1049" on="0"/>
        <pt x="238" y="1049" on="1"/>
        <pt x="315" y="1051" on="0"/>
        <pt x="469" y="1055" on="0"/>
        <pt x="547" y="1055" on="1"/>
        <pt x="622" y="1055" on="0"/>
        <pt x="740" y="1052" on="0"/>
        <pt x="835" y="1040" on="0"/>
        <pt x="911" y="1018" on="0"/>
        <pt x="946" y="999" on="1"/>
        <pt x="971" y="985" on="0"/>
        <pt x="996" y="960" on="0"/>
        <pt x="1004" y="946" on="1"/>
        <pt x="1009" y="937" on="0"/>
        <pt x="1016" y="918" on="0"/>
        <pt x="1016" y="905" on="1"/>
        <pt x="1016" y="886" on="0"/>
        <pt x="1008" y="866" on="1"/>
        <pt x="999" y="841" on="0"/>
        <pt x="964" y="789" on="0"/>
        <pt x="921" y="740" on="0"/>
        <pt x="876" y="694" on="0"/>
        <pt x="858" y="674" on="1"/>
        <pt x="856" y="672" on="0"/>
        <pt x="856" y="668" on="1"/>
        <pt x="856" y="658" on="0"/>
        <pt x="888" y="647" on="0"/>
        <pt x="915" y="645" on="1"/>
        <pt x="988" y="639" on="0"/>
        <pt x="1130" y="624" on="0"/>
        <pt x="1202" y="614" on="1"/>
        <pt x="1233" y="611" on="0"/>
        <pt x="1268" y="580" on="0"/>
        <pt x="1268" y="555" on="1"/>
        <pt x="1268" y="536" on="0"/>
        <pt x="1257" y="514" on="1"/>
        <pt x="1254" y="508" on="0"/>
        <pt x="1249" y="496" on="0"/>
        <pt x="1247" y="489" on="1"/>
        <pt x="1219" y="430" on="0"/>
        <pt x="1163" y="430" on="1"/>
        <pt x="1160" y="430" on="0"/>
        <pt x="1152" y="432" on="0"/>
        <pt x="1147" y="432" on="1"/>
        <pt x="1091" y="440" on="0"/>
        <pt x="956" y="453" on="0"/>
        <pt x="827" y="463" on="0"/>
        <pt x="720" y="469" on="0"/>
        <pt x="692" y="469" on="1"/>
        <pt x="661" y="469" on="0"/>
        <pt x="637" y="444" on="1"/>
        <pt x="596" y="400" on="0"/>
        <pt x="529" y="321" on="0"/>
        <pt x="494" y="272" on="1"/>
        <pt x="484" y="258" on="0"/>
        <pt x="473" y="234" on="0"/>
        <pt x="473" y="221" on="1"/>
        <pt x="473" y="200" on="0"/>
        <pt x="506" y="169" on="0"/>
        <pt x="535" y="166" on="1"/>
        <pt x="621" y="155" on="0"/>
        <pt x="804" y="152" on="0"/>
        <pt x="901" y="152" on="1"/>
        <pt x="929" y="152" on="0"/>
        <pt x="987" y="154" on="0"/>
        <pt x="1016" y="156" on="1"/>
        <pt x="1094" y="162" on="0"/>
        <pt x="1094" y="207" on="1"/>
        <pt x="1094" y="227" on="0"/>
        <pt x="1127" y="252" on="0"/>
        <pt x="1159" y="252" on="1"/>
        <pt x="1181" y="252" on="0"/>
        <pt x="1249" y="237" on="0"/>
        <pt x="1311" y="207" on="0"/>
        <pt x="1356" y="163" on="0"/>
        <pt x="1356" y="135" on="1"/>
        <pt x="1356" y="113" on="0"/>
        <pt x="1330" y="71" on="0"/>
        <pt x="1288" y="36" on="0"/>
        <pt x="1238" y="11" on="0"/>
        <pt x="1214" y="6" on="1"/>
        <pt x="1128" y="-12" on="0"/>
        <pt x="899" y="-33" on="0"/>
        <pt x="780" y="-33" on="1"/>
        <pt x="687" y="-33" on="0"/>
        <pt x="517" y="-22" on="0"/>
        <pt x="451" y="-12" on="1"/>
        <pt x="415" y="-7" on="0"/>
        <pt x="341" y="8" on="0"/>
        <pt x="278" y="38" on="0"/>
        <pt x="232" y="88" on="0"/>
        <pt x="225" y="129" on="1"/>
        <pt x="225" y="134" on="0"/>
        <pt x="223" y="140" on="0"/>
        <pt x="223" y="145" on="1"/>
        <pt x="223" y="176" on="0"/>
        <pt x="255" y="251" on="0"/>
        <pt x="305" y="327" on="0"/>
        <pt x="364" y="400" on="0"/>
        <pt x="391" y="430" on="1"/>
        <pt x="408" y="450" on="0"/>
        <pt x="408" y="465" on="1"/>
        <pt x="408" y="477" on="0"/>
        <pt x="384" y="492" on="0"/>
        <pt x="362" y="492" on="1"/>
        <pt x="137" y="487" on="1"/>
      </contour>
    </TTGlyph>
    <TTGlyph name="Zcaron" xMin="61" yMin="-33" xMax="1356" yMax="1489">
      <component glyphName="Z" x="0" y="0" flags="0x1204"/>
      <component glyphName="caron" x="205" y="215" flags="0x1004"/>
    </TTGlyph>
    <TTGlyph name="a" xMin="31" yMin="-16" xMax="1188" yMax="874">
      <contour>
        <pt x="711" y="874" on="1"/>
        <pt x="766" y="874" on="0"/>
        <pt x="868" y="840" on="0"/>
        <pt x="946" y="780" on="0"/>
        <pt x="993" y="696" on="0"/>
        <pt x="993" y="645" on="1"/>
        <pt x="993" y="624" on="0"/>
        <pt x="974" y="585" on="0"/>
        <pt x="942" y="556" on="0"/>
        <pt x="901" y="539" on="0"/>
        <pt x="879" y="539" on="1"/>
        <pt x="877" y="539" on="0"/>
        <pt x="874" y="538" on="0"/>
        <pt x="872" y="538" on="1"/>
        <pt x="870" y="537" on="0"/>
        <pt x="868" y="537" on="1"/>
        <pt x="872" y="457" on="1"/>
        <pt x="876" y="314" on="0"/>
        <pt x="949" y="182" on="0"/>
        <pt x="1008" y="182" on="1"/>
        <pt x="1029" y="182" on="0"/>
        <pt x="1062" y="190" on="0"/>
        <pt x="1091" y="201" on="0"/>
        <pt x="1117" y="209" on="0"/>
        <pt x="1130" y="209" on="1"/>
        <pt x="1153" y="209" on="0"/>
        <pt x="1188" y="169" on="0"/>
        <pt x="1188" y="141" on="1"/>
        <pt x="1188" y="113" on="0"/>
        <pt x="1145" y="57" on="0"/>
        <pt x="1075" y="12" on="0"/>
        <pt x="987" y="-16" on="0"/>
        <pt x="942" y="-16" on="1"/>
        <pt x="864" y="-16" on="0"/>
        <pt x="746" y="113" on="0"/>
        <pt x="721" y="238" on="1"/>
        <pt x="715" y="258" on="0"/>
        <pt x="705" y="258" on="1"/>
        <pt x="693" y="258" on="0"/>
        <pt x="684" y="246" on="1"/>
        <pt x="585" y="121" on="0"/>
        <pt x="361" y="-4" on="0"/>
        <pt x="252" y="-4" on="1"/>
        <pt x="201" y="-4" on="0"/>
        <pt x="119" y="26" on="0"/>
        <pt x="62" y="81" on="0"/>
        <pt x="31" y="160" on="0"/>
        <pt x="31" y="209" on="1"/>
        <pt x="31" y="278" on="0"/>
        <pt x="92" y="430" on="0"/>
        <pt x="196" y="578" on="0"/>
        <pt x="333" y="712" on="0"/>
        <pt x="484" y="814" on="0"/>
        <pt x="640" y="874" on="0"/>
      </contour>
      <contour>
        <pt x="678" y="528" on="1"/>
        <pt x="696" y="562" on="0"/>
        <pt x="726" y="593" on="0"/>
        <pt x="754" y="598" on="1"/>
        <pt x="776" y="601" on="0"/>
        <pt x="776" y="612" on="1"/>
        <pt x="776" y="620" on="0"/>
        <pt x="770" y="629" on="1"/>
        <pt x="751" y="655" on="0"/>
        <pt x="709" y="694" on="0"/>
        <pt x="674" y="694" on="1"/>
        <pt x="636" y="694" on="0"/>
        <pt x="542" y="650" on="0"/>
        <pt x="445" y="577" on="0"/>
        <pt x="352" y="484" on="0"/>
        <pt x="280" y="386" on="0"/>
        <pt x="236" y="290" on="0"/>
        <pt x="236" y="252" on="1"/>
        <pt x="236" y="218" on="0"/>
        <pt x="273" y="180" on="0"/>
        <pt x="305" y="180" on="1"/>
        <pt x="387" y="180" on="0"/>
        <pt x="581" y="354" on="0"/>
      </contour>
    </TTGlyph>
    <TTGlyph name="aacute" xMin="31" yMin="-16" xMax="1188" yMax="1382">
      <component glyphName="a" x="0" y="0" flags="0x1204"/>
      <component glyphName="acute" x="233" y="43" flags="0x1004"/>
    </TTGlyph>
    <TTGlyph name="acircumflex" xMin="31" yMin="-16" xMax="1188" yMax="1366">
      <component glyphName="a" x="0" y="0" flags="0x1204"/>
      <component glyphName="circumflex" x="233" y="43" flags="0x1004"/>
    </TTGlyph>
    <TTGlyph name="acute" xMin="193" yMin="881" xMax="674" yMax="1339">
      <contour>
        <pt x="674" y="1245" on="1"/>
        <pt x="674" y="1230" on="0"/>
        <pt x="645" y="1202" on="0"/>
        <pt x="596" y="1168" on="0"/>
        <pt x="530" y="1123" on="0"/>
        <pt x="457" y="1058" on="0"/>
        <pt x="379" y="967" on="0"/>
        <pt x="342" y="905" on="1"/>
        <pt x="334" y="891" on="0"/>
        <pt x="305" y="881" on="0"/>
        <pt x="287" y="881" on="1"/>
        <pt x="270" y="881" on="0"/>
        <pt x="237" y="890" on="0"/>
        <pt x="210" y="905" on="0"/>
        <pt x="193" y="926" on="0"/>
        <pt x="193" y="938" on="1"/>
        <pt x="193" y="965" on="0"/>
        <pt x="226" y="1046" on="0"/>
        <pt x="281" y="1135" on="0"/>
        <pt x="354" y="1224" on="0"/>
        <pt x="435" y="1295" on="0"/>
        <pt x="518" y="1339" on="0"/>
        <pt x="557" y="1339" on="1"/>
        <pt x="575" y="1339" on="0"/>
        <pt x="616" y="1319" on="0"/>
        <pt x="651" y="1290" on="0"/>
        <pt x="674" y="1257" on="0"/>
      </contour>
    </TTGlyph>
    <TTGlyph name="adieresis" xMin="31" yMin="-16" xMax="1188" yMax="1231">
      <component glyphName="a" x="0" y="0" flags="0x1204"/>
      <component glyphName="dieresis" x="203" y="43" flags="0x1004"/>
    </TTGlyph>
    <TTGlyph name="ae" xMin="84" yMin="-45" xMax="1599" yMax="883">
      <contour>
        <pt x="1456" y="281" on="1"/>
        <pt x="1487" y="305" on="0"/>
        <pt x="1513" y="305" on="1"/>
        <pt x="1532" y="305" on="0"/>
        <pt x="1563" y="282" on="0"/>
        <pt x="1586" y="250" on="0"/>
        <pt x="1599" y="217" on="0"/>
        <pt x="1599" y="207" on="1"/>
        <pt x="1599" y="177" on="0"/>
        <pt x="1569" y="150" on="1"/>
        <pt x="1524" y="112" on="0"/>
        <pt x="1416" y="50" on="0"/>
        <pt x="1294" y="5" on="0"/>
        <pt x="1162" y="-20" on="0"/>
        <pt x="1094" y="-20" on="1"/>
        <pt x="995" y="-20" on="0"/>
        <pt x="833" y="39" on="0"/>
        <pt x="774" y="104" on="1"/>
        <pt x="755" y="125" on="0"/>
        <pt x="737" y="125" on="1"/>
        <pt x="721" y="125" on="0"/>
        <pt x="705" y="104" on="1"/>
        <pt x="635" y="30" on="0"/>
        <pt x="462" y="-45" on="0"/>
        <pt x="365" y="-45" on="1"/>
        <pt x="310" y="-45" on="0"/>
        <pt x="209" y="-13" on="0"/>
        <pt x="131" y="48" on="0"/>
        <pt x="84" y="137" on="0"/>
        <pt x="84" y="193" on="1"/>
        <pt x="84" y="252" on="0"/>
        <pt x="129" y="341" on="0"/>
        <pt x="207" y="406" on="0"/>
        <pt x="313" y="450" on="0"/>
        <pt x="434" y="479" on="0"/>
        <pt x="563" y="494" on="0"/>
        <pt x="627" y="498" on="1"/>
        <pt x="648" y="500" on="0"/>
        <pt x="676" y="520" on="0"/>
        <pt x="676" y="539" on="1"/>
        <pt x="676" y="575" on="0"/>
        <pt x="646" y="634" on="0"/>
        <pt x="592" y="677" on="0"/>
        <pt x="518" y="700" on="0"/>
        <pt x="475" y="700" on="1"/>
        <pt x="429" y="700" on="0"/>
        <pt x="357" y="662" on="0"/>
        <pt x="298" y="617" on="0"/>
        <pt x="249" y="580" on="0"/>
        <pt x="227" y="580" on="1"/>
        <pt x="201" y="580" on="0"/>
        <pt x="174" y="600" on="1"/>
        <pt x="166" y="606" on="1"/>
        <pt x="127" y="636" on="0"/>
        <pt x="127" y="668" on="1"/>
        <pt x="127" y="696" on="0"/>
        <pt x="156" y="723" on="1"/>
        <pt x="236" y="795" on="0"/>
        <pt x="426" y="883" on="0"/>
        <pt x="532" y="883" on="1"/>
        <pt x="611" y="883" on="0"/>
        <pt x="752" y="816" on="0"/>
        <pt x="803" y="739" on="1"/>
        <pt x="818" y="715" on="0"/>
        <pt x="836" y="715" on="1"/>
        <pt x="844" y="715" on="0"/>
        <pt x="861" y="722" on="0"/>
        <pt x="870" y="731" on="1"/>
        <pt x="935" y="788" on="0"/>
        <pt x="1084" y="840" on="0"/>
        <pt x="1159" y="840" on="1"/>
        <pt x="1219" y="840" on="0"/>
        <pt x="1341" y="803" on="0"/>
        <pt x="1439" y="732" on="0"/>
        <pt x="1501" y="627" on="0"/>
        <pt x="1501" y="559" on="1"/>
        <pt x="1501" y="505" on="0"/>
        <pt x="1448" y="425" on="0"/>
        <pt x="1318" y="370" on="0"/>
        <pt x="1101" y="336" on="0"/>
        <pt x="938" y="328" on="1"/>
        <pt x="915" y="326" on="0"/>
        <pt x="887" y="305" on="0"/>
        <pt x="887" y="291" on="1"/>
        <pt x="887" y="262" on="0"/>
        <pt x="936" y="216" on="0"/>
        <pt x="1010" y="182" on="0"/>
        <pt x="1095" y="164" on="0"/>
        <pt x="1130" y="164" on="1"/>
        <pt x="1221" y="164" on="0"/>
        <pt x="1387" y="227" on="0"/>
      </contour>
      <contour>
        <pt x="418" y="139" on="1"/>
        <pt x="445" y="139" on="0"/>
        <pt x="517" y="164" on="0"/>
        <pt x="583" y="203" on="0"/>
        <pt x="629" y="253" on="0"/>
        <pt x="629" y="279" on="1"/>
        <pt x="629" y="294" on="0"/>
        <pt x="603" y="313" on="0"/>
        <pt x="582" y="313" on="1"/>
        <pt x="526" y="313" on="0"/>
        <pt x="421" y="299" on="0"/>
        <pt x="340" y="273" on="0"/>
        <pt x="291" y="239" on="0"/>
        <pt x="291" y="219" on="1"/>
        <pt x="291" y="197" on="0"/>
        <pt x="315" y="166" on="0"/>
        <pt x="352" y="147" on="0"/>
        <pt x="397" y="139" on="0"/>
      </contour>
      <contour>
        <pt x="1233" y="545" on="1"/>
        <pt x="1270" y="551" on="0"/>
        <pt x="1270" y="582" on="1"/>
        <pt x="1270" y="598" on="0"/>
        <pt x="1246" y="625" on="0"/>
        <pt x="1207" y="644" on="0"/>
        <pt x="1158" y="655" on="0"/>
        <pt x="1133" y="655" on="1"/>
        <pt x="1094" y="655" on="0"/>
        <pt x="1011" y="634" on="0"/>
        <pt x="944" y="599" on="0"/>
        <pt x="901" y="554" on="0"/>
        <pt x="901" y="530" on="1"/>
        <pt x="901" y="519" on="0"/>
        <pt x="913" y="508" on="0"/>
        <pt x="930" y="508" on="1"/>
        <pt x="945" y="508" on="0"/>
        <pt x="1012" y="514" on="0"/>
        <pt x="1097" y="524" on="0"/>
        <pt x="1191" y="537" on="0"/>
      </contour>
    </TTGlyph>
    <TTGlyph name="agrave" xMin="31" yMin="-16" xMax="1188" yMax="1382">
      <component glyphName="a" x="0" y="0" flags="0x1204"/>
      <component glyphName="grave" x="127" y="43" flags="0x1004"/>
    </TTGlyph>
    <TTGlyph name="ampersand" xMin="123" yMin="-47" xMax="926" yMax="1053">
      <contour>
        <pt x="895" y="109" on="1"/>
        <pt x="926" y="80" on="0"/>
        <pt x="926" y="51" on="1"/>
        <pt x="926" y="21" on="0"/>
        <pt x="891" y="-8" on="1"/>
        <pt x="859" y="-33" on="0"/>
        <pt x="827" y="-47" on="0"/>
        <pt x="813" y="-47" on="1"/>
        <pt x="798" y="-47" on="0"/>
        <pt x="767" y="-34" on="0"/>
        <pt x="752" y="-20" on="1"/>
        <pt x="692" y="31" on="1"/>
        <pt x="677" y="43" on="0"/>
        <pt x="659" y="43" on="1"/>
        <pt x="647" y="43" on="0"/>
        <pt x="635" y="37" on="1"/>
        <pt x="590" y="14" on="0"/>
        <pt x="490" y="-12" on="0"/>
        <pt x="434" y="-12" on="1"/>
        <pt x="379" y="-12" on="0"/>
        <pt x="268" y="25" on="0"/>
        <pt x="179" y="94" on="0"/>
        <pt x="123" y="192" on="0"/>
        <pt x="123" y="254" on="1"/>
        <pt x="123" y="319" on="0"/>
        <pt x="174" y="419" on="0"/>
        <pt x="217" y="459" on="1"/>
        <pt x="225" y="467" on="0"/>
        <pt x="233" y="480" on="0"/>
        <pt x="233" y="489" on="1"/>
        <pt x="233" y="496" on="0"/>
        <pt x="228" y="508" on="0"/>
        <pt x="225" y="516" on="1"/>
        <pt x="188" y="575" on="0"/>
        <pt x="147" y="688" on="0"/>
        <pt x="147" y="745" on="1"/>
        <pt x="147" y="815" on="0"/>
        <pt x="198" y="929" on="0"/>
        <pt x="287" y="1009" on="0"/>
        <pt x="407" y="1053" on="0"/>
        <pt x="475" y="1053" on="1"/>
        <pt x="535" y="1053" on="0"/>
        <pt x="651" y="1019" on="0"/>
        <pt x="741" y="953" on="0"/>
        <pt x="797" y="854" on="0"/>
        <pt x="797" y="788" on="1"/>
        <pt x="797" y="724" on="0"/>
        <pt x="753" y="626" on="0"/>
        <pt x="678" y="549" on="0"/>
        <pt x="580" y="489" on="0"/>
        <pt x="526" y="465" on="1"/>
        <pt x="522" y="461" on="0"/>
        <pt x="522" y="459" on="1"/>
        <pt x="522" y="453" on="0"/>
        <pt x="538" y="436" on="0"/>
        <pt x="549" y="424" on="1"/>
        <pt x="623" y="348" on="1"/>
        <pt x="640" y="330" on="0"/>
        <pt x="656" y="322" on="0"/>
        <pt x="659" y="322" on="1"/>
        <pt x="665" y="322" on="0"/>
        <pt x="672" y="334" on="0"/>
        <pt x="675" y="351" on="0"/>
        <pt x="676" y="369" on="0"/>
        <pt x="676" y="375" on="1"/>
        <pt x="676" y="386" on="0"/>
        <pt x="672" y="408" on="0"/>
        <pt x="672" y="424" on="1"/>
        <pt x="672" y="441" on="0"/>
        <pt x="708" y="462" on="0"/>
        <pt x="743" y="471" on="1"/>
        <pt x="766" y="477" on="0"/>
        <pt x="799" y="481" on="0"/>
        <pt x="807" y="481" on="1"/>
        <pt x="852" y="481" on="0"/>
        <pt x="858" y="453" on="1"/>
        <pt x="861" y="436" on="0"/>
        <pt x="866" y="408" on="0"/>
        <pt x="866" y="391" on="1"/>
        <pt x="866" y="353" on="0"/>
        <pt x="844" y="268" on="0"/>
        <pt x="819" y="221" on="1"/>
        <pt x="813" y="209" on="0"/>
        <pt x="813" y="197" on="1"/>
        <pt x="813" y="180" on="0"/>
        <pt x="829" y="164" on="1"/>
      </contour>
      <contour>
        <pt x="342" y="764" on="1"/>
        <pt x="342" y="696" on="0"/>
        <pt x="393" y="616" on="1"/>
        <pt x="406" y="594" on="0"/>
        <pt x="426" y="594" on="1"/>
        <pt x="435" y="594" on="0"/>
        <pt x="449" y="600" on="1"/>
        <pt x="476" y="613" on="0"/>
        <pt x="532" y="647" on="0"/>
        <pt x="576" y="687" on="0"/>
        <pt x="604" y="732" on="0"/>
        <pt x="604" y="758" on="1"/>
        <pt x="604" y="786" on="0"/>
        <pt x="583" y="832" on="0"/>
        <pt x="546" y="864" on="0"/>
        <pt x="498" y="881" on="0"/>
        <pt x="471" y="881" on="1"/>
        <pt x="449" y="881" on="0"/>
        <pt x="403" y="871" on="0"/>
        <pt x="366" y="846" on="0"/>
        <pt x="342" y="800" on="0"/>
      </contour>
      <contour>
        <pt x="459" y="158" on="1"/>
        <pt x="490" y="158" on="0"/>
        <pt x="506" y="173" on="0"/>
        <pt x="506" y="184" on="1"/>
        <pt x="506" y="201" on="0"/>
        <pt x="492" y="215" on="1"/>
        <pt x="460" y="244" on="0"/>
        <pt x="401" y="300" on="0"/>
        <pt x="375" y="328" on="1"/>
        <pt x="360" y="346" on="0"/>
        <pt x="344" y="346" on="1"/>
        <pt x="330" y="346" on="0"/>
        <pt x="319" y="330" on="1"/>
        <pt x="316" y="320" on="0"/>
        <pt x="311" y="300" on="0"/>
        <pt x="311" y="289" on="1"/>
        <pt x="311" y="224" on="0"/>
        <pt x="396" y="158" on="0"/>
      </contour>
    </TTGlyph>
    <TTGlyph name="aring" xMin="31" yMin="-16" xMax="1188" yMax="1440">
      <component glyphName="a" x="0" y="0" flags="0x1204"/>
      <component glyphName="ring" x="174" y="43" flags="0x1004"/>
    </TTGlyph>
    <TTGlyph name="asciicircum" xMin="41" yMin="242" xMax="915" yMax="854">
      <contour>
        <pt x="897" y="508" on="1"/>
        <pt x="915" y="490" on="0"/>
        <pt x="915" y="469" on="1"/>
        <pt x="915" y="449" on="0"/>
        <pt x="901" y="432" on="1"/>
        <pt x="860" y="377" on="1"/>
        <pt x="842" y="354" on="0"/>
        <pt x="821" y="354" on="1"/>
        <pt x="803" y="354" on="0"/>
        <pt x="784" y="373" on="1"/>
        <pt x="752" y="404" on="0"/>
        <pt x="676" y="476" on="0"/>
        <pt x="593" y="546" on="0"/>
        <pt x="506" y="608" on="0"/>
        <pt x="465" y="629" on="1"/>
        <pt x="457" y="634" on="0"/>
        <pt x="442" y="637" on="0"/>
        <pt x="436" y="637" on="1"/>
        <pt x="417" y="637" on="0"/>
        <pt x="375" y="598" on="0"/>
        <pt x="333" y="536" on="0"/>
        <pt x="293" y="457" on="0"/>
        <pt x="257" y="377" on="0"/>
        <pt x="228" y="303" on="0"/>
        <pt x="219" y="276" on="1"/>
        <pt x="207" y="242" on="0"/>
        <pt x="180" y="242" on="1"/>
        <pt x="170" y="242" on="0"/>
        <pt x="124" y="263" on="0"/>
        <pt x="77" y="295" on="0"/>
        <pt x="41" y="333" on="0"/>
        <pt x="41" y="350" on="1"/>
        <pt x="41" y="362" on="0"/>
        <pt x="59" y="419" on="0"/>
        <pt x="91" y="494" on="0"/>
        <pt x="135" y="583" on="0"/>
        <pt x="186" y="671" on="0"/>
        <pt x="244" y="753" on="0"/>
        <pt x="303" y="816" on="0"/>
        <pt x="362" y="854" on="0"/>
        <pt x="389" y="854" on="1"/>
        <pt x="424" y="854" on="0"/>
        <pt x="508" y="821" on="0"/>
        <pt x="597" y="766" on="0"/>
        <pt x="690" y="695" on="0"/>
        <pt x="780" y="618" on="0"/>
        <pt x="862" y="541" on="0"/>
      </contour>
    </TTGlyph>
    <TTGlyph name="asciitilde" xMin="53" yMin="379" xMax="918" yMax="659">
      <contour>
        <pt x="776" y="606" on="1"/>
        <pt x="787" y="615" on="0"/>
        <pt x="820" y="627" on="0"/>
        <pt x="831" y="627" on="1"/>
        <pt x="846" y="627" on="0"/>
        <pt x="876" y="603" on="0"/>
        <pt x="902" y="569" on="0"/>
        <pt x="918" y="531" on="0"/>
        <pt x="918" y="516" on="1"/>
        <pt x="918" y="486" on="0"/>
        <pt x="869" y="436" on="0"/>
        <pt x="795" y="399" on="0"/>
        <pt x="707" y="379" on="0"/>
        <pt x="668" y="379" on="1"/>
        <pt x="621" y="379" on="0"/>
        <pt x="515" y="410" on="0"/>
        <pt x="412" y="448" on="0"/>
        <pt x="322" y="479" on="0"/>
        <pt x="291" y="479" on="1"/>
        <pt x="267" y="479" on="0"/>
        <pt x="225" y="461" on="0"/>
        <pt x="189" y="440" on="0"/>
        <pt x="159" y="422" on="0"/>
        <pt x="147" y="422" on="1"/>
        <pt x="135" y="422" on="0"/>
        <pt x="103" y="452" on="0"/>
        <pt x="73" y="492" on="0"/>
        <pt x="53" y="533" on="0"/>
        <pt x="53" y="545" on="1"/>
        <pt x="53" y="569" on="0"/>
        <pt x="96" y="611" on="0"/>
        <pt x="161" y="642" on="0"/>
        <pt x="240" y="659" on="0"/>
        <pt x="276" y="659" on="1"/>
        <pt x="326" y="659" on="0"/>
        <pt x="428" y="627" on="0"/>
        <pt x="523" y="589" on="0"/>
        <pt x="608" y="557" on="0"/>
        <pt x="641" y="557" on="1"/>
        <pt x="681" y="557" on="0"/>
        <pt x="747" y="585" on="0"/>
      </contour>
    </TTGlyph>
    <TTGlyph name="asterisk" xMin="33" yMin="487" xMax="674" yMax="1120">
      <contour>
        <pt x="188" y="770" on="1"/>
        <pt x="180" y="770" on="0"/>
        <pt x="153" y="769" on="0"/>
        <pt x="124" y="767" on="0"/>
        <pt x="98" y="766" on="0"/>
        <pt x="92" y="766" on="1"/>
        <pt x="64" y="766" on="0"/>
        <pt x="33" y="781" on="0"/>
        <pt x="33" y="803" on="1"/>
        <pt x="33" y="810" on="0"/>
        <pt x="39" y="844" on="0"/>
        <pt x="51" y="879" on="0"/>
        <pt x="71" y="905" on="0"/>
        <pt x="86" y="905" on="1"/>
        <pt x="104" y="905" on="0"/>
        <pt x="149" y="901" on="0"/>
        <pt x="192" y="897" on="0"/>
        <pt x="228" y="893" on="0"/>
        <pt x="238" y="893" on="1"/>
        <pt x="255" y="893" on="0"/>
        <pt x="270" y="900" on="0"/>
        <pt x="270" y="911" on="1"/>
        <pt x="270" y="919" on="0"/>
        <pt x="263" y="949" on="0"/>
        <pt x="254" y="975" on="1"/>
        <pt x="243" y="1004" on="0"/>
        <pt x="236" y="1039" on="0"/>
        <pt x="236" y="1055" on="1"/>
        <pt x="236" y="1074" on="0"/>
        <pt x="252" y="1085" on="1"/>
        <pt x="289" y="1107" on="0"/>
        <pt x="336" y="1120" on="0"/>
        <pt x="350" y="1120" on="1"/>
        <pt x="363" y="1120" on="0"/>
        <pt x="378" y="1096" on="0"/>
        <pt x="387" y="1060" on="0"/>
        <pt x="392" y="1018" on="0"/>
        <pt x="399" y="982" on="0"/>
        <pt x="410" y="958" on="0"/>
        <pt x="420" y="958" on="1"/>
        <pt x="426" y="958" on="0"/>
        <pt x="452" y="978" on="0"/>
        <pt x="483" y="1010" on="1"/>
        <pt x="505" y="1031" on="0"/>
        <pt x="535" y="1057" on="0"/>
        <pt x="549" y="1057" on="1"/>
        <pt x="567" y="1057" on="0"/>
        <pt x="594" y="1040" on="0"/>
        <pt x="613" y="1015" on="0"/>
        <pt x="623" y="988" on="0"/>
        <pt x="623" y="979" on="1"/>
        <pt x="623" y="967" on="0"/>
        <pt x="588" y="935" on="0"/>
        <pt x="547" y="904" on="0"/>
        <pt x="512" y="875" on="0"/>
        <pt x="512" y="866" on="1"/>
        <pt x="512" y="857" on="0"/>
        <pt x="545" y="847" on="0"/>
        <pt x="584" y="842" on="1"/>
        <pt x="627" y="836" on="0"/>
        <pt x="674" y="821" on="0"/>
        <pt x="674" y="801" on="1"/>
        <pt x="674" y="784" on="0"/>
        <pt x="664" y="759" on="0"/>
        <pt x="659" y="750" on="1"/>
        <pt x="641" y="718" on="0"/>
        <pt x="609" y="696" on="0"/>
        <pt x="598" y="696" on="1"/>
        <pt x="584" y="696" on="0"/>
        <pt x="548" y="705" on="0"/>
        <pt x="512" y="716" on="0"/>
        <pt x="480" y="725" on="0"/>
        <pt x="471" y="725" on="1"/>
        <pt x="460" y="725" on="0"/>
        <pt x="453" y="714" on="0"/>
        <pt x="453" y="700" on="1"/>
        <pt x="453" y="691" on="0"/>
        <pt x="461" y="647" on="0"/>
        <pt x="471" y="598" on="0"/>
        <pt x="479" y="552" on="0"/>
        <pt x="479" y="541" on="1"/>
        <pt x="479" y="526" on="0"/>
        <pt x="453" y="506" on="0"/>
        <pt x="417" y="493" on="0"/>
        <pt x="378" y="487" on="0"/>
        <pt x="365" y="487" on="1"/>
        <pt x="340" y="487" on="0"/>
        <pt x="326" y="540" on="0"/>
        <pt x="326" y="575" on="1"/>
        <pt x="326" y="606" on="0"/>
        <pt x="319" y="657" on="0"/>
        <pt x="305" y="657" on="1"/>
        <pt x="295" y="657" on="0"/>
        <pt x="271" y="629" on="0"/>
        <pt x="244" y="596" on="0"/>
        <pt x="216" y="569" on="0"/>
        <pt x="203" y="569" on="1"/>
        <pt x="184" y="569" on="0"/>
        <pt x="162" y="576" on="0"/>
        <pt x="156" y="580" on="1"/>
        <pt x="131" y="591" on="0"/>
        <pt x="115" y="615" on="0"/>
        <pt x="115" y="625" on="1"/>
        <pt x="115" y="637" on="0"/>
        <pt x="145" y="673" on="0"/>
        <pt x="174" y="702" on="1"/>
        <pt x="197" y="725" on="0"/>
        <pt x="217" y="752" on="0"/>
        <pt x="217" y="760" on="1"/>
        <pt x="217" y="765" on="0"/>
        <pt x="205" y="770" on="0"/>
      </contour>
    </TTGlyph>
    <TTGlyph name="at" xMin="113" yMin="-309" xMax="1931" yMax="1219">
      <contour>
        <pt x="1931" y="655" on="1"/>
        <pt x="1931" y="559" on="0"/>
        <pt x="1864" y="383" on="0"/>
        <pt x="1740" y="250" on="0"/>
        <pt x="1561" y="170" on="0"/>
        <pt x="1450" y="170" on="1"/>
        <pt x="1405" y="170" on="0"/>
        <pt x="1314" y="197" on="0"/>
        <pt x="1234" y="248" on="0"/>
        <pt x="1172" y="324" on="0"/>
        <pt x="1157" y="373" on="1"/>
        <pt x="1151" y="373" on="1"/>
        <pt x="1070" y="274" on="0"/>
        <pt x="892" y="176" on="0"/>
        <pt x="807" y="176" on="1"/>
        <pt x="720" y="176" on="0"/>
        <pt x="623" y="274" on="0"/>
        <pt x="623" y="360" on="1"/>
        <pt x="623" y="414" on="0"/>
        <pt x="672" y="535" on="0"/>
        <pt x="754" y="651" on="0"/>
        <pt x="863" y="757" on="0"/>
        <pt x="982" y="838" on="0"/>
        <pt x="1105" y="885" on="0"/>
        <pt x="1161" y="885" on="1"/>
        <pt x="1206" y="885" on="0"/>
        <pt x="1291" y="856" on="0"/>
        <pt x="1356" y="804" on="0"/>
        <pt x="1395" y="732" on="0"/>
        <pt x="1395" y="688" on="1"/>
        <pt x="1395" y="667" on="0"/>
        <pt x="1379" y="631" on="0"/>
        <pt x="1353" y="602" on="0"/>
        <pt x="1319" y="584" on="0"/>
        <pt x="1300" y="582" on="1"/>
        <pt x="1300" y="571" on="1"/>
        <pt x="1300" y="514" on="0"/>
        <pt x="1337" y="431" on="0"/>
        <pt x="1395" y="377" on="0"/>
        <pt x="1463" y="352" on="0"/>
        <pt x="1495" y="352" on="1"/>
        <pt x="1556" y="352" on="0"/>
        <pt x="1643" y="392" on="0"/>
        <pt x="1699" y="465" on="0"/>
        <pt x="1726" y="569" on="0"/>
        <pt x="1726" y="633" on="1"/>
        <pt x="1726" y="718" on="0"/>
        <pt x="1663" y="843" on="0"/>
        <pt x="1559" y="932" on="0"/>
        <pt x="1427" y="988" on="0"/>
        <pt x="1288" y="1020" on="0"/>
        <pt x="1155" y="1032" on="0"/>
        <pt x="1102" y="1032" on="1"/>
        <pt x="1025" y="1032" on="0"/>
        <pt x="849" y="1008" on="0"/>
        <pt x="673" y="955" on="0"/>
        <pt x="511" y="872" on="0"/>
        <pt x="387" y="755" on="0"/>
        <pt x="313" y="601" on="0"/>
        <pt x="313" y="504" on="1"/>
        <pt x="313" y="409" on="0"/>
        <pt x="382" y="241" on="0"/>
        <pt x="502" y="100" on="0"/>
        <pt x="663" y="-11" on="0"/>
        <pt x="846" y="-88" on="0"/>
        <pt x="1042" y="-129" on="0"/>
        <pt x="1137" y="-129" on="1"/>
        <pt x="1220" y="-129" on="0"/>
        <pt x="1380" y="-97" on="0"/>
        <pt x="1454" y="-61" on="1"/>
        <pt x="1462" y="-58" on="0"/>
        <pt x="1477" y="-53" on="0"/>
        <pt x="1483" y="-53" on="1"/>
        <pt x="1506" y="-53" on="0"/>
        <pt x="1526" y="-82" on="1"/>
        <pt x="1559" y="-137" on="1"/>
        <pt x="1564" y="-145" on="0"/>
        <pt x="1567" y="-162" on="0"/>
        <pt x="1567" y="-168" on="1"/>
        <pt x="1567" y="-197" on="0"/>
        <pt x="1538" y="-211" on="1"/>
        <pt x="1436" y="-264" on="0"/>
        <pt x="1234" y="-309" on="0"/>
        <pt x="1130" y="-309" on="1"/>
        <pt x="1015" y="-309" on="0"/>
        <pt x="775" y="-266" on="0"/>
        <pt x="549" y="-180" on="0"/>
        <pt x="349" y="-49" on="0"/>
        <pt x="200" y="126" on="0"/>
        <pt x="113" y="346" on="0"/>
        <pt x="113" y="479" on="1"/>
        <pt x="113" y="575" on="0"/>
        <pt x="181" y="759" on="0"/>
        <pt x="309" y="923" on="0"/>
        <pt x="493" y="1062" on="0"/>
        <pt x="723" y="1163" on="0"/>
        <pt x="997" y="1219" on="0"/>
        <pt x="1151" y="1219" on="1"/>
        <pt x="1253" y="1219" on="0"/>
        <pt x="1449" y="1187" on="0"/>
        <pt x="1622" y="1123" on="0"/>
        <pt x="1767" y="1028" on="0"/>
        <pt x="1872" y="903" on="0"/>
        <pt x="1931" y="747" on="0"/>
      </contour>
      <contour>
        <pt x="1126" y="612" on="1"/>
        <pt x="1142" y="641" on="0"/>
        <pt x="1167" y="671" on="0"/>
        <pt x="1186" y="676" on="1"/>
        <pt x="1177" y="687" on="0"/>
        <pt x="1153" y="698" on="0"/>
        <pt x="1133" y="698" on="1"/>
        <pt x="1105" y="698" on="0"/>
        <pt x="1035" y="668" on="0"/>
        <pt x="963" y="618" on="0"/>
        <pt x="894" y="554" on="0"/>
        <pt x="840" y="486" on="0"/>
        <pt x="807" y="420" on="0"/>
        <pt x="807" y="393" on="1"/>
        <pt x="807" y="365" on="0"/>
        <pt x="848" y="365" on="1"/>
        <pt x="910" y="365" on="0"/>
        <pt x="1054" y="489" on="0"/>
      </contour>
    </TTGlyph>
    <TTGlyph name="atilde" xMin="31" yMin="-16" xMax="1188" yMax="1298">
      <component glyphName="a" x="0" y="0" flags="0x1204"/>
      <component glyphName="tilde" x="193" y="43" flags="0x1004"/>
    </TTGlyph>
    <TTGlyph name="b" xMin="6" yMin="47" xMax="1032" yMax="1276">
      <contour>
        <pt x="123" y="231" on="1"/>
        <pt x="104" y="465" on="0"/>
        <pt x="55" y="927" on="0"/>
        <pt x="8" y="1157" on="1"/>
        <pt x="6" y="1165" on="0"/>
        <pt x="6" y="1178" on="0"/>
        <pt x="6" y="1184" on="1"/>
        <pt x="6" y="1207" on="0"/>
        <pt x="25" y="1241" on="0"/>
        <pt x="57" y="1264" on="0"/>
        <pt x="98" y="1276" on="0"/>
        <pt x="121" y="1276" on="1"/>
        <pt x="182" y="1276" on="0"/>
        <pt x="205" y="1219" on="1"/>
        <pt x="215" y="1190" on="0"/>
        <pt x="236" y="1082" on="0"/>
        <pt x="259" y="940" on="0"/>
        <pt x="281" y="771" on="0"/>
        <pt x="291" y="682" on="1"/>
        <pt x="294" y="657" on="0"/>
        <pt x="307" y="657" on="1"/>
        <pt x="318" y="657" on="0"/>
        <pt x="330" y="672" on="1"/>
        <pt x="476" y="864" on="0"/>
        <pt x="676" y="864" on="1"/>
        <pt x="751" y="864" on="0"/>
        <pt x="881" y="798" on="0"/>
        <pt x="977" y="684" on="0"/>
        <pt x="1032" y="528" on="0"/>
        <pt x="1032" y="438" on="1"/>
        <pt x="1032" y="354" on="0"/>
        <pt x="979" y="210" on="0"/>
        <pt x="885" y="106" on="0"/>
        <pt x="756" y="47" on="0"/>
        <pt x="680" y="47" on="1"/>
        <pt x="586" y="47" on="0"/>
        <pt x="406" y="120" on="0"/>
        <pt x="326" y="182" on="1"/>
        <pt x="317" y="190" on="0"/>
        <pt x="307" y="190" on="1"/>
        <pt x="294" y="190" on="0"/>
        <pt x="283" y="176" on="1"/>
        <pt x="267" y="158" on="0"/>
        <pt x="231" y="147" on="0"/>
        <pt x="205" y="147" on="1"/>
        <pt x="126" y="147" on="0"/>
      </contour>
      <contour>
        <pt x="641" y="678" on="1"/>
        <pt x="601" y="678" on="0"/>
        <pt x="522" y="641" on="0"/>
        <pt x="452" y="573" on="0"/>
        <pt x="393" y="478" on="0"/>
        <pt x="373" y="420" on="1"/>
        <pt x="371" y="417" on="0"/>
        <pt x="369" y="405" on="0"/>
        <pt x="369" y="401" on="1"/>
        <pt x="369" y="384" on="0"/>
        <pt x="381" y="375" on="1"/>
        <pt x="417" y="344" on="0"/>
        <pt x="494" y="290" on="0"/>
        <pt x="570" y="250" on="0"/>
        <pt x="644" y="227" on="0"/>
        <pt x="676" y="227" on="1"/>
        <pt x="748" y="227" on="0"/>
        <pt x="823" y="311" on="0"/>
        <pt x="823" y="391" on="1"/>
        <pt x="823" y="453" on="0"/>
        <pt x="795" y="558" on="0"/>
        <pt x="747" y="635" on="0"/>
        <pt x="680" y="678" on="0"/>
      </contour>
    </TTGlyph>
    <TTGlyph name="backslash" xMin="74" yMin="-174" xMax="510" yMax="1165">
      <contour>
        <pt x="274" y="1112" on="1"/>
        <pt x="294" y="988" on="0"/>
        <pt x="339" y="735" on="0"/>
        <pt x="394" y="446" on="0"/>
        <pt x="463" y="107" on="0"/>
        <pt x="508" y="-102" on="1"/>
        <pt x="510" y="-107" on="0"/>
        <pt x="510" y="-116" on="0"/>
        <pt x="510" y="-119" on="1"/>
        <pt x="510" y="-139" on="0"/>
        <pt x="487" y="-162" on="0"/>
        <pt x="465" y="-164" on="1"/>
        <pt x="375" y="-174" on="1"/>
        <pt x="350" y="-174" on="0"/>
        <pt x="320" y="-157" on="0"/>
        <pt x="313" y="-131" on="1"/>
        <pt x="241" y="178" on="0"/>
        <pt x="126" y="797" on="0"/>
        <pt x="74" y="1108" on="1"/>
        <pt x="74" y="1137" on="0"/>
        <pt x="94" y="1163" on="0"/>
        <pt x="123" y="1165" on="1"/>
        <pt x="217" y="1161" on="1"/>
        <pt x="265" y="1158" on="0"/>
      </contour>
    </TTGlyph>
    <TTGlyph name="bar" xMin="154" yMin="-498" xMax="358" yMax="1364">
      <contour>
        <pt x="154" y="1276" on="1"/>
        <pt x="154" y="1316" on="0"/>
        <pt x="230" y="1364" on="0"/>
        <pt x="295" y="1364" on="1"/>
        <pt x="326" y="1364" on="0"/>
        <pt x="358" y="1323" on="0"/>
        <pt x="358" y="1288" on="1"/>
        <pt x="358" y="-410" on="1"/>
        <pt x="358" y="-450" on="0"/>
        <pt x="282" y="-498" on="0"/>
        <pt x="217" y="-498" on="1"/>
        <pt x="186" y="-498" on="0"/>
        <pt x="154" y="-457" on="0"/>
        <pt x="154" y="-422" on="1"/>
      </contour>
    </TTGlyph>
    <TTGlyph name="braceleft" xMin="117" yMin="-293" xMax="776" yMax="1305">
      <contour>
        <pt x="631" y="-63" on="1"/>
        <pt x="662" y="-35" on="0"/>
        <pt x="690" y="-35" on="1"/>
        <pt x="704" y="-35" on="0"/>
        <pt x="732" y="-48" on="0"/>
        <pt x="748" y="-63" on="1"/>
        <pt x="776" y="-93" on="0"/>
        <pt x="776" y="-123" on="1"/>
        <pt x="776" y="-152" on="0"/>
        <pt x="750" y="-178" on="1"/>
        <pt x="687" y="-238" on="0"/>
        <pt x="543" y="-293" on="0"/>
        <pt x="463" y="-293" on="1"/>
        <pt x="398" y="-293" on="0"/>
        <pt x="305" y="-250" on="0"/>
        <pt x="246" y="-179" on="0"/>
        <pt x="219" y="-87" on="0"/>
        <pt x="219" y="-37" on="1"/>
        <pt x="219" y="5" on="0"/>
        <pt x="238" y="84" on="0"/>
        <pt x="262" y="162" on="0"/>
        <pt x="281" y="240" on="0"/>
        <pt x="281" y="281" on="1"/>
        <pt x="281" y="315" on="0"/>
        <pt x="257" y="358" on="0"/>
        <pt x="220" y="386" on="0"/>
        <pt x="178" y="406" on="0"/>
        <pt x="141" y="428" on="0"/>
        <pt x="117" y="457" on="0"/>
        <pt x="117" y="481" on="1"/>
        <pt x="117" y="518" on="0"/>
        <pt x="155" y="569" on="0"/>
        <pt x="186" y="580" on="1"/>
        <pt x="242" y="598" on="0"/>
        <pt x="291" y="650" on="0"/>
        <pt x="291" y="688" on="1"/>
        <pt x="291" y="721" on="0"/>
        <pt x="267" y="800" on="0"/>
        <pt x="237" y="883" on="0"/>
        <pt x="213" y="965" on="0"/>
        <pt x="213" y="1001" on="1"/>
        <pt x="213" y="1073" on="0"/>
        <pt x="275" y="1186" on="0"/>
        <pt x="374" y="1264" on="0"/>
        <pt x="499" y="1305" on="0"/>
        <pt x="561" y="1305" on="1"/>
        <pt x="590" y="1305" on="0"/>
        <pt x="662" y="1293" on="0"/>
        <pt x="725" y="1269" on="0"/>
        <pt x="768" y="1231" on="0"/>
        <pt x="768" y="1206" on="1"/>
        <pt x="768" y="1192" on="0"/>
        <pt x="749" y="1158" on="0"/>
        <pt x="723" y="1130" on="1"/>
        <pt x="695" y="1100" on="0"/>
        <pt x="666" y="1079" on="0"/>
        <pt x="653" y="1079" on="1"/>
        <pt x="641" y="1079" on="0"/>
        <pt x="613" y="1092" on="0"/>
        <pt x="580" y="1109" on="0"/>
        <pt x="542" y="1122" on="0"/>
        <pt x="520" y="1122" on="1"/>
        <pt x="491" y="1122" on="0"/>
        <pt x="452" y="1102" on="0"/>
        <pt x="428" y="1072" on="0"/>
        <pt x="418" y="1037" on="0"/>
        <pt x="418" y="1022" on="1"/>
        <pt x="418" y="996" on="0"/>
        <pt x="441" y="918" on="0"/>
        <pt x="469" y="833" on="0"/>
        <pt x="492" y="752" on="0"/>
        <pt x="492" y="723" on="1"/>
        <pt x="492" y="669" on="0"/>
        <pt x="445" y="583" on="0"/>
        <pt x="401" y="549" on="1"/>
        <pt x="379" y="530" on="0"/>
        <pt x="379" y="516" on="1"/>
        <pt x="379" y="499" on="0"/>
        <pt x="403" y="483" on="1"/>
        <pt x="450" y="451" on="0"/>
        <pt x="483" y="374" on="0"/>
        <pt x="483" y="322" on="1"/>
        <pt x="483" y="281" on="0"/>
        <pt x="465" y="203" on="0"/>
        <pt x="442" y="126" on="0"/>
        <pt x="424" y="48" on="0"/>
        <pt x="424" y="8" on="1"/>
        <pt x="424" y="-26" on="0"/>
        <pt x="439" y="-71" on="0"/>
        <pt x="465" y="-98" on="0"/>
        <pt x="502" y="-109" on="0"/>
        <pt x="524" y="-109" on="1"/>
        <pt x="556" y="-109" on="0"/>
        <pt x="609" y="-83" on="0"/>
      </contour>
    </TTGlyph>
    <TTGlyph name="braceright" xMin="-41" yMin="-293" xMax="618" yMax="1305">
      <contour>
        <pt x="104" y="1075" on="1"/>
        <pt x="89" y="1061" on="0"/>
        <pt x="61" y="1047" on="0"/>
        <pt x="45" y="1047" on="1"/>
        <pt x="16" y="1047" on="0"/>
        <pt x="-12" y="1075" on="1"/>
        <pt x="-41" y="1104" on="0"/>
        <pt x="-41" y="1135" on="1"/>
        <pt x="-41" y="1163" on="0"/>
        <pt x="-14" y="1190" on="1"/>
        <pt x="49" y="1250" on="0"/>
        <pt x="192" y="1305" on="0"/>
        <pt x="272" y="1305" on="1"/>
        <pt x="337" y="1305" on="0"/>
        <pt x="430" y="1262" on="0"/>
        <pt x="489" y="1191" on="0"/>
        <pt x="516" y="1099" on="0"/>
        <pt x="516" y="1049" on="1"/>
        <pt x="516" y="1007" on="0"/>
        <pt x="497" y="928" on="0"/>
        <pt x="474" y="850" on="0"/>
        <pt x="455" y="772" on="0"/>
        <pt x="455" y="731" on="1"/>
        <pt x="455" y="697" on="0"/>
        <pt x="479" y="654" on="0"/>
        <pt x="515" y="626" on="0"/>
        <pt x="558" y="605" on="0"/>
        <pt x="594" y="583" on="0"/>
        <pt x="618" y="554" on="0"/>
        <pt x="618" y="530" on="1"/>
        <pt x="618" y="493" on="0"/>
        <pt x="580" y="443" on="0"/>
        <pt x="549" y="432" on="1"/>
        <pt x="493" y="414" on="0"/>
        <pt x="444" y="362" on="0"/>
        <pt x="444" y="324" on="1"/>
        <pt x="444" y="291" on="0"/>
        <pt x="468" y="212" on="0"/>
        <pt x="498" y="128" on="0"/>
        <pt x="522" y="46" on="0"/>
        <pt x="522" y="10" on="1"/>
        <pt x="522" y="-61" on="0"/>
        <pt x="460" y="-174" on="0"/>
        <pt x="361" y="-252" on="0"/>
        <pt x="236" y="-293" on="0"/>
        <pt x="174" y="-293" on="1"/>
        <pt x="145" y="-293" on="0"/>
        <pt x="73" y="-281" on="0"/>
        <pt x="10" y="-257" on="0"/>
        <pt x="-33" y="-220" on="0"/>
        <pt x="-33" y="-195" on="1"/>
        <pt x="-33" y="-181" on="0"/>
        <pt x="-14" y="-147" on="0"/>
        <pt x="12" y="-119" on="1"/>
        <pt x="40" y="-88" on="0"/>
        <pt x="70" y="-68" on="0"/>
        <pt x="82" y="-68" on="1"/>
        <pt x="94" y="-68" on="0"/>
        <pt x="123" y="-81" on="0"/>
        <pt x="156" y="-98" on="0"/>
        <pt x="194" y="-111" on="0"/>
        <pt x="215" y="-111" on="1"/>
        <pt x="244" y="-111" on="0"/>
        <pt x="283" y="-90" on="0"/>
        <pt x="307" y="-60" on="0"/>
        <pt x="317" y="-25" on="0"/>
        <pt x="317" y="-10" on="1"/>
        <pt x="317" y="16" on="0"/>
        <pt x="294" y="94" on="0"/>
        <pt x="267" y="178" on="0"/>
        <pt x="244" y="260" on="0"/>
        <pt x="244" y="289" on="1"/>
        <pt x="244" y="343" on="0"/>
        <pt x="290" y="429" on="0"/>
        <pt x="334" y="463" on="1"/>
        <pt x="356" y="482" on="0"/>
        <pt x="356" y="496" on="1"/>
        <pt x="356" y="513" on="0"/>
        <pt x="332" y="528" on="1"/>
        <pt x="285" y="560" on="0"/>
        <pt x="252" y="638" on="0"/>
        <pt x="252" y="690" on="1"/>
        <pt x="252" y="731" on="0"/>
        <pt x="270" y="809" on="0"/>
        <pt x="293" y="886" on="0"/>
        <pt x="311" y="964" on="0"/>
        <pt x="311" y="1004" on="1"/>
        <pt x="311" y="1038" on="0"/>
        <pt x="296" y="1082" on="0"/>
        <pt x="270" y="1109" on="0"/>
        <pt x="233" y="1120" on="0"/>
        <pt x="211" y="1120" on="1"/>
        <pt x="179" y="1120" on="0"/>
        <pt x="126" y="1095" on="0"/>
      </contour>
    </TTGlyph>
    <TTGlyph name="bracketleft" xMin="164" yMin="-299" xMax="750" yMax="1305">
      <contour>
        <pt x="682" y="-84" on="1"/>
        <pt x="750" y="-84" on="0"/>
        <pt x="750" y="-139" on="1"/>
        <pt x="750" y="-168" on="0"/>
        <pt x="736" y="-212" on="0"/>
        <pt x="714" y="-244" on="0"/>
        <pt x="687" y="-263" on="0"/>
        <pt x="674" y="-266" on="1"/>
        <pt x="589" y="-280" on="0"/>
        <pt x="439" y="-299" on="0"/>
        <pt x="367" y="-299" on="1"/>
        <pt x="322" y="-299" on="0"/>
        <pt x="250" y="-260" on="0"/>
        <pt x="238" y="-213" on="1"/>
        <pt x="206" y="-52" on="0"/>
        <pt x="175" y="276" on="0"/>
        <pt x="172" y="444" on="1"/>
        <pt x="169" y="550" on="0"/>
        <pt x="164" y="758" on="0"/>
        <pt x="164" y="866" on="1"/>
        <pt x="164" y="990" on="0"/>
        <pt x="176" y="1155" on="0"/>
        <pt x="219" y="1255" on="0"/>
        <pt x="305" y="1298" on="0"/>
        <pt x="379" y="1300" on="1"/>
        <pt x="450" y="1300" on="0"/>
        <pt x="597" y="1305" on="0"/>
        <pt x="682" y="1305" on="1"/>
        <pt x="750" y="1305" on="0"/>
        <pt x="750" y="1251" on="1"/>
        <pt x="750" y="1196" on="0"/>
        <pt x="698" y="1122" on="0"/>
        <pt x="657" y="1120" on="1"/>
        <pt x="449" y="1116" on="1"/>
        <pt x="377" y="1116" on="0"/>
        <pt x="377" y="1044" on="1"/>
        <pt x="377" y="1005" on="0"/>
        <pt x="376" y="923" on="0"/>
        <pt x="376" y="818" on="0"/>
        <pt x="375" y="679" on="0"/>
        <pt x="375" y="584" on="1"/>
        <pt x="375" y="537" on="0"/>
        <pt x="377" y="391" on="0"/>
        <pt x="383" y="219" on="0"/>
        <pt x="394" y="35" on="0"/>
        <pt x="403" y="-49" on="1"/>
        <pt x="422" y="-104" on="0"/>
        <pt x="477" y="-104" on="1"/>
        <pt x="528" y="-104" on="0"/>
        <pt x="631" y="-84" on="0"/>
      </contour>
    </TTGlyph>
    <TTGlyph name="bracketright" xMin="-61" yMin="-299" xMax="524" yMax="1305">
      <contour>
        <pt x="6" y="1090" on="1"/>
        <pt x="-61" y="1090" on="0"/>
        <pt x="-61" y="1145" on="1"/>
        <pt x="-61" y="1173" on="0"/>
        <pt x="-47" y="1218" on="0"/>
        <pt x="-25" y="1250" on="0"/>
        <pt x="1" y="1269" on="0"/>
        <pt x="14" y="1272" on="1"/>
        <pt x="99" y="1286" on="0"/>
        <pt x="249" y="1305" on="0"/>
        <pt x="322" y="1305" on="1"/>
        <pt x="366" y="1305" on="0"/>
        <pt x="438" y="1266" on="0"/>
        <pt x="451" y="1219" on="1"/>
        <pt x="483" y="1058" on="0"/>
        <pt x="513" y="729" on="0"/>
        <pt x="516" y="561" on="1"/>
        <pt x="519" y="456" on="0"/>
        <pt x="524" y="248" on="0"/>
        <pt x="524" y="139" on="1"/>
        <pt x="524" y="16" on="0"/>
        <pt x="512" y="-150" on="0"/>
        <pt x="469" y="-250" on="0"/>
        <pt x="383" y="-294" on="0"/>
        <pt x="309" y="-295" on="1"/>
        <pt x="238" y="-295" on="0"/>
        <pt x="91" y="-299" on="0"/>
        <pt x="6" y="-299" on="1"/>
        <pt x="-61" y="-299" on="0"/>
        <pt x="-61" y="-246" on="1"/>
        <pt x="-61" y="-190" on="0"/>
        <pt x="-10" y="-117" on="0"/>
        <pt x="31" y="-115" on="1"/>
        <pt x="240" y="-111" on="1"/>
        <pt x="311" y="-111" on="0"/>
        <pt x="311" y="-39" on="1"/>
        <pt x="311" y="0" on="0"/>
        <pt x="312" y="83" on="0"/>
        <pt x="312" y="188" on="0"/>
        <pt x="313" y="327" on="0"/>
        <pt x="313" y="422" on="1"/>
        <pt x="313" y="469" on="0"/>
        <pt x="311" y="615" on="0"/>
        <pt x="305" y="786" on="0"/>
        <pt x="294" y="970" on="0"/>
        <pt x="285" y="1055" on="1"/>
        <pt x="266" y="1110" on="0"/>
        <pt x="211" y="1110" on="1"/>
        <pt x="160" y="1110" on="0"/>
        <pt x="57" y="1090" on="0"/>
      </contour>
    </TTGlyph>
    <TTGlyph name="breve" xMin="119" yMin="1036" xMax="748" yMax="1350">
      <contour>
        <pt x="125" y="1225" on="1"/>
        <pt x="119" y="1240" on="0"/>
        <pt x="119" y="1255" on="1"/>
        <pt x="119" y="1274" on="0"/>
        <pt x="141" y="1305" on="0"/>
        <pt x="174" y="1326" on="0"/>
        <pt x="215" y="1337" on="0"/>
        <pt x="233" y="1337" on="1"/>
        <pt x="256" y="1337" on="0"/>
        <pt x="289" y="1306" on="0"/>
        <pt x="301" y="1278" on="1"/>
        <pt x="318" y="1243" on="0"/>
        <pt x="379" y="1192" on="0"/>
        <pt x="432" y="1192" on="1"/>
        <pt x="480" y="1192" on="0"/>
        <pt x="553" y="1236" on="0"/>
        <pt x="573" y="1282" on="1"/>
        <pt x="587" y="1314" on="0"/>
        <pt x="619" y="1350" on="0"/>
        <pt x="647" y="1350" on="1"/>
        <pt x="662" y="1350" on="0"/>
        <pt x="697" y="1342" on="0"/>
        <pt x="727" y="1325" on="0"/>
        <pt x="748" y="1298" on="0"/>
        <pt x="748" y="1280" on="1"/>
        <pt x="748" y="1270" on="0"/>
        <pt x="741" y="1251" on="1"/>
        <pt x="723" y="1200" on="0"/>
        <pt x="654" y="1121" on="0"/>
        <pt x="564" y="1065" on="0"/>
        <pt x="460" y="1036" on="0"/>
        <pt x="408" y="1036" on="1"/>
        <pt x="363" y="1036" on="0"/>
        <pt x="277" y="1059" on="0"/>
        <pt x="202" y="1105" on="0"/>
        <pt x="143" y="1177" on="0"/>
      </contour>
    </TTGlyph>
    <TTGlyph name="brokenbar" xMin="154" yMin="-498" xMax="358" yMax="1364">
      <contour>
        <pt x="154" y="1276" on="1"/>
        <pt x="154" y="1316" on="0"/>
        <pt x="230" y="1364" on="0"/>
        <pt x="295" y="1364" on="1"/>
        <pt x="326" y="1364" on="0"/>
        <pt x="358" y="1323" on="0"/>
        <pt x="358" y="1288" on="1"/>
        <pt x="358" y="737" on="1"/>
        <pt x="358" y="697" on="0"/>
        <pt x="282" y="649" on="0"/>
        <pt x="217" y="649" on="1"/>
        <pt x="186" y="649" on="0"/>
        <pt x="154" y="690" on="0"/>
        <pt x="154" y="725" on="1"/>
      </contour>
      <contour>
        <pt x="154" y="170" on="1"/>
        <pt x="154" y="210" on="0"/>
        <pt x="230" y="258" on="0"/>
        <pt x="295" y="258" on="1"/>
        <pt x="326" y="258" on="0"/>
        <pt x="358" y="217" on="0"/>
        <pt x="358" y="182" on="1"/>
        <pt x="358" y="-410" on="1"/>
        <pt x="358" y="-450" on="0"/>
        <pt x="282" y="-498" on="0"/>
        <pt x="217" y="-498" on="1"/>
        <pt x="186" y="-498" on="0"/>
        <pt x="154" y="-457" on="0"/>
        <pt x="154" y="-422" on="1"/>
      </contour>
    </TTGlyph>
    <TTGlyph name="bullet" xMin="121" yMin="276" xMax="627" yMax="688">
      <contour>
        <pt x="395" y="276" on="1"/>
        <pt x="338" y="276" on="0"/>
        <pt x="238" y="308" on="0"/>
        <pt x="164" y="365" on="0"/>
        <pt x="121" y="446" on="0"/>
        <pt x="121" y="494" on="1"/>
        <pt x="121" y="534" on="0"/>
        <pt x="156" y="605" on="0"/>
        <pt x="219" y="658" on="0"/>
        <pt x="308" y="688" on="0"/>
        <pt x="362" y="688" on="1"/>
        <pt x="414" y="688" on="0"/>
        <pt x="509" y="652" on="0"/>
        <pt x="583" y="591" on="0"/>
        <pt x="627" y="509" on="0"/>
        <pt x="627" y="463" on="1"/>
        <pt x="627" y="421" on="0"/>
        <pt x="594" y="352" on="0"/>
        <pt x="534" y="303" on="0"/>
        <pt x="448" y="276" on="0"/>
      </contour>
    </TTGlyph>
    <TTGlyph name="c" xMin="43" yMin="-49" xMax="754" yMax="825">
      <contour>
        <pt x="436" y="825" on="1"/>
        <pt x="488" y="825" on="0"/>
        <pt x="586" y="795" on="0"/>
        <pt x="661" y="744" on="0"/>
        <pt x="707" y="679" on="0"/>
        <pt x="707" y="645" on="1"/>
        <pt x="707" y="623" on="0"/>
        <pt x="689" y="582" on="0"/>
        <pt x="659" y="551" on="0"/>
        <pt x="621" y="532" on="0"/>
        <pt x="600" y="532" on="1"/>
        <pt x="577" y="532" on="0"/>
        <pt x="539" y="567" on="0"/>
        <pt x="496" y="610" on="0"/>
        <pt x="443" y="645" on="0"/>
        <pt x="406" y="645" on="1"/>
        <pt x="370" y="645" on="0"/>
        <pt x="312" y="611" on="0"/>
        <pt x="273" y="550" on="0"/>
        <pt x="252" y="467" on="0"/>
        <pt x="252" y="418" on="1"/>
        <pt x="252" y="278" on="0"/>
        <pt x="358" y="131" on="0"/>
        <pt x="457" y="131" on="1"/>
        <pt x="504" y="131" on="0"/>
        <pt x="571" y="161" on="0"/>
        <pt x="622" y="197" on="0"/>
        <pt x="664" y="227" on="0"/>
        <pt x="686" y="227" on="1"/>
        <pt x="698" y="227" on="0"/>
        <pt x="722" y="212" on="0"/>
        <pt x="741" y="189" on="0"/>
        <pt x="754" y="161" on="0"/>
        <pt x="754" y="147" on="1"/>
        <pt x="754" y="114" on="0"/>
        <pt x="689" y="44" on="0"/>
        <pt x="587" y="-13" on="0"/>
        <pt x="462" y="-49" on="0"/>
        <pt x="403" y="-49" on="1"/>
        <pt x="324" y="-49" on="0"/>
        <pt x="192" y="12" on="0"/>
        <pt x="96" y="121" on="0"/>
        <pt x="43" y="273" on="0"/>
        <pt x="43" y="365" on="1"/>
        <pt x="43" y="465" on="0"/>
        <pt x="102" y="633" on="0"/>
        <pt x="207" y="756" on="0"/>
        <pt x="351" y="825" on="0"/>
      </contour>
    </TTGlyph>
    <TTGlyph name="caron" xMin="113" yMin="942" xMax="745" yMax="1274">
      <contour>
        <pt x="594" y="1221" on="1"/>
        <pt x="609" y="1239" on="0"/>
        <pt x="643" y="1260" on="0"/>
        <pt x="662" y="1260" on="1"/>
        <pt x="678" y="1260" on="0"/>
        <pt x="708" y="1249" on="0"/>
        <pt x="731" y="1230" on="0"/>
        <pt x="745" y="1206" on="0"/>
        <pt x="745" y="1194" on="1"/>
        <pt x="745" y="1176" on="0"/>
        <pt x="714" y="1124" on="0"/>
        <pt x="665" y="1068" on="0"/>
        <pt x="604" y="1013" on="0"/>
        <pt x="542" y="969" on="0"/>
        <pt x="486" y="942" on="0"/>
        <pt x="467" y="942" on="1"/>
        <pt x="439" y="942" on="0"/>
        <pt x="365" y="967" on="0"/>
        <pt x="287" y="1007" on="0"/>
        <pt x="210" y="1058" on="0"/>
        <pt x="150" y="1111" on="0"/>
        <pt x="113" y="1161" on="0"/>
        <pt x="113" y="1180" on="1"/>
        <pt x="113" y="1196" on="0"/>
        <pt x="134" y="1230" on="0"/>
        <pt x="166" y="1257" on="0"/>
        <pt x="201" y="1274" on="0"/>
        <pt x="215" y="1274" on="1"/>
        <pt x="229" y="1274" on="0"/>
        <pt x="267" y="1251" on="0"/>
        <pt x="312" y="1218" on="0"/>
        <pt x="360" y="1178" on="0"/>
        <pt x="407" y="1145" on="0"/>
        <pt x="451" y="1122" on="0"/>
        <pt x="469" y="1122" on="1"/>
        <pt x="485" y="1122" on="0"/>
        <pt x="518" y="1141" on="0"/>
        <pt x="551" y="1170" on="0"/>
        <pt x="581" y="1205" on="0"/>
      </contour>
    </TTGlyph>
    <TTGlyph name="ccedilla" xMin="43" yMin="-512" xMax="754" yMax="825">
      <component glyphName="c" x="0" y="0" flags="0x1204"/>
      <component glyphName="cedilla" x="-44" y="0" flags="0x1004"/>
    </TTGlyph>
    <TTGlyph name="cedilla" xMin="201" yMin="-512" xMax="666" yMax="45">
      <contour>
        <pt x="373" y="-4" on="1"/>
        <pt x="382" y="22" on="0"/>
        <pt x="433" y="45" on="0"/>
        <pt x="471" y="45" on="1"/>
        <pt x="503" y="45" on="0"/>
        <pt x="539" y="17" on="0"/>
        <pt x="539" y="-8" on="1"/>
        <pt x="539" y="-30" on="0"/>
        <pt x="522" y="-72" on="0"/>
        <pt x="522" y="-84" on="1"/>
        <pt x="522" y="-99" on="0"/>
        <pt x="548" y="-123" on="0"/>
        <pt x="571" y="-137" on="1"/>
        <pt x="622" y="-168" on="0"/>
        <pt x="666" y="-251" on="0"/>
        <pt x="666" y="-291" on="1"/>
        <pt x="666" y="-327" on="0"/>
        <pt x="628" y="-405" on="0"/>
        <pt x="558" y="-470" on="0"/>
        <pt x="460" y="-512" on="0"/>
        <pt x="401" y="-512" on="1"/>
        <pt x="371" y="-512" on="0"/>
        <pt x="301" y="-491" on="0"/>
        <pt x="241" y="-456" on="0"/>
        <pt x="201" y="-413" on="0"/>
        <pt x="201" y="-391" on="1"/>
        <pt x="201" y="-373" on="0"/>
        <pt x="227" y="-337" on="0"/>
        <pt x="263" y="-308" on="0"/>
        <pt x="298" y="-289" on="0"/>
        <pt x="307" y="-289" on="1"/>
        <pt x="316" y="-289" on="0"/>
        <pt x="341" y="-308" on="0"/>
        <pt x="374" y="-331" on="0"/>
        <pt x="413" y="-350" on="0"/>
        <pt x="434" y="-350" on="1"/>
        <pt x="489" y="-350" on="0"/>
        <pt x="489" y="-311" on="1"/>
        <pt x="489" y="-297" on="0"/>
        <pt x="462" y="-269" on="0"/>
        <pt x="440" y="-258" on="1"/>
        <pt x="412" y="-243" on="0"/>
        <pt x="375" y="-218" on="0"/>
        <pt x="354" y="-192" on="0"/>
        <pt x="346" y="-163" on="0"/>
        <pt x="346" y="-145" on="1"/>
        <pt x="346" y="-114" on="0"/>
        <pt x="359" y="-46" on="0"/>
      </contour>
    </TTGlyph>
    <TTGlyph name="cent" xMin="43" yMin="-358" xMax="754" yMax="1143">
      <contour>
        <pt x="395" y="1069" on="1"/>
        <pt x="398" y="1130" on="0"/>
        <pt x="459" y="1139" on="1"/>
        <pt x="510" y="1143" on="1"/>
        <pt x="536" y="1143" on="0"/>
        <pt x="563" y="1114" on="0"/>
        <pt x="563" y="1090" on="1"/>
        <pt x="548" y="806" on="1"/>
        <pt x="582" y="795" on="0"/>
        <pt x="640" y="760" on="0"/>
        <pt x="683" y="718" on="0"/>
        <pt x="707" y="670" on="0"/>
        <pt x="707" y="645" on="1"/>
        <pt x="707" y="623" on="0"/>
        <pt x="689" y="582" on="0"/>
        <pt x="659" y="551" on="0"/>
        <pt x="621" y="532" on="0"/>
        <pt x="600" y="532" on="1"/>
        <pt x="582" y="532" on="0"/>
        <pt x="552" y="554" on="0"/>
        <pt x="536" y="570" on="1"/>
        <pt x="514" y="138" on="1"/>
        <pt x="545" y="147" on="0"/>
        <pt x="593" y="177" on="0"/>
        <pt x="633" y="206" on="0"/>
        <pt x="668" y="227" on="0"/>
        <pt x="686" y="227" on="1"/>
        <pt x="698" y="227" on="0"/>
        <pt x="722" y="212" on="0"/>
        <pt x="741" y="189" on="0"/>
        <pt x="754" y="161" on="0"/>
        <pt x="754" y="147" on="1"/>
        <pt x="754" y="121" on="0"/>
        <pt x="712" y="66" on="0"/>
        <pt x="643" y="16" on="0"/>
        <pt x="553" y="-24" on="0"/>
        <pt x="505" y="-36" on="1"/>
        <pt x="492" y="-285" on="1"/>
        <pt x="488" y="-345" on="0"/>
        <pt x="428" y="-354" on="1"/>
        <pt x="375" y="-358" on="1"/>
        <pt x="349" y="-358" on="0"/>
        <pt x="324" y="-324" on="0"/>
        <pt x="324" y="-293" on="1"/>
        <pt x="337" y="-43" on="1"/>
        <pt x="271" y="-31" on="0"/>
        <pt x="163" y="38" on="0"/>
        <pt x="86" y="144" on="0"/>
        <pt x="43" y="283" on="0"/>
        <pt x="43" y="365" on="1"/>
        <pt x="43" y="456" on="0"/>
        <pt x="93" y="614" on="0"/>
        <pt x="183" y="734" on="0"/>
        <pt x="307" y="810" on="0"/>
        <pt x="382" y="821" on="1"/>
      </contour>
      <contour>
        <pt x="252" y="418" on="1"/>
        <pt x="252" y="229" on="0"/>
        <pt x="347" y="162" on="1"/>
        <pt x="372" y="640" on="1"/>
        <pt x="343" y="633" on="0"/>
        <pt x="299" y="594" on="0"/>
        <pt x="268" y="536" on="0"/>
        <pt x="252" y="461" on="0"/>
      </contour>
    </TTGlyph>
    <TTGlyph name="circumflex" xMin="117" yMin="991" xMax="750" yMax="1323">
      <contour>
        <pt x="268" y="1044" on="1"/>
        <pt x="253" y="1026" on="0"/>
        <pt x="219" y="1006" on="0"/>
        <pt x="201" y="1006" on="1"/>
        <pt x="185" y="1006" on="0"/>
        <pt x="155" y="1019" on="0"/>
        <pt x="131" y="1039" on="0"/>
        <pt x="117" y="1065" on="0"/>
        <pt x="117" y="1077" on="1"/>
        <pt x="117" y="1093" on="0"/>
        <pt x="148" y="1142" on="0"/>
        <pt x="197" y="1197" on="0"/>
        <pt x="258" y="1251" on="0"/>
        <pt x="320" y="1295" on="0"/>
        <pt x="376" y="1323" on="0"/>
        <pt x="395" y="1323" on="1"/>
        <pt x="423" y="1323" on="0"/>
        <pt x="497" y="1298" on="0"/>
        <pt x="576" y="1258" on="0"/>
        <pt x="652" y="1207" on="0"/>
        <pt x="713" y="1154" on="0"/>
        <pt x="750" y="1104" on="0"/>
        <pt x="750" y="1085" on="1"/>
        <pt x="750" y="1069" on="0"/>
        <pt x="728" y="1035" on="0"/>
        <pt x="697" y="1008" on="0"/>
        <pt x="661" y="991" on="0"/>
        <pt x="647" y="991" on="1"/>
        <pt x="633" y="991" on="0"/>
        <pt x="595" y="1014" on="0"/>
        <pt x="550" y="1047" on="0"/>
        <pt x="502" y="1087" on="0"/>
        <pt x="455" y="1120" on="0"/>
        <pt x="411" y="1143" on="0"/>
        <pt x="393" y="1143" on="1"/>
        <pt x="377" y="1143" on="0"/>
        <pt x="344" y="1124" on="0"/>
        <pt x="311" y="1095" on="0"/>
        <pt x="281" y="1060" on="0"/>
      </contour>
    </TTGlyph>
    <TTGlyph name="colon" xMin="197" yMin="18" xMax="453" yMax="739">
      <component glyphName="period" x="0" y="0" flags="0x1204"/>
      <component glyphName="period" x="0" y="512" flags="0x1004"/>
    </TTGlyph>
    <TTGlyph name="comma" xMin="94" yMin="-373" xMax="496" yMax="211">
      <contour>
        <pt x="496" y="121" on="1"/>
        <pt x="496" y="110" on="0"/>
        <pt x="466" y="28" on="0"/>
        <pt x="417" y="-82" on="0"/>
        <pt x="353" y="-204" on="0"/>
        <pt x="287" y="-306" on="0"/>
        <pt x="224" y="-373" on="0"/>
        <pt x="199" y="-373" on="1"/>
        <pt x="187" y="-373" on="0"/>
        <pt x="151" y="-359" on="0"/>
        <pt x="118" y="-338" on="0"/>
        <pt x="94" y="-313" on="0"/>
        <pt x="94" y="-301" on="1"/>
        <pt x="94" y="-291" on="0"/>
        <pt x="135" y="-212" on="0"/>
        <pt x="195" y="-87" on="0"/>
        <pt x="263" y="75" on="0"/>
        <pt x="289" y="168" on="1"/>
        <pt x="295" y="188" on="0"/>
        <pt x="317" y="211" on="0"/>
        <pt x="336" y="211" on="1"/>
        <pt x="354" y="211" on="0"/>
        <pt x="408" y="196" on="0"/>
        <pt x="459" y="171" on="0"/>
        <pt x="496" y="139" on="0"/>
      </contour>
    </TTGlyph>
    <TTGlyph name="commaaccent" xMin="94" yMin="-711" xMax="496" yMax="-127">
      <contour>
        <pt x="496" y="-217" on="1"/>
        <pt x="496" y="-228" on="0"/>
        <pt x="466" y="-310" on="0"/>
        <pt x="417" y="-420" on="0"/>
        <pt x="353" y="-542" on="0"/>
        <pt x="287" y="-644" on="0"/>
        <pt x="224" y="-711" on="0"/>
        <pt x="199" y="-711" on="1"/>
        <pt x="187" y="-711" on="0"/>
        <pt x="151" y="-697" on="0"/>
        <pt x="118" y="-676" on="0"/>
        <pt x="94" y="-651" on="0"/>
        <pt x="94" y="-639" on="1"/>
        <pt x="94" y="-629" on="0"/>
        <pt x="135" y="-550" on="0"/>
        <pt x="195" y="-425" on="0"/>
        <pt x="263" y="-263" on="0"/>
        <pt x="289" y="-170" on="1"/>
        <pt x="295" y="-150" on="0"/>
        <pt x="317" y="-127" on="0"/>
        <pt x="336" y="-127" on="1"/>
        <pt x="354" y="-127" on="0"/>
        <pt x="408" y="-142" on="0"/>
        <pt x="459" y="-167" on="0"/>
        <pt x="496" y="-199" on="0"/>
      </contour>
    </TTGlyph>
    <TTGlyph name="copyright" xMin="70" yMin="-178" xMax="1317" yMax="985">
      <contour>
        <pt x="618" y="-178" on="1"/>
        <pt x="498" y="-178" on="0"/>
        <pt x="296" y="-97" on="0"/>
        <pt x="151" y="49" on="0"/>
        <pt x="70" y="253" on="0"/>
        <pt x="70" y="375" on="1"/>
        <pt x="70" y="441" on="0"/>
        <pt x="93" y="562" on="0"/>
        <pt x="113" y="614" on="1"/>
        <pt x="119" y="627" on="0"/>
        <pt x="123" y="639" on="0"/>
        <pt x="123" y="645" on="1"/>
        <pt x="123" y="656" on="0"/>
        <pt x="111" y="676" on="0"/>
        <pt x="98" y="697" on="0"/>
        <pt x="86" y="722" on="0"/>
        <pt x="86" y="737" on="1"/>
        <pt x="86" y="768" on="0"/>
        <pt x="135" y="828" on="0"/>
        <pt x="220" y="884" on="0"/>
        <pt x="337" y="931" on="0"/>
        <pt x="473" y="965" on="0"/>
        <pt x="624" y="985" on="0"/>
        <pt x="700" y="985" on="1"/>
        <pt x="842" y="985" on="0"/>
        <pt x="1070" y="912" on="0"/>
        <pt x="1231" y="777" on="0"/>
        <pt x="1317" y="583" on="0"/>
        <pt x="1317" y="463" on="1"/>
        <pt x="1317" y="373" on="0"/>
        <pt x="1268" y="208" on="0"/>
        <pt x="1178" y="65" on="0"/>
        <pt x="1052" y="-51" on="0"/>
        <pt x="897" y="-133" on="0"/>
        <pt x="716" y="-178" on="0"/>
      </contour>
      <contour>
        <pt x="1161" y="422" on="1"/>
        <pt x="1161" y="522" on="0"/>
        <pt x="1093" y="680" on="0"/>
        <pt x="968" y="790" on="0"/>
        <pt x="790" y="848" on="0"/>
        <pt x="680" y="848" on="1"/>
        <pt x="566" y="848" on="0"/>
        <pt x="396" y="786" on="0"/>
        <pt x="282" y="674" on="0"/>
        <pt x="225" y="517" on="0"/>
        <pt x="225" y="422" on="1"/>
        <pt x="225" y="319" on="0"/>
        <pt x="289" y="148" on="0"/>
        <pt x="404" y="26" on="0"/>
        <pt x="565" y="-41" on="0"/>
        <pt x="662" y="-41" on="1"/>
        <pt x="771" y="-41" on="0"/>
        <pt x="955" y="27" on="0"/>
        <pt x="1087" y="150" on="0"/>
        <pt x="1161" y="320" on="0"/>
      </contour>
      <contour>
        <pt x="618" y="602" on="1"/>
        <pt x="595" y="602" on="0"/>
        <pt x="554" y="576" on="0"/>
        <pt x="524" y="530" on="0"/>
        <pt x="506" y="465" on="0"/>
        <pt x="506" y="426" on="1"/>
        <pt x="506" y="388" on="0"/>
        <pt x="539" y="325" on="0"/>
        <pt x="598" y="278" on="0"/>
        <pt x="679" y="252" on="0"/>
        <pt x="727" y="252" on="1"/>
        <pt x="762" y="252" on="0"/>
        <pt x="822" y="263" on="0"/>
        <pt x="865" y="282" on="0"/>
        <pt x="889" y="305" on="0"/>
        <pt x="889" y="317" on="1"/>
        <pt x="889" y="328" on="0"/>
        <pt x="879" y="343" on="0"/>
        <pt x="866" y="358" on="0"/>
        <pt x="856" y="378" on="0"/>
        <pt x="856" y="393" on="1"/>
        <pt x="856" y="408" on="0"/>
        <pt x="873" y="436" on="0"/>
        <pt x="901" y="459" on="0"/>
        <pt x="938" y="473" on="0"/>
        <pt x="958" y="473" on="1"/>
        <pt x="982" y="473" on="0"/>
        <pt x="1023" y="451" on="0"/>
        <pt x="1052" y="414" on="0"/>
        <pt x="1069" y="367" on="0"/>
        <pt x="1069" y="342" on="1"/>
        <pt x="1069" y="292" on="0"/>
        <pt x="1013" y="206" on="0"/>
        <pt x="917" y="142" on="0"/>
        <pt x="787" y="106" on="0"/>
        <pt x="713" y="106" on="1"/>
        <pt x="630" y="106" on="0"/>
        <pt x="489" y="152" on="0"/>
        <pt x="386" y="233" on="0"/>
        <pt x="328" y="343" on="0"/>
        <pt x="328" y="406" on="1"/>
        <pt x="328" y="473" on="0"/>
        <pt x="379" y="596" on="0"/>
        <pt x="468" y="691" on="0"/>
        <pt x="586" y="748" on="0"/>
        <pt x="653" y="748" on="1"/>
        <pt x="684" y="748" on="0"/>
        <pt x="740" y="732" on="0"/>
        <pt x="782" y="705" on="0"/>
        <pt x="807" y="669" on="0"/>
        <pt x="807" y="649" on="1"/>
        <pt x="807" y="633" on="0"/>
        <pt x="791" y="601" on="0"/>
        <pt x="763" y="575" on="0"/>
        <pt x="726" y="559" on="0"/>
        <pt x="705" y="559" on="1"/>
        <pt x="685" y="559" on="0"/>
        <pt x="660" y="572" on="0"/>
        <pt x="643" y="589" on="0"/>
        <pt x="628" y="602" on="0"/>
      </contour>
    </TTGlyph>
    <TTGlyph name="currency" xMin="-8" yMin="-18" xMax="860" yMax="879">
      <contour>
        <pt x="61" y="399" on="1"/>
        <pt x="61" y="488" on="0"/>
        <pt x="104" y="563" on="1"/>
        <pt x="115" y="582" on="0"/>
        <pt x="115" y="596" on="1"/>
        <pt x="115" y="617" on="0"/>
        <pt x="96" y="635" on="1"/>
        <pt x="18" y="715" on="1"/>
        <pt x="4" y="727" on="0"/>
        <pt x="-8" y="754" on="0"/>
        <pt x="-8" y="768" on="1"/>
        <pt x="-8" y="783" on="0"/>
        <pt x="8" y="813" on="0"/>
        <pt x="27" y="825" on="1"/>
        <pt x="41" y="838" on="1"/>
        <pt x="69" y="860" on="0"/>
        <pt x="96" y="860" on="1"/>
        <pt x="129" y="860" on="0"/>
        <pt x="158" y="831" on="1"/>
        <pt x="240" y="748" on="1"/>
        <pt x="260" y="727" on="0"/>
        <pt x="283" y="727" on="1"/>
        <pt x="294" y="727" on="0"/>
        <pt x="309" y="733" on="1"/>
        <pt x="375" y="756" on="0"/>
        <pt x="449" y="756" on="1"/>
        <pt x="498" y="756" on="0"/>
        <pt x="547" y="745" on="1"/>
        <pt x="552" y="743" on="0"/>
        <pt x="562" y="743" on="0"/>
        <pt x="567" y="743" on="1"/>
        <pt x="593" y="743" on="0"/>
        <pt x="616" y="766" on="1"/>
        <pt x="696" y="850" on="1"/>
        <pt x="710" y="864" on="0"/>
        <pt x="738" y="879" on="0"/>
        <pt x="752" y="879" on="1"/>
        <pt x="782" y="879" on="0"/>
        <pt x="809" y="846" on="1"/>
        <pt x="821" y="831" on="1"/>
        <pt x="846" y="805" on="0"/>
        <pt x="846" y="774" on="1"/>
        <pt x="846" y="759" on="0"/>
        <pt x="833" y="729" on="0"/>
        <pt x="819" y="715" on="1"/>
        <pt x="791" y="684" on="1"/>
        <pt x="783" y="675" on="0"/>
        <pt x="774" y="659" on="0"/>
        <pt x="774" y="649" on="1"/>
        <pt x="774" y="633" on="0"/>
        <pt x="791" y="610" on="1"/>
        <pt x="860" y="529" on="0"/>
        <pt x="860" y="424" on="1"/>
        <pt x="860" y="377" on="0"/>
        <pt x="826" y="289" on="0"/>
        <pt x="795" y="252" on="1"/>
        <pt x="778" y="230" on="0"/>
        <pt x="778" y="213" on="1"/>
        <pt x="778" y="197" on="0"/>
        <pt x="795" y="178" on="1"/>
        <pt x="836" y="135" on="1"/>
        <pt x="860" y="108" on="0"/>
        <pt x="860" y="82" on="1"/>
        <pt x="860" y="46" on="0"/>
        <pt x="815" y="20" on="1"/>
        <pt x="797" y="10" on="1"/>
        <pt x="773" y="-4" on="0"/>
        <pt x="750" y="-4" on="1"/>
        <pt x="712" y="-4" on="0"/>
        <pt x="682" y="33" on="1"/>
        <pt x="670" y="47" on="0"/>
        <pt x="642" y="77" on="0"/>
        <pt x="627" y="92" on="1"/>
        <pt x="604" y="113" on="0"/>
        <pt x="584" y="113" on="1"/>
        <pt x="577" y="113" on="0"/>
        <pt x="565" y="111" on="0"/>
        <pt x="559" y="109" on="1"/>
        <pt x="489" y="92" on="0"/>
        <pt x="418" y="92" on="1"/>
        <pt x="354" y="92" on="0"/>
        <pt x="299" y="104" on="1"/>
        <pt x="293" y="106" on="0"/>
        <pt x="281" y="109" on="0"/>
        <pt x="274" y="109" on="1"/>
        <pt x="253" y="109" on="0"/>
        <pt x="231" y="88" on="1"/>
        <pt x="154" y="8" on="1"/>
        <pt x="127" y="-18" on="0"/>
        <pt x="98" y="-18" on="1"/>
        <pt x="81" y="-18" on="0"/>
        <pt x="49" y="3" on="0"/>
        <pt x="37" y="25" on="1"/>
        <pt x="27" y="43" on="1"/>
        <pt x="10" y="71" on="0"/>
        <pt x="10" y="94" on="1"/>
        <pt x="10" y="128" on="0"/>
        <pt x="43" y="158" on="1"/>
        <pt x="80" y="195" on="1"/>
        <pt x="98" y="216" on="0"/>
        <pt x="98" y="233" on="1"/>
        <pt x="98" y="241" on="0"/>
        <pt x="93" y="254" on="0"/>
        <pt x="90" y="262" on="1"/>
        <pt x="76" y="291" on="0"/>
        <pt x="61" y="361" on="0"/>
      </contour>
      <contour>
        <pt x="682" y="399" on="1"/>
        <pt x="682" y="438" on="0"/>
        <pt x="640" y="506" on="0"/>
        <pt x="568" y="557" on="0"/>
        <pt x="472" y="586" on="0"/>
        <pt x="418" y="586" on="1"/>
        <pt x="381" y="586" on="0"/>
        <pt x="317" y="563" on="0"/>
        <pt x="271" y="522" on="0"/>
        <pt x="244" y="467" on="0"/>
        <pt x="244" y="436" on="1"/>
        <pt x="244" y="351" on="0"/>
        <pt x="345" y="260" on="0"/>
        <pt x="436" y="260" on="1"/>
        <pt x="487" y="260" on="0"/>
        <pt x="576" y="282" on="0"/>
        <pt x="643" y="319" on="0"/>
        <pt x="682" y="370" on="0"/>
      </contour>
    </TTGlyph>
    <TTGlyph name="d" xMin="63" yMin="-61" xMax="1335" yMax="1178">
      <contour>
        <pt x="752" y="731" on="1"/>
        <pt x="756" y="729" on="0"/>
        <pt x="764" y="729" on="1"/>
        <pt x="786" y="729" on="0"/>
        <pt x="786" y="758" on="1"/>
        <pt x="786" y="1069" on="1"/>
        <pt x="786" y="1128" on="0"/>
        <pt x="839" y="1178" on="0"/>
        <pt x="901" y="1178" on="1"/>
        <pt x="964" y="1178" on="0"/>
        <pt x="1016" y="1126" on="0"/>
        <pt x="1016" y="1063" on="1"/>
        <pt x="1016" y="1039" on="0"/>
        <pt x="1010" y="946" on="0"/>
        <pt x="1003" y="828" on="0"/>
        <pt x="997" y="693" on="0"/>
        <pt x="997" y="627" on="1"/>
        <pt x="997" y="525" on="0"/>
        <pt x="1025" y="377" on="0"/>
        <pt x="1077" y="280" on="0"/>
        <pt x="1149" y="233" on="0"/>
        <pt x="1194" y="233" on="1"/>
        <pt x="1219" y="233" on="0"/>
        <pt x="1260" y="246" on="0"/>
        <pt x="1288" y="246" on="1"/>
        <pt x="1308" y="246" on="0"/>
        <pt x="1335" y="205" on="0"/>
        <pt x="1335" y="176" on="1"/>
        <pt x="1335" y="150" on="0"/>
        <pt x="1304" y="104" on="0"/>
        <pt x="1251" y="70" on="0"/>
        <pt x="1181" y="51" on="0"/>
        <pt x="1143" y="51" on="1"/>
        <pt x="1061" y="51" on="0"/>
        <pt x="925" y="152" on="0"/>
        <pt x="891" y="256" on="1"/>
        <pt x="888" y="272" on="0"/>
        <pt x="881" y="272" on="1"/>
        <pt x="873" y="272" on="0"/>
        <pt x="868" y="256" on="1"/>
        <pt x="841" y="183" on="0"/>
        <pt x="754" y="66" on="0"/>
        <pt x="639" y="-17" on="0"/>
        <pt x="502" y="-61" on="0"/>
        <pt x="426" y="-61" on="1"/>
        <pt x="346" y="-61" on="0"/>
        <pt x="213" y="-8" on="0"/>
        <pt x="117" y="87" on="0"/>
        <pt x="63" y="216" on="0"/>
        <pt x="63" y="291" on="1"/>
        <pt x="63" y="387" on="0"/>
        <pt x="143" y="557" on="0"/>
        <pt x="280" y="684" on="0"/>
        <pt x="462" y="758" on="0"/>
        <pt x="565" y="758" on="1"/>
        <pt x="607" y="758" on="0"/>
        <pt x="701" y="745" on="0"/>
      </contour>
      <contour>
        <pt x="465" y="119" on="1"/>
        <pt x="522" y="119" on="0"/>
        <pt x="611" y="169" on="0"/>
        <pt x="680" y="246" on="0"/>
        <pt x="728" y="339" on="0"/>
        <pt x="758" y="427" on="0"/>
        <pt x="772" y="497" on="0"/>
        <pt x="772" y="512" on="1"/>
        <pt x="772" y="523" on="0"/>
        <pt x="760" y="540" on="0"/>
        <pt x="748" y="545" on="1"/>
        <pt x="721" y="552" on="0"/>
        <pt x="663" y="563" on="0"/>
        <pt x="607" y="571" on="0"/>
        <pt x="556" y="575" on="0"/>
        <pt x="535" y="575" on="1"/>
        <pt x="475" y="575" on="0"/>
        <pt x="377" y="539" on="0"/>
        <pt x="308" y="473" on="0"/>
        <pt x="270" y="382" on="0"/>
        <pt x="270" y="328" on="1"/>
        <pt x="270" y="280" on="0"/>
        <pt x="299" y="203" on="0"/>
        <pt x="350" y="149" on="0"/>
        <pt x="422" y="119" on="0"/>
      </contour>
    </TTGlyph>
    <TTGlyph name="degree" xMin="57" yMin="461" xMax="864" yMax="1133">
      <contour>
        <pt x="57" y="772" on="1"/>
        <pt x="57" y="847" on="0"/>
        <pt x="118" y="979" on="0"/>
        <pt x="223" y="1077" on="0"/>
        <pt x="366" y="1133" on="0"/>
        <pt x="449" y="1133" on="1"/>
        <pt x="536" y="1133" on="0"/>
        <pt x="687" y="1080" on="0"/>
        <pt x="799" y="989" on="0"/>
        <pt x="864" y="867" on="0"/>
        <pt x="864" y="797" on="1"/>
        <pt x="864" y="728" on="0"/>
        <pt x="793" y="606" on="0"/>
        <pt x="672" y="515" on="0"/>
        <pt x="509" y="461" on="0"/>
        <pt x="418" y="461" on="1"/>
        <pt x="337" y="461" on="0"/>
        <pt x="203" y="505" on="0"/>
        <pt x="109" y="587" on="0"/>
        <pt x="57" y="701" on="0"/>
      </contour>
      <contour>
        <pt x="684" y="772" on="1"/>
        <pt x="684" y="810" on="0"/>
        <pt x="642" y="879" on="0"/>
        <pt x="569" y="931" on="0"/>
        <pt x="472" y="961" on="0"/>
        <pt x="418" y="961" on="1"/>
        <pt x="380" y="961" on="0"/>
        <pt x="316" y="937" on="0"/>
        <pt x="269" y="896" on="0"/>
        <pt x="242" y="840" on="0"/>
        <pt x="242" y="809" on="1"/>
        <pt x="242" y="724" on="0"/>
        <pt x="343" y="631" on="0"/>
        <pt x="436" y="631" on="1"/>
        <pt x="487" y="631" on="0"/>
        <pt x="578" y="653" on="0"/>
        <pt x="645" y="691" on="0"/>
        <pt x="684" y="743" on="0"/>
      </contour>
    </TTGlyph>
    <TTGlyph name="dieresis" xMin="131" yMin="979" xMax="735" yMax="1188">
      <contour>
        <pt x="270" y="979" on="1"/>
        <pt x="241" y="979" on="0"/>
        <pt x="190" y="996" on="0"/>
        <pt x="153" y="1027" on="0"/>
        <pt x="131" y="1069" on="0"/>
        <pt x="131" y="1094" on="1"/>
        <pt x="131" y="1136" on="0"/>
        <pt x="198" y="1188" on="0"/>
        <pt x="254" y="1188" on="1"/>
        <pt x="280" y="1188" on="0"/>
        <pt x="328" y="1169" on="0"/>
        <pt x="365" y="1137" on="0"/>
        <pt x="387" y="1094" on="0"/>
        <pt x="387" y="1071" on="1"/>
        <pt x="387" y="1028" on="0"/>
        <pt x="324" y="979" on="0"/>
      </contour>
      <contour>
        <pt x="618" y="979" on="1"/>
        <pt x="589" y="979" on="0"/>
        <pt x="538" y="996" on="0"/>
        <pt x="501" y="1027" on="0"/>
        <pt x="479" y="1069" on="0"/>
        <pt x="479" y="1094" on="1"/>
        <pt x="479" y="1136" on="0"/>
        <pt x="546" y="1188" on="0"/>
        <pt x="602" y="1188" on="1"/>
        <pt x="628" y="1188" on="0"/>
        <pt x="676" y="1169" on="0"/>
        <pt x="713" y="1137" on="0"/>
        <pt x="735" y="1094" on="0"/>
        <pt x="735" y="1071" on="1"/>
        <pt x="735" y="1028" on="0"/>
        <pt x="672" y="979" on="0"/>
      </contour>
    </TTGlyph>
    <TTGlyph name="divide" xMin="18" yMin="109" xMax="978" yMax="952">
      <contour>
        <pt x="479" y="743" on="1"/>
        <pt x="450" y="743" on="0"/>
        <pt x="399" y="761" on="0"/>
        <pt x="361" y="792" on="0"/>
        <pt x="340" y="834" on="0"/>
        <pt x="340" y="858" on="1"/>
        <pt x="340" y="900" on="0"/>
        <pt x="407" y="952" on="0"/>
        <pt x="463" y="952" on="1"/>
        <pt x="489" y="952" on="0"/>
        <pt x="537" y="933" on="0"/>
        <pt x="574" y="901" on="0"/>
        <pt x="596" y="859" on="0"/>
        <pt x="596" y="836" on="1"/>
        <pt x="596" y="792" on="0"/>
        <pt x="533" y="743" on="0"/>
      </contour>
      <contour>
        <pt x="479" y="109" on="1"/>
        <pt x="450" y="109" on="0"/>
        <pt x="399" y="126" on="0"/>
        <pt x="361" y="157" on="0"/>
        <pt x="340" y="199" on="0"/>
        <pt x="340" y="223" on="1"/>
        <pt x="340" y="265" on="0"/>
        <pt x="407" y="317" on="0"/>
        <pt x="463" y="317" on="1"/>
        <pt x="489" y="317" on="0"/>
        <pt x="537" y="298" on="0"/>
        <pt x="574" y="266" on="0"/>
        <pt x="596" y="224" on="0"/>
        <pt x="596" y="201" on="1"/>
        <pt x="596" y="157" on="0"/>
        <pt x="533" y="109" on="0"/>
      </contour>
      <contour>
        <pt x="100" y="401" on="1"/>
        <pt x="55" y="401" on="0"/>
        <pt x="18" y="450" on="0"/>
        <pt x="29" y="494" on="1"/>
        <pt x="35" y="514" on="1"/>
        <pt x="50" y="586" on="0"/>
        <pt x="125" y="586" on="1"/>
        <pt x="318" y="589" on="0"/>
        <pt x="702" y="611" on="0"/>
        <pt x="895" y="621" on="1"/>
        <pt x="937" y="623" on="0"/>
        <pt x="978" y="581" on="0"/>
        <pt x="975" y="539" on="1"/>
        <pt x="973" y="520" on="1"/>
        <pt x="970" y="441" on="0"/>
        <pt x="891" y="438" on="1"/>
        <pt x="693" y="429" on="0"/>
        <pt x="298" y="405" on="0"/>
      </contour>
    </TTGlyph>
    <TTGlyph name="dollar" xMin="121" yMin="-256" xMax="922" yMax="1245">
      <contour>
        <pt x="461" y="1171" on="1"/>
        <pt x="462" y="1186" on="0"/>
        <pt x="472" y="1212" on="0"/>
        <pt x="497" y="1233" on="0"/>
        <pt x="539" y="1245" on="0"/>
        <pt x="571" y="1245" on="1"/>
        <pt x="597" y="1245" on="0"/>
        <pt x="629" y="1212" on="0"/>
        <pt x="629" y="1180" on="1"/>
        <pt x="621" y="1036" on="1"/>
        <pt x="686" y="1028" on="0"/>
        <pt x="762" y="998" on="0"/>
        <pt x="762" y="975" on="1"/>
        <pt x="762" y="966" on="0"/>
        <pt x="756" y="941" on="0"/>
        <pt x="743" y="913" on="1"/>
        <pt x="729" y="887" on="0"/>
        <pt x="698" y="862" on="0"/>
        <pt x="672" y="862" on="1"/>
        <pt x="612" y="862" on="1"/>
        <pt x="600" y="635" on="1"/>
        <pt x="654" y="600" on="0"/>
        <pt x="769" y="517" on="0"/>
        <pt x="862" y="421" on="0"/>
        <pt x="922" y="314" on="0"/>
        <pt x="922" y="256" on="1"/>
        <pt x="922" y="191" on="0"/>
        <pt x="862" y="92" on="0"/>
        <pt x="769" y="26" on="0"/>
        <pt x="656" y="-8" on="0"/>
        <pt x="602" y="-8" on="1"/>
        <pt x="593" y="-8" on="0"/>
        <pt x="575" y="-8" on="0"/>
        <pt x="565" y="-6" on="1"/>
        <pt x="557" y="-182" on="1"/>
        <pt x="556" y="-197" on="0"/>
        <pt x="546" y="-223" on="0"/>
        <pt x="522" y="-244" on="0"/>
        <pt x="479" y="-256" on="0"/>
        <pt x="446" y="-256" on="1"/>
        <pt x="420" y="-256" on="0"/>
        <pt x="389" y="-222" on="0"/>
        <pt x="389" y="-190" on="1"/>
        <pt x="401" y="33" on="1"/>
        <pt x="346" y="56" on="0"/>
        <pt x="248" y="124" on="0"/>
        <pt x="175" y="211" on="0"/>
        <pt x="133" y="313" on="0"/>
        <pt x="133" y="369" on="1"/>
        <pt x="133" y="391" on="0"/>
        <pt x="139" y="436" on="0"/>
        <pt x="156" y="472" on="0"/>
        <pt x="184" y="494" on="0"/>
        <pt x="207" y="494" on="1"/>
        <pt x="215" y="494" on="0"/>
        <pt x="228" y="491" on="0"/>
        <pt x="236" y="489" on="1"/>
        <pt x="254" y="483" on="1"/>
        <pt x="265" y="481" on="0"/>
        <pt x="289" y="468" on="0"/>
        <pt x="309" y="450" on="0"/>
        <pt x="322" y="426" on="0"/>
        <pt x="322" y="412" on="1"/>
        <pt x="322" y="359" on="0"/>
        <pt x="370" y="270" on="0"/>
        <pt x="412" y="236" on="1"/>
        <pt x="426" y="524" on="1"/>
        <pt x="365" y="563" on="0"/>
        <pt x="255" y="633" on="0"/>
        <pt x="171" y="702" on="0"/>
        <pt x="121" y="772" on="0"/>
        <pt x="121" y="813" on="1"/>
        <pt x="121" y="861" on="0"/>
        <pt x="182" y="938" on="0"/>
        <pt x="278" y="995" on="0"/>
        <pt x="396" y="1031" on="0"/>
        <pt x="453" y="1038" on="1"/>
      </contour>
      <contour>
        <pt x="575" y="162" on="1"/>
        <pt x="589" y="160" on="0"/>
        <pt x="617" y="158" on="0"/>
        <pt x="631" y="158" on="1"/>
        <pt x="649" y="158" on="0"/>
        <pt x="686" y="165" on="0"/>
        <pt x="717" y="180" on="0"/>
        <pt x="737" y="206" on="0"/>
        <pt x="737" y="225" on="1"/>
        <pt x="737" y="245" on="0"/>
        <pt x="712" y="296" on="0"/>
        <pt x="671" y="349" on="0"/>
        <pt x="617" y="399" on="0"/>
        <pt x="588" y="418" on="1"/>
      </contour>
      <contour>
        <pt x="342" y="823" on="1"/>
        <pt x="342" y="810" on="0"/>
        <pt x="360" y="785" on="0"/>
        <pt x="388" y="762" on="0"/>
        <pt x="422" y="742" on="0"/>
        <pt x="438" y="733" on="1"/>
        <pt x="444" y="879" on="1"/>
        <pt x="425" y="877" on="0"/>
        <pt x="388" y="870" on="0"/>
        <pt x="360" y="857" on="0"/>
        <pt x="342" y="838" on="0"/>
      </contour>
    </TTGlyph>
    <TTGlyph name="dotaccent" xMin="305" yMin="979" xMax="561" yMax="1188">
      <contour>
        <pt x="444" y="979" on="1"/>
        <pt x="415" y="979" on="0"/>
        <pt x="364" y="996" on="0"/>
        <pt x="327" y="1027" on="0"/>
        <pt x="305" y="1069" on="0"/>
        <pt x="305" y="1094" on="1"/>
        <pt x="305" y="1136" on="0"/>
        <pt x="372" y="1188" on="0"/>
        <pt x="428" y="1188" on="1"/>
        <pt x="454" y="1188" on="0"/>
        <pt x="502" y="1169" on="0"/>
        <pt x="539" y="1137" on="0"/>
        <pt x="561" y="1094" on="0"/>
        <pt x="561" y="1071" on="1"/>
        <pt x="561" y="1028" on="0"/>
        <pt x="498" y="979" on="0"/>
      </contour>
    </TTGlyph>
    <TTGlyph name="dotlessi" xMin="92" yMin="-98" xMax="338" yMax="754">
      <contour>
        <pt x="92" y="674" on="1"/>
        <pt x="92" y="692" on="0"/>
        <pt x="114" y="721" on="0"/>
        <pt x="150" y="742" on="0"/>
        <pt x="197" y="754" on="0"/>
        <pt x="221" y="754" on="1"/>
        <pt x="230" y="754" on="0"/>
        <pt x="254" y="750" on="0"/>
        <pt x="278" y="740" on="0"/>
        <pt x="295" y="724" on="0"/>
        <pt x="297" y="713" on="1"/>
        <pt x="314" y="535" on="0"/>
        <pt x="338" y="182" on="0"/>
        <pt x="338" y="2" on="1"/>
        <pt x="338" y="-19" on="0"/>
        <pt x="311" y="-55" on="0"/>
        <pt x="270" y="-82" on="0"/>
        <pt x="221" y="-98" on="0"/>
        <pt x="199" y="-98" on="1"/>
        <pt x="171" y="-98" on="0"/>
        <pt x="133" y="-72" on="0"/>
        <pt x="133" y="-41" on="1"/>
        <pt x="133" y="140" on="0"/>
        <pt x="111" y="494" on="0"/>
      </contour>
    </TTGlyph>
    <TTGlyph name="e" xMin="27" yMin="-82" xMax="1077" yMax="778">
      <contour>
        <pt x="934" y="219" on="1"/>
        <pt x="963" y="244" on="0"/>
        <pt x="991" y="244" on="1"/>
        <pt x="1007" y="244" on="0"/>
        <pt x="1033" y="228" on="0"/>
        <pt x="1049" y="211" on="1"/>
        <pt x="1064" y="188" on="0"/>
        <pt x="1077" y="159" on="0"/>
        <pt x="1077" y="145" on="1"/>
        <pt x="1077" y="115" on="0"/>
        <pt x="1047" y="88" on="1"/>
        <pt x="999" y="48" on="0"/>
        <pt x="887" y="-15" on="0"/>
        <pt x="765" y="-59" on="0"/>
        <pt x="635" y="-82" on="0"/>
        <pt x="571" y="-82" on="1"/>
        <pt x="490" y="-82" on="0"/>
        <pt x="348" y="-41" on="0"/>
        <pt x="237" y="35" on="0"/>
        <pt x="161" y="142" on="0"/>
        <pt x="145" y="209" on="1"/>
        <pt x="136" y="237" on="0"/>
        <pt x="121" y="254" on="0"/>
        <pt x="104" y="254" on="1"/>
        <pt x="67" y="254" on="0"/>
        <pt x="27" y="290" on="0"/>
        <pt x="27" y="324" on="1"/>
        <pt x="27" y="338" on="0"/>
        <pt x="29" y="342" on="1"/>
        <pt x="31" y="362" on="1"/>
        <pt x="36" y="398" on="0"/>
        <pt x="65" y="430" on="0"/>
        <pt x="96" y="430" on="1"/>
        <pt x="111" y="430" on="1"/>
        <pt x="153" y="430" on="0"/>
        <pt x="170" y="469" on="1"/>
        <pt x="201" y="538" on="0"/>
        <pt x="297" y="652" on="0"/>
        <pt x="417" y="733" on="0"/>
        <pt x="554" y="778" on="0"/>
        <pt x="625" y="778" on="1"/>
        <pt x="699" y="778" on="0"/>
        <pt x="828" y="735" on="0"/>
        <pt x="924" y="659" on="0"/>
        <pt x="979" y="557" on="0"/>
        <pt x="979" y="498" on="1"/>
        <pt x="979" y="457" on="0"/>
        <pt x="947" y="389" on="0"/>
        <pt x="887" y="338" on="0"/>
        <pt x="802" y="306" on="0"/>
        <pt x="748" y="301" on="1"/>
        <pt x="401" y="266" on="1"/>
        <pt x="381" y="266" on="0"/>
        <pt x="356" y="246" on="0"/>
        <pt x="356" y="229" on="1"/>
        <pt x="356" y="203" on="0"/>
        <pt x="395" y="155" on="0"/>
        <pt x="460" y="118" on="0"/>
        <pt x="545" y="96" on="0"/>
        <pt x="590" y="96" on="1"/>
        <pt x="633" y="96" on="0"/>
        <pt x="724" y="113" on="0"/>
        <pt x="813" y="145" on="0"/>
        <pt x="897" y="190" on="0"/>
      </contour>
      <contour>
        <pt x="711" y="477" on="1"/>
        <pt x="726" y="480" on="0"/>
        <pt x="748" y="503" on="0"/>
        <pt x="748" y="520" on="1"/>
        <pt x="748" y="535" on="0"/>
        <pt x="726" y="561" on="0"/>
        <pt x="688" y="582" on="0"/>
        <pt x="638" y="594" on="0"/>
        <pt x="610" y="594" on="1"/>
        <pt x="569" y="594" on="0"/>
        <pt x="483" y="570" on="0"/>
        <pt x="413" y="531" on="0"/>
        <pt x="369" y="484" on="0"/>
        <pt x="369" y="461" on="1"/>
        <pt x="369" y="438" on="0"/>
        <pt x="397" y="438" on="1"/>
        <pt x="414" y="438" on="0"/>
        <pt x="490" y="446" on="0"/>
        <pt x="582" y="457" on="0"/>
        <pt x="676" y="471" on="0"/>
      </contour>
    </TTGlyph>
    <TTGlyph name="eacute" xMin="27" yMin="-82" xMax="1077" yMax="1295">
      <component glyphName="e" x="0" y="0" flags="0x1204"/>
      <component glyphName="acute" x="184" y="-44" flags="0x1004"/>
    </TTGlyph>
</ttFont>
